<svg xmlns="http://www.w3.org/2000/svg" width="368" height="368" fill="none" viewBox="0 0 368 368"><g filter="url(#filter0_i_446_237)"><rect width="368" height="368" fill="#fff" fill-opacity=".96" rx="100"/><path fill="#1B70F0" d="M310.314 184.551C312.546 187.148 312.546 190.852 310.314 193.449C296.459 209.573 245.162 264 184 264C122.838 264 71.5411 209.574 57.6861 193.449C55.4539 190.852 55.4539 187.148 57.6861 184.551C71.541 168.427 122.838 114 184 114C245.162 114 296.459 168.426 310.314 184.551Z"/><path fill="url(#paint0_linear_446_237)" d="M184 184C161.909 184 144 166.091 144 144C144 121.909 161.909 104 184 104C206.091 104 224 121.909 224 144C224 166.091 206.091 184 184 184Z"/><path fill="url(#paint1_linear_446_237)" d="M184 194C206.091 194 224 211.909 224 234C224 256.091 206.091 274 184 274C161.909 274 144 256.091 144 234C144 211.909 161.909 194 184 194Z"/><path fill="url(#paint2_radial_446_237)" d="M234 189C234 216.614 211.614 239 184 239C156.386 239 134 216.614 134 189C134 161.386 156.386 139 184 139C211.614 139 234 161.386 234 189Z"/><path fill="#1B70F0" d="M184 219C200.569 219 214 205.569 214 189C214 186.945 213.418 184.001 212.86 181.654C212.437 179.871 210.252 179.214 208.733 180.24C206.739 181.587 204.138 183 202 183C195.373 183 190 177.627 190 171C190 168.583 190.715 166.332 191.945 164.448C193.032 162.782 192.674 160.204 190.735 159.759C188.57 159.262 186.316 159 184 159C167.431 159 154 172.431 154 189C154 205.569 167.431 219 184 219Z"/><path fill="#1B70F0" d="M76.5 91.5C76.5 87.3579 79.8579 84 84 84H99C103.142 84 106.5 87.3579 106.5 91.5V106.5C106.5 110.642 103.142 114 99 114H84C79.8579 114 76.5 110.642 76.5 106.5V91.5Z"/><path fill="url(#paint3_linear_446_237)" d="M69 261.5C73.1421 261.5 76.5 258.142 76.5 254C76.5 249.858 73.1421 246.5 69 246.5C64.8579 246.5 61.5 249.858 61.5 254C61.5 258.142 64.8579 261.5 69 261.5Z"/><path fill="url(#paint4_linear_446_237)" d="M91.5 261.5C95.6421 261.5 99 258.142 99 254C99 249.858 95.6421 246.5 91.5 246.5C87.3579 246.5 84 249.858 84 254C84 258.142 87.3579 261.5 91.5 261.5Z"/><path fill="url(#paint5_linear_446_237)" d="M76.5 276.5C76.5 280.642 73.1421 284 69 284C64.8579 284 61.5 280.642 61.5 276.5C61.5 272.358 64.8579 269 69 269C73.1421 269 76.5 272.358 76.5 276.5Z"/><path fill="url(#paint6_linear_446_237)" d="M91.5 284C95.6421 284 99 280.642 99 276.5C99 272.358 95.6421 269 91.5 269C87.3579 269 84 272.358 84 276.5C84 280.642 87.3579 284 91.5 284Z"/><path fill="url(#paint7_linear_446_237)" d="M280.83 101.5C278.906 98.1667 274.094 98.1667 272.17 101.5L261.345 120.25C259.42 123.583 261.826 127.75 265.675 127.75H287.325C291.174 127.75 293.58 123.583 291.655 120.25L280.83 101.5Z"/><path fill="url(#paint8_linear_446_237)" d="M280.83 161.5C278.906 164.833 274.094 164.833 272.17 161.5L261.345 142.75C259.42 139.417 261.826 135.25 265.675 135.25H287.325C291.174 135.25 293.58 139.417 291.655 142.75L280.83 161.5Z"/><path fill="#1B70F0" d="M286.5 259C286.5 263.142 283.142 266.5 279 266.5C274.858 266.5 271.5 263.142 271.5 259C271.5 254.858 274.858 251.5 279 251.5C283.142 251.5 286.5 254.858 286.5 259Z"/><path stroke="url(#paint9_linear_446_237)" stroke-linecap="round" stroke-width="7.5" d="M279 284H294C299.523 284 304 279.523 304 274V259"/><path fill="url(#paint10_linear_446_237)" d="M89 111.5C89 117.023 84.5228 121.5 79 121.5C73.4772 121.5 69 117.023 69 111.5C69 105.977 73.4772 101.5 79 101.5C84.5228 101.5 89 105.977 89 111.5Z"/><rect width="365" height="365" x="1.5" y="1.5" stroke="#fff" stroke-width="3" rx="98.5"/></g><defs><filter id="filter0_i_446_237" width="368" height="368" x="0" y="0" color-interpolation-filters="sRGB" filterUnits="userSpaceOnUse"><feFlood flood-opacity="0" result="BackgroundImageFix"/><feBlend in="SourceGraphic" in2="BackgroundImageFix" mode="normal" result="shape"/><feColorMatrix in="SourceAlpha" result="hardAlpha" type="matrix" values="0 0 0 0 0 0 0 0 0 0 0 0 0 0 0 0 0 0 127 0"/><feOffset/><feGaussianBlur stdDeviation="1.5"/><feComposite in2="hardAlpha" k2="-1" k3="1" operator="arithmetic"/><feColorMatrix type="matrix" values="0 0 0 0 1 0 0 0 0 1 0 0 0 0 1 0 0 0 0.8 0"/><feBlend in2="shape" mode="normal" result="effect1_innerShadow_446_237"/></filter><linearGradient id="paint0_linear_446_237" x1="184" x2="184" y1="184" y2="104" gradientUnits="userSpaceOnUse"><stop stop-color="#F3F8FF"/><stop offset=".505" stop-color="#B9D9FF"/><stop offset="1" stop-color="#96C6FF"/></linearGradient><linearGradient id="paint1_linear_446_237" x1="184" x2="184" y1="194" y2="274" gradientUnits="userSpaceOnUse"><stop stop-color="#F3F8FF"/><stop offset=".505" stop-color="#B9D9FF"/><stop offset="1" stop-color="#96C6FF"/></linearGradient><radialGradient id="paint2_radial_446_237" cx="0" cy="0" r="1" gradientTransform="translate(184 189) rotate(90) scale(50)" gradientUnits="userSpaceOnUse"><stop stop-color="#fff"/><stop offset="1" stop-color="#fff"/></radialGradient><linearGradient id="paint3_linear_446_237" x1="94" x2="90.618" y1="246.5" y2="288.505" gradientUnits="userSpaceOnUse"><stop stop-color="#B0D4FF"/><stop offset="1" stop-color="#F2F8FF"/></linearGradient><linearGradient id="paint4_linear_446_237" x1="94" x2="90.618" y1="246.5" y2="288.505" gradientUnits="userSpaceOnUse"><stop stop-color="#B0D4FF"/><stop offset="1" stop-color="#F2F8FF"/></linearGradient><linearGradient id="paint5_linear_446_237" x1="94" x2="90.618" y1="246.5" y2="288.505" gradientUnits="userSpaceOnUse"><stop stop-color="#B0D4FF"/><stop offset="1" stop-color="#F2F8FF"/></linearGradient><linearGradient id="paint6_linear_446_237" x1="94" x2="90.618" y1="246.5" y2="288.505" gradientUnits="userSpaceOnUse"><stop stop-color="#B0D4FF"/><stop offset="1" stop-color="#F2F8FF"/></linearGradient><linearGradient id="paint7_linear_446_237" x1="291.5" x2="264" y1="104" y2="164" gradientUnits="userSpaceOnUse"><stop stop-color="#F2F8FF"/><stop offset="1" stop-color="#8EC2FF"/></linearGradient><linearGradient id="paint8_linear_446_237" x1="291.5" x2="264" y1="104" y2="164" gradientUnits="userSpaceOnUse"><stop stop-color="#F2F8FF"/><stop offset="1" stop-color="#8EC2FF"/></linearGradient><linearGradient id="paint9_linear_446_237" x1="304" x2="285.25" y1="284" y2="265.25" gradientUnits="userSpaceOnUse"><stop stop-color="#ECF4FF"/><stop offset="1" stop-color="#D5E8FF"/></linearGradient><linearGradient id="paint10_linear_446_237" x1="69" x2="89" y1="121.5" y2="101.5" gradientUnits="userSpaceOnUse"><stop stop-color="#F3F8FF"/><stop offset="1" stop-color="#96C6FF"/></linearGradient></defs></svg>