<?xml version="1.0" encoding="utf-8"?>
<!-- Generator: Adobe Illustrator 27.6.1, SVG Export Plug-In . SVG Version: 6.00 Build 0)  -->
<svg version="1.1" id="b" xmlns="http://www.w3.org/2000/svg" xmlns:xlink="http://www.w3.org/1999/xlink" x="0px" y="0px"
	 viewBox="0 0 1000.1 1000" style="enable-background:new 0 0 1000.1 1000;" xml:space="preserve">
<style type="text/css">
	.st0{fill:#F7F6E6;}
	.st1{fill:#002F21;}
	.st2{fill:#AEDDAA;}
	.st3{fill:#1A523D;}
	.st4{fill:#DDD9AB;}
	.st5{fill:#1A5244;}
</style>
<path class="st0" d="M849.8,1000H150.2C67.2,1000,0,932.8,0,849.8V150.2C0,67.2,67.2,0,150.2,0h699.7C932.8,0,1000,67.2,1000,150.2
	v699.7C1000,932.8,932.8,1000,849.8,1000z"/>
<path class="st1" d="M266.5,315.5c8.2-4.1,16.4-8.3,24.4-12.5c9-3.7,17.8-7.3,26.7-11v-35.6c11.3,0,20.9,0,30.3,0
	c-0.4,7.6-0.6,15.1-1,22.4c26.2-6.5,51.6-12.9,76.9-19.3c0.5,0.1,0.9,0.1,1.3,0.3c4.5-0.5,9-0.9,13.3-1.4l0.1,0.3v-0.4
	c0.8-0.1,1.5-0.3,2.2-0.4c0.4-0.1,0.8-0.3,1.3-0.4c1.8-0.3,3.6-0.6,5.4-1c36.7-5.6,73.6-5.4,110.4-0.6c7.8,1.3,15.6,2.4,23.4,3.7
	c46.6,8.2,90.9,23.2,133.5,43.4c7.8,4.2,15.7,8.4,23.5,12.7c49.4,24.1,90.5,59.3,130.4,96.1c34.8,35.7,68.3,74.4,106.5,106.6
	c-36.5,35.6-71.4,69.5-106.3,103.4c-15.1,11.5-31.6,22.3-26.6,45.6v0.1h-22.8v27.5h-52.2v26.2c-9.1,0-18.3-0.1-27.4-0.1
	c0-0.5-0.1-0.8-0.5-0.8c-0.3-1.9-0.4-3.8-0.8-6.5c-7.9,4.4-15.2,8.4-22.5,12.4c-0.1,1-0.4,2.2-0.5,3.2c-0.6,2.9-1.3,5.9-1.7,7.4
	c-0.1-1.5-0.5-4.7-0.6-7.2c-37.9,12.2-75,24.2-112.2,36.2c-1.2,0-2.3,0-3.3,0c-1.5,0-3.2,0-4.9,0c-11.5,1.5-23.2,2.9-34.7,4.5
	c-9,1-17.9,1.9-27.8,2.9v24.3h-54.1c-0.3-0.3-0.6-0.4-1-0.4v-24.3c-9.6-0.9-18.6-1.8-27.5-2.7c-4.6-0.8-9.2-1.7-13.8-2.4l-0.3-0.5
	l-0.4,0.4c-38.1-0.5-76.1-0.9-114.3-1.4c-0.3-0.9-0.6-1.8-0.9-2.6c-0.3-6.3-0.4-12.7-0.6-18.9c-3.7-13.7-17.7-12-26.6-17.8
	c-7.7-4.4-15.4-8.8-23.5-13.4c-0.4,3.3-0.5,5.4-0.8,7.9h-29.4v-26.7h-51.8v-28h-22.5v-21c-9.3-8.3-18.2-16.1-27-24.1
	c-34-33.8-68.2-68-110.8-110.3c37.2-33.3,74-66.2,110.7-99.1C175.6,375,218.9,342.3,266.5,315.5L266.5,315.5z M386.5,707.8
	c0.8,0.3,1.5,0.6,2.3,0.9c0.1-0.3,0.3-0.5,0.3-0.9c-0.6-0.3-1.3-0.5-2-0.8c-0.3-0.3-0.5-0.5-0.8-0.8c-16.6-13.3-33.3-26.6-49.9-39.9
	c-28.4-31.7-47.2-68.3-55.8-110.2c-0.1-1.3-0.3-2.7-0.5-4c-12-69.7,5.9-131.4,50.7-185.7l-0.1-0.1c0.6-0.6,1.3-1.2,1.9-1.7
	c17.4-15.6,34.8-31.1,50.3-44.9C286,345.1,166.2,428.7,99.8,518.4c6,5.9,12,11.9,18,17.9c42.1,45.4,87.5,86.8,140.9,118.8
	c39.9,23.7,81,44.9,127.5,53C386.5,708,386.5,707.9,386.5,707.8L386.5,707.8z M502.2,328.6L502.2,328.6c-0.5-9.9-1.2-19.8-1.7-29.7
	c-0.3,0-0.5,0-0.8,0c-8.6,0.4-17.1,0.9-25.7,1.3c-0.4-0.3-0.8-0.3-1,0.1c-16.1,2.7-32.1,5.4-48.1,8.1v38.4
	c-24.4,13.6-46.8,29.4-63.6,52.2c-0.6,0.9-1.4,1.8-2,2.7c-5.1,7.3-10.2,14.7-15.4,22c-0.4,0.6-0.8,1.3-1.2,2c-2.8,6-5.6,12-8.4,18.2
	c-0.5,1.3-1.2,2.6-1.7,3.8c-1.8,5.2-3.7,10.6-5.6,15.9l-0.1,0.4c-1.8,11-3.6,22.1-5.4,33.1c-0.1,0.1-0.4,0.3-0.4,0.4
	c0.1,0.3,0.3,0.6,0.4,0.9c0,4.6,0.1,9.2,0.1,13.8c0.3,6.8,0,13.6,0.8,20.3c7.9,66.9,44.9,113.4,102.8,145V717
	c15.7,2.6,31.2,5.1,46.7,7.7l0.3,0.4l0.4-0.3h29.8v-31.2c9.1-0.9,18.2-1.4,27.3-2.7c101.9-14.3,162-98.5,151.6-212
	c-7-77.7-97.3-153.4-178-149.7C503,328.8,502.6,328.7,502.2,328.6L502.2,328.6z M670.6,664.8c-0.8,0.6-1.4,1.3-2.2,1.9
	c-17,13.7-33.9,27.4-50.9,41.1c-0.3,0.3-0.5,0.4-1.3,0.9h1.7c120-27,206.8-103.9,286.9-190.3c-75.5-88.2-160.7-161.9-274-196.2
	l-0.3-0.3l-0.4,0.1c-2-0.5-4-1-6-1.5c-1-0.3-1.9-0.5-5.1-1.2c2.6,1.5,3.2,2,3.8,2.4c17.5,15.2,35.1,30.3,52.6,45.6
	c19.1,23.7,33.8,49.5,42.9,78.6v-0.1c0.9,3.1,1.7,6,2.6,9.1l0,0c8.1,29.3,9.2,59,5.4,88.9c-0.1,0.8-0.3,1.5-0.3,2.3
	c-0.6,3.2-1.4,6.5-2,9.7c-0.1,1-0.3,2-0.4,3.1c-5,15.6-10.1,31.2-15.1,46.8c-0.3,0.5-0.4,1-0.6,1.7c-4.1,7.4-8.2,14.8-12.3,22.3
	c-0.4,0.6-0.9,1.4-1.3,2c-8.1,10.9-16,21.9-24.1,32.8L670.6,664.8L670.6,664.8z M616.6,319.1C618.7,319.2,618.9,319.2,616.6,319.1
	C618.9,319,618.7,319,616.6,319.1z"/>
<path class="st1" d="M557.4,158.5H447.7V38.6h109.7L557.4,158.5L557.4,158.5z M504.1,71.5c-0.6-0.1-1.3-0.1-1.9-0.3
	c-7.8-0.3-15.5-0.5-23.3-0.8c-0.4,0.3-0.8,0.5-1.3,0.6c0,8.7,0,17.3,0,26c0,0.5,0.1,1,0.1,1.7c-0.3,0.1-0.4,0.4-0.4,0.8l0.3,24.4
	l0.1,0.3h50V98.5c-0.4-9.1-0.6-18.2-1-27.4h-20.9C505.3,71.2,504.7,71.4,504.1,71.5L504.1,71.5z"/>
<path class="st1" d="M557.3,851.3v111.3H447.6V851.3H557.3z M502.1,879.1h-24.8v26c-0.1,8.3-0.3,16.8-0.4,25.1
	c8.4,0.6,17,1.3,25.6,1.9c0.4-0.1,0.8-0.3,1-0.5h24.1v-52.2c-8.2,0-15.9,0-23.7,0C503.2,879.2,502.6,879.1,502.1,879.1z"/>
<path class="st2" d="M558,256c-36.9-4.6-73.6-5-110.4,0.6c0-24.4,0-48.8,0-73.6H558L558,256L558,256z"/>
<path class="st2" d="M266.5,315.5c-47.7,26.7-90.9,59.5-130.9,96.6c-0.1-36.2-0.3-72.6-0.4-108.8c0.1-0.4,0.3-0.9,0.4-1.3
	c1-0.3,1.9-0.5,2.8-0.6c14.7,0.1,29.4,0.3,44,0.4h83.9L266.5,315.5L266.5,315.5z"/>
<path class="st2" d="M868.9,412c-39.9-36.9-81-72.2-130.4-96.1c0.4-3.7,0.8-7.6,1.5-14.5c27.4,0,55,0,82.7,0
	c0.9-0.1,1.9-0.1,2.8-0.1c1.9,0,4,0,6,0c12.5,0.3,25,0.5,37.4,0.9c0.1,0.4,0.1,0.9,0.3,1.3C869,339.5,869,375.8,868.9,412L868.9,412
	z"/>
<path class="st2" d="M714.9,303.1c-42.6-20.2-87-35.2-133.5-43.4c0-10.1,0-20.3,0-31h133.5V303.1L714.9,303.1z"/>
<path class="st2" d="M266.5,746.5v107.2h-60.7c0-35.7,0-71.2,0-106.6C225.9,746.9,246.3,746.7,266.5,746.5z M216.2,822.3h24.2v-26
	h-24.2V822.3z"/>
<path class="st3" d="M348.1,256.4h-30.3c0,9.9,0,19.3,0,28.8c-9,0-17.8,0-26.7,0l-0.4-0.1c0.1-18.7,0.4-37.4,0.5-56.1l0,0
	c0.5-0.3,1-0.5,1.5-0.8c43.4,0.1,86.8,0.1,130,0.3c0.5,0.1,0.9,0.3,1.3,0.5c0.1,0.4,0.3,0.8,0.4,1.2c-0.3,8.4-0.4,17-0.6,25.5
	C398.6,255.9,373.4,256.1,348.1,256.4L348.1,256.4z"/>
<path class="st3" d="M799.1,140.6c0.3,0.1,0.6,0.3,0.9,0.4c0.1,29.7,0.3,59.5,0.4,89.3l-0.4-0.1c-11.6,0-23.2,0-35.7,0v-31.7H740
	c-0.3-2.8-0.4-5.8-0.6-8.7c0-0.5,0.1-1.2,0.1-1.7c0.6-15.7,1.3-31.6,1.9-47.3C760.7,140.6,779.9,140.6,799.1,140.6L799.1,140.6z
	 M764.7,171.6v25.2h25v-25.2C789.7,171.6,764.7,171.6,764.7,171.6z"/>
<path class="st3" d="M800.3,853.5H740c0-18.8,0-38.1,0-57.5c8.2,0,16.4-0.1,24.6-0.1c0.4,8.8,0.9,17.7,1.4,26.6
	c7.6,0,15.2,0.1,22.8,0.1c0.1-8.4,0.1-16.9,0.3-25.3l-0.1-0.1c-8.1-0.4-16.1-0.8-24.3-1c0-9,0-17.9,0.1-26.7c0.3-0.1,0.6-0.3,1-0.4
	c11.5,0.1,23,0.3,34.6,0.4l0.4-0.1C800.4,797.2,800.4,825.4,800.3,853.5L800.3,853.5z"/>
<path class="st4" d="M597.7,766c1.2,0,2.3,0,3.3,0c38.3,0,76.4,0.1,114.7,0.1c-0.1,8.3-0.1,16.6-0.3,25c-0.9,0-1.7,0-2.6,0l-0.3-0.3
	l-0.3,0.3c-17.9-0.1-36-0.1-53.9-0.3c-8.2,0-16.4-0.1-24.6-0.1c-0.4,0-0.6,0.1-0.9,0.4c-2.3,0-4.6,0-7,0l-0.4-0.3l-0.4,0.3
	c-13.8,0-27.6,0-41.6,0c-0.6,0.1-1.2,0.1-1.8,0.3c-0.1,0.3-0.4,0.4-0.6,0.5c-7.7,0-15.4-0.1-23-0.1c0-7.2,0-14.3,0-21.5
	c11.5-1.5,23.2-2.9,34.7-4.5C594.5,766,596,766,597.7,766L597.7,766z"/>
<path class="st4" d="M434,767.8c4.6,0.8,9.2,1.7,13.8,2.4c-0.1,6.8-0.4,13.6-0.5,20.5c-7.7,0-15.4,0-23,0.1
	c-7.7,0.3-15.2,0.4-22.9,0.6c-9.6,0-19.1,0-28.7,0c-0.3-0.3-0.6-0.5-1-0.6c-8.1,0-16,0-24.1,0c-0.4,0.1-0.9,0.3-1.3,0.4
	c-1,0-2,0-3.2,0c-0.3-0.3-0.5-0.3-0.8,0c-17.1,0.1-34.3,0.4-51.4,0.5c0-8.4,0.1-16.9,0.1-25.3c8.8,0,17.7,0,26.5-0.1
	c0.5,0,1,0,1.4,0.1c38.1,0.5,76.1,0.9,114.3,1.4l0.3,0.3L434,767.8L434,767.8z"/>
<path class="st1" d="M658.5,790.9c17.9,0.1,36,0.1,53.9,0.3l0.3,0.4l0.3-0.4c0.9,0,1.7,0,2.6,0c0,20.6,0,41.2,0,62.3h-56.9
	L658.5,790.9L658.5,790.9z"/>
<path class="st1" d="M343.3,791.2c1,0,2,0,3.2,0c0.4,0.1,0.8,0.4,1.2,0.5v61.7h-56.6c0-20.5,0-41.1,0-61.7
	c17.1-0.3,34.3-0.4,51.4-0.5C342.6,791.2,343,791.2,343.3,791.2L343.3,791.2z"/>
<path class="st1" d="M658.2,202.1v-59.9h56.9v59.9H658.2z"/>
<path class="st1" d="M291.3,142h56.3v59.9h-56.3C291.3,202,291.3,142,291.3,142z"/>
<path class="st1" d="M626,791.2c2.3,0,4.6,0,7,0c0,0.4,0.3,0.6,0.8,0.6v61.7h-52.5v-61.4c0.3-0.1,0.5-0.3,0.6-0.5
	c0.6-0.1,1.2-0.3,1.8-0.3c13.8,0,27.6,0,41.6,0l0.4,0.4L626,791.2L626,791.2z"/>
<path class="st1" d="M372.7,791.3c9.6,0,19.1,0,28.7,0c7.6,0.1,15.1,0.3,22.8,0.4v61.7H372c0-20.5,0-41,0-61.6
	C372.3,792,372.6,791.7,372.7,791.3L372.7,791.3z"/>
<path class="st4" d="M266.5,746.5c-20.2,0.3-40.4,0.4-60.7,0.6c-7.8-0.4-15.6-0.8-23.4-1.2c-6.4,0-12.8,0-19.2,0v-22.8
	c-15.6,0-29.9,0-44.4,0c0-0.5,0-1,0.1-1.5c22,0,44.2-0.1,66.2-0.3c17.4,0,34.9,0,52.3,0h29.4c0.3-2.6,0.5-4.6,0.8-7.9
	c8.2,4.6,15.9,9.1,23.5,13.4c0.1,6,0.1,12,0.1,18c-0.1,0.4-0.3,0.8-0.5,1C282.6,746.2,274.6,746.4,266.5,746.5L266.5,746.5z"/>
<path class="st4" d="M739.9,721.3c9.1,0,18.3,0.1,27.4,0.1c17.8,0,35.6,0,53.4,0c21.9-0.1,43.6-0.3,65.5-0.3c0,0.6,0,1.2,0,1.8
	h-41.6c-0.8,8.6-1.4,16.1-2,23.5c-0.9,0-1.7,0-2.6,0c-13.2-0.3-26.4-0.4-39.5-0.6c-11.6,0.1-23.2,0.3-34.8,0.4
	c-8.8,0-17.7-0.1-26.4-0.1h-21.4c-0.6-7.3-1.2-13.4-1.8-19.7c7.3-4,14.5-8.1,22.5-12.4c0.3,2.7,0.5,4.6,0.8,6.5
	C739.5,720.9,739.7,721.2,739.9,721.3L739.9,721.3z"/>
<path class="st2" d="M423.8,202.1h-51.7V142h51.7V202.1L423.8,202.1z"/>
<path class="st5" d="M237.3,721.5c-17.4,0-34.9,0-52.3,0c0-8.6,0-17.3,0-26.7h-23.2v-26.5h-25.6c-0.4-0.9-0.6-1.8-1-2.7
	c0.3-14.6,0.5-29.2,0.8-43.8c8.8,7.9,17.7,15.7,27,24.1v21h22.5v28h51.8V721.5L237.3,721.5z"/>
<path class="st2" d="M206.1,198.1v-56.6h60.3v56.8c-8.6,0-17.1,0-25.7,0.1c-0.3-0.4-0.5-0.5-0.9-0.4c0.3-0.3,0.4-0.5,0.3-0.9v-25.3
	h-23.7V197c0,0.4,0.3,0.6,0.6,0.6C213.5,197.8,209.8,197.9,206.1,198.1L206.1,198.1z"/>
<path class="st2" d="M109.4,610.9v55.4H58.2v-55.4H109.4z"/>
<path class="st3" d="M945,610.1c0.5,0.5,1.2,0.9,1.7,1.4c-0.3,18.3-0.4,36.6-0.5,55c-11.5,0.1-22.9,0.4-34.3,0.5c-3.1,0-6.1,0-9.1,0
	c-1.3,0-2.4,0-3.7,0c-0.9,0-1.8,0-2.7-0.1c-0.4-0.1-0.6-0.3-1-0.4c-0.1-18.3-0.3-36.6-0.5-54.9c0.5-0.5,1-0.9,1.5-1.4
	C912.5,610.1,928.8,610.1,945,610.1L945,610.1z"/>
<path class="st3" d="M106.8,380.4c0.9,0.3,1.7,0.6,2.6,0.9c0.3,15,0.4,29.9,0.6,44.8c-1,2.4-2.2,4.7-3.3,7.2c-1.3,0-2.7,0.1-4.1,0.1
	c-13.1,0-26.2,0-39.3,0c-0.5,0-1,0-1.5,0c-1.5-0.8-2.9-1.4-4.5-2.2c0.3-4,0-8.1,0.6-12c2.4-12.8-5.4-26.7,4.1-38.9
	c14.3,0,28.7,0,43,0C105.8,380.3,106.3,380.3,106.8,380.4L106.8,380.4z"/>
<path class="st3" d="M868.9,302c-12.5-0.3-25-0.5-37.4-0.9c-1.9,0-4,0-6,0c-0.9,0.1-1.9,0.1-2.8,0.1c0-13.3,0-26.7,0-41.3
	c21.1,0,42.2,0,63.5,0c0.1,13.8,0.3,27.6,0.5,41.5C880.8,301.6,874.8,301.8,868.9,302L868.9,302z"/>
<path class="st3" d="M944.8,433.4c-11.4,0-22.8,0.1-34.2,0.1c-2.2,0-4.4,0-6.7,0c-2.9-0.4-5.9-0.8-8.8-1.2
	c-0.1-16.6-0.3-33.3-0.4-49.9c0.5-0.5,1-1,1.5-1.5c16.3,0,32.5,0,48.8,0c0.5,0.5,1,1,1.5,1.5C945.9,399.5,945.4,416.5,944.8,433.4
	L944.8,433.4z"/>
<path class="st3" d="M138.4,301.5c-1,0.3-1.9,0.5-2.8,0.6c-5.8,0-11.4-0.1-17.1-0.1l0.1-0.4c-0.1-0.8-0.4-1.5-0.5-2.3
	c0.1-12.8,0.3-25.5,0.4-38.3c0.5-0.3,1-0.5,1.4-0.9h62.5c0,14.1,0,27.5,0,40.8C167.6,301.1,153,301.2,138.4,301.5L138.4,301.5z"/>
<path class="st3" d="M886.1,721.3c-21.9,0.1-43.6,0.3-65.5,0.3c0-8.6,0-17.3,0-26.9h21.6v-27v-0.1c9,0.3,17.8,0.5,26.7,0.6v24.7
	c6.3,0.3,11.8,0.5,17.1,0.8C886.1,702.9,886.1,712.1,886.1,721.3L886.1,721.3z"/>
<path class="st3" d="M136.1,668.1h25.6v26.6h23.2c0,9.5,0,18,0,26.7c-22,0-44.2,0.1-66.2,0.3c-0.1-9.2-0.3-18.4-0.4-27.6
	c5.5-0.3,10.9-0.5,16.4-0.8c0.3-0.4,0.5-0.8,0.8-1.2c0-2.6-0.1-5-0.1-7.6c-0.1-4.7-0.1-9.5-0.3-14.2c0-0.6,0-1.4,0.1-2
	C135.6,668.2,135.8,668.2,136.1,668.1L136.1,668.1z"/>
<path class="st1" d="M886.7,301.5c-0.1-13.8-0.3-27.6-0.5-41.5c0-8.3,0-16.5,0-25.2h33.8V302c-10.6,0-21,0-31.4,0
	C887.9,301.8,887.3,301.7,886.7,301.5L886.7,301.5z"/>
<path class="st5" d="M558.1,770.5c0,7.2,0,14.3,0,21.5c-0.1,1.9-0.1,3.8-0.3,5.9c-0.4,0-0.8,0.3-1,0.6h-26.6v26.7
	c-18,0-36.1,0-54.1,0c0-9.2,0-18.3,0-27.5h54.3v-24.3C540.2,772.4,549.2,771.4,558.1,770.5L558.1,770.5z"/>
<path class="st1" d="M118.4,260.9c-0.1,12.8-0.3,25.5-0.4,38.3c-0.3,0.8-0.5,1.5-0.9,2.3H85.4v-66.8h33c0,8.4,0,16.6,0,24.8
	C118.4,260,118.4,260.5,118.4,260.9L118.4,260.9z"/>
<path class="st1" d="M266.4,230.3v49.5h-59.9c0-9.1,0-17.9,0-26.7c11,0,21.9,0,33.7,0v-22.5c0.4-0.1,0.6-0.1,1-0.3
	C249.5,230.2,257.9,230.3,266.4,230.3L266.4,230.3z"/>
<path class="st1" d="M799.9,253.1c0,8.8,0,17.7,0.1,26.5l-0.3-0.1v0.3c-20,0-39.9,0-59.8,0c0-16.5,0-32.9,0-49.4
	c7.9,0.6,15.9,1.3,24.7,2v20.7L799.9,253.1L799.9,253.1z"/>
<path class="st2" d="M715.7,766.2c-38.3,0-76.4-0.1-114.7-0.1c37.1-12,74.4-23.9,112.2-36.2c0.3,2.4,0.5,5.6,0.6,7.2
	c0.4-1.5,1-4.5,1.7-7.4C715.7,741.9,715.7,754.1,715.7,766.2L715.7,766.2z"/>
<path class="st1" d="M886.1,721.3c0-9.2,0-18.3,0-27.5c11.3,0,22.7,0,33.9,0.1l-0.1,0.3h0.3v59.3c-11.4,0-22.5,0-33.7,0l0.1-0.3
	h-0.3c-0.1-10-0.3-20.1-0.3-30.1C886.1,722.5,886.1,721.8,886.1,721.3L886.1,721.3z"/>
<path class="st1" d="M118.4,693.9c0.1,9.2,0.3,18.4,0.4,27.6c0,0.5,0,1-0.1,1.5c0,10,0,19.8,0,30.2H85.3v-59.4
	C85.3,693.9,118.4,693.9,118.4,693.9z"/>
<path class="st3" d="M163.1,746c6.4,0,12.8,0,19.2,0c-0.4,16.4-0.9,32.6-1.3,48.9c-0.5,0-1,0-1.5,0.1h-38.1
	c1.3-16.6,2.4-32.5,3.7-48.4C151.1,746.4,157.1,746.3,163.1,746C163,746,163.1,746,163.1,746z"/>
<path class="st2" d="M840.1,746.5c0.9,0,1.7,0,2.6,0c6.1,0,12.3,0,19.1,0v47.7h-38.8v-47.7H840.1L840.1,746.5z"/>
<path class="st1" d="M349.4,115.5h-36v-49h36V115.5z"/>
<path class="st1" d="M822.2,867.5V822h39.3v45.4H822.2z"/>
<path class="st1" d="M182.9,867.2h-39.2v-45.3h39.3c0,15,0,29.9,0,45h-0.3L182.9,867.2L182.9,867.2z"/>
<path class="st1" d="M691.1,115.6h-34.9V66.2h34.9V115.6z"/>
<path class="st1" d="M143.8,126.8h39.4v44.2h-39.4V126.8z"/>
<path class="st1" d="M822.3,126.8h38.8v44.2h-38.8V126.8z"/>
<path class="st1" d="M349.4,927.4h-36v-47.1h36.2c0,15.9,0,31.4,0,46.8h-0.3V927.4L349.4,927.4z"/>
<path class="st1" d="M655.9,880.4h35.2v47.1h-35.2L655.9,880.4L655.9,880.4z"/>
<path class="st3" d="M581.2,170c0-2,0-4.1,0-6.1c0-0.5,0-1,0-1.5v-21.1c17.3,0,34.3,0,51.2,0c0.5,0.3,1,0.5,1.5,0.8l0,0
	c-0.1,10.6-0.3,21.2-0.4,31.7c-9,0.3-17.9,0.4-26.9,0.6c-8.3-0.1-16.6-0.1-25.1-0.3c-0.1-0.9-0.3-1.8-0.4-2.7
	C581.3,170.9,581.3,170.5,581.2,170L581.2,170z"/>
<path class="st5" d="M799.9,253.1h-35.2v-20.7c-8.8-0.8-16.8-1.4-24.7-2c0-10.7,0-21.5,0-32.1c7.8,0,15.6,0,24.3,0v31.7
	c12.5,0,24.1,0,35.7,0C800,237.7,800,245.4,799.9,253.1L799.9,253.1z"/>
<path class="st2" d="M182.4,236.6h-39.2v-39.3h39.2V236.6z"/>
<path class="st2" d="M861.7,197.2v39.5h-38.9v-39.5H861.7z"/>
<path class="st2" d="M423.9,879.9v27.9h-51.7v-27.9H423.9z"/>
<path class="st2" d="M423.8,89.7v26.2h-51.7V89.7H423.8z"/>
<path class="st3" d="M241,230.2c-0.3,0.1-0.6,0.3-1,0.3c-11.4-0.1-22.8-0.3-34.2-0.3c0.1-10.7,0.1-21.5,0.1-32.2
	c3.7-0.1,7.3-0.3,11-0.3c7.6,0.1,15.1,0.1,22.8,0.3c0.4-0.1,0.8,0,1,0.4C240.9,208.9,241,219.5,241,230.2L241,230.2z"/>
<path class="st5" d="M869.1,668.2c-9-0.3-17.8-0.5-26.7-0.6c-5-23.3,11.5-34,26.6-45.6C869,637.4,869,652.9,869.1,668.2z"/>
<path class="st3" d="M476.2,797.7c0,9.2,0,18.3,0,27.5c-9.3,0-18.8,0.1-28.2,0.1c-0.3-0.5-0.5-0.9-0.8-1.4c0-1.5,0-3.1,0-4.7
	c0-0.6,0-1.3,0-1.8c0.1-6.7,0.4-13.2,0.5-19.7c9.1-0.1,18.2-0.3,27.1-0.4C475.6,797.3,476,797.5,476.2,797.7z"/>
<path class="st5" d="M241,230.2c-0.1-10.6-0.3-21.2-0.3-31.9c8.6,0,17.1,0,25.7-0.1c0,10.7,0,21.4-0.1,32.1
	C257.9,230.3,249.5,230.3,241,230.2z"/>
<path class="st5" d="M765.7,746.3c11.6-0.1,23.2-0.3,34.8-0.4c-0.1,7.7-0.3,15.5-0.4,23.2c-11.5-0.1-23-0.3-34.6-0.4
	C765.6,761.3,765.7,753.8,765.7,746.3L765.7,746.3z"/>
<path class="st5" d="M606.7,174.5c9-0.3,17.9-0.4,26.9-0.6c0.1,9.3,0.1,18.8,0.3,28.2c-0.4,0.1-0.6,0.3-1,0.4
	c-8.6,0.1-17.1,0.1-25.7,0.1l-0.3-0.1l0.1-0.4C606.8,192.8,606.8,183.7,606.7,174.5L606.7,174.5z"/>
<path class="st5" d="M87,332.7c0,2.2,0,4.4,0,6.5c0,4.2,0,8.3,0,12.5c-9.2,1.3-18.3,2.6-28.3,4v-28.4c9.2,2.9,19.6-4.6,28.3,4.1
	C87,331.8,87,332.2,87,332.7L87,332.7z"/>
<path class="st5" d="M608.7,907.3c-8.8,0.6-17.7,1.2-27,1.8v-29h26.7C608.4,889.1,608.6,898.2,608.7,907.3L608.7,907.3z"/>
<path class="st5" d="M206,230.2c11.4,0.1,22.8,0.3,34.2,0.3c0,7.2,0,14.3,0,22.5c-11.8,0-22.8,0-33.7,0c-0.3-0.3-0.5-0.6-0.5-1
	c0-0.4,0-0.9,0-1.3c0.1-0.3,0.4-0.4,0.6-0.3c-0.1-6.3-0.3-12.5-0.4-18.8c-0.1-0.3-0.3-0.6-0.3-0.9
	C205.7,230.6,205.8,230.4,206,230.2L206,230.2z"/>
<path class="st5" d="M475.2,797.2c-9.1,0.1-18.2,0.3-27.1,0.4c-0.3-2.3-0.5-4.6-0.9-6.9c0.1-6.8,0.4-13.6,0.5-20.5
	c9,0.9,17.9,1.8,27.5,2.7L475.2,797.2L475.2,797.2z"/>
<path class="st3" d="M530.4,825.1v-26.7c9.3,0,17.9,0,26.6,0c0,9,0.1,17.9,0.1,26.9C548.2,825.2,539.3,825.1,530.4,825.1
	L530.4,825.1z"/>
<path class="st1" d="M606.7,174.5c0,9.2,0.1,18.4,0.1,27.6c-7.6,0.1-15.1,0.3-22.7,0.5c-0.5,0-1,0-1.4,0c-0.5-1-0.9-2-1.3-2.9
	c0-0.4,0-0.9,0-1.3c0-4.2,0-8.6,0-12.8c0-0.9,0-1.7,0-2.6c0-1.7,0-3.5,0-5.1c0-0.5,0-1,0-1.4c0.1-0.8,0.3-1.5,0.3-2.2
	C590,174.2,598.3,174.4,606.7,174.5L606.7,174.5z"/>
<path class="st3" d="M608.7,907.3c-0.1-9.1-0.3-18.2-0.4-27.1c8.1-0.3,16.1-0.5,24.1-0.6c0.5,0.3,1,0.5,1.5,0.6l0.1,0.3
	c-0.1,9-0.3,17.8-0.4,26.7C625.5,907.1,617.1,907.1,608.7,907.3L608.7,907.3z"/>
<path class="st1" d="M423.9,37.7V62h-27V37.7C396.9,37.7,423.9,37.7,423.9,37.7z"/>
<path class="st1" d="M607,116.1H582V89.8c8.4,0,16.9,0,25.3,0c0.3,1.3,0.6,2.6,0.9,3.7c0,2.4,0,4.9,0,7.3c0,0.6,0,1.2,0,1.8
	l-0.1,9.7C607.5,113.6,607.3,114.9,607,116.1L607,116.1z"/>
<path class="st5" d="M764.6,795.9c-8.2,0-16.4,0.1-24.6,0.1c-0.1-9-0.3-18-0.5-27c8.3,0,16.8,0.1,25.1,0.1
	C764.6,778.1,764.6,787,764.6,795.9L764.6,795.9L764.6,795.9z"/>
<path class="st3" d="M607.8,112.2c0-3.2,0.1-6.5,0.1-9.7c0-0.6,0-1.2,0-1.8c0-2.4,0-4.9,0-7.3c0.1-1.3,0.3-2.4,0.5-3.7v-0.4
	c8.1,0,16.1-0.1,24.2-0.1c0.5,0.5,1,1,1.5,1.5c-0.1,8.4-0.4,16.9-0.5,25.3c-5,0.1-10,0.3-15.1,0.4c-3.1,0-6,0-9,0
	c-0.4,0-0.6-0.3-0.9-0.4C608.4,114.7,608.2,113.5,607.8,112.2L607.8,112.2z"/>
<path class="st1" d="M608.1,37.6c0,8.2,0,16.4,0,24.4l-0.3-0.1v0.3H582V37.4c8.7,0,17.3,0,26,0v0.3L608.1,37.6L608.1,37.6z"/>
<path class="st1" d="M582.1,935.8h26v25.1h-26.2c0-8.4,0-16.6,0-25l0.3,0.1V935.8L582.1,935.8z"/>
<path class="st1" d="M423.7,936.3v24.1h-26.7v-24.1H423.7z"/>
<path class="st1" d="M764.6,769.2c-8.3,0-16.8-0.1-25.1-0.1c-0.1-7.6-0.1-15.2-0.3-22.8c8.8,0,17.7,0.1,26.4,0.1
	c0,7.4-0.1,15-0.1,22.5C765.2,768.9,765,769.1,764.6,769.2L764.6,769.2z"/>
<path class="st2" d="M938.5,353.9h-20.2c0-8.1,0-16.1,0-24.2c8.3,0,16.6,0,25.3,0v21.1C941.7,351.9,940,352.9,938.5,353.9
	L938.5,353.9z"/>
<path class="st3" d="M290.8,746c0.3-0.3,0.4-0.6,0.5-1c8.8-0.1,17.7-0.3,26.4-0.3c0.3,6.3,0.4,12.7,0.6,18.9
	c-0.1,0.9-0.4,1.7-0.5,2.6c-8.8,0-17.7,0-26.5,0.1C290.9,759.6,290.9,752.8,290.8,746L290.8,746z"/>
<path class="st5" d="M291.1,285.2c9,0,17.8,0,26.7,0c0,2,0,4.2,0,6.8c-9,3.7-17.9,7.3-26.7,11c-0.3-0.3-0.5-0.8-0.5-1.2
	c0-0.4,0-0.8,0-1.2C290.7,295.6,290.8,290.4,291.1,285.2L291.1,285.2z"/>
<path class="st4" d="M800.4,230.2c-0.1-29.7-0.3-59.5-0.4-89.3C800.1,170.7,800.3,200.5,800.4,230.2z"/>
<path class="st1" d="M938.5,353.9c1.5-1,3.2-2,5.1-3.2v-21.1c-8.6,0-16.9,0-25.3,0V329c0.4-0.4,0.8-0.8,1.3-1
	c8.4,2,17.9-3.6,25.7,3.6c-0.1,6.9-0.1,13.9-0.3,20.9c-1.2,0.5-2.2,1-3.3,1.5C940.7,353.9,939.5,353.9,938.5,353.9L938.5,353.9z"/>
<path class="st4" d="M800.3,853.5c0.1-28.2,0.1-56.3,0.3-84.5C800.5,797.2,800.4,825.4,800.3,853.5z"/>
<path class="st4" d="M633.8,202c-0.1-9.3-0.1-18.8-0.3-28.2c0.1-10.6,0.3-21.2,0.4-31.7C633.9,162.1,633.9,182.1,633.8,202
	L633.8,202z"/>
<path class="st4" d="M799.1,140.6c-19.2,0-38.4,0-57.6,0C760.7,140.6,779.9,140.6,799.1,140.6z"/>
<path class="st4" d="M291.1,229.1c-0.1,18.7-0.4,37.4-0.5,56.1C290.8,266.5,290.9,247.8,291.1,229.1z"/>
<path class="st4" d="M946.2,666.6c0.3-18.3,0.4-36.6,0.5-55C946.4,629.8,946.3,648.3,946.2,666.6z"/>
<path class="st4" d="M62.3,380.3c-9.3,12.2-1.7,26-4.1,38.9c-0.8,3.8-0.5,7.9-0.6,12c0-16.6,0-33.3,0-50.9
	C57.4,380.3,62.3,380.3,62.3,380.3z"/>
<path class="st4" d="M894.8,611.5c0.1,18.3,0.3,36.6,0.5,54.9C895.1,648.1,895,629.8,894.8,611.5z"/>
<path class="st4" d="M944.8,433.4c0.6-17,1.3-34,1.9-51.1C947.1,399.5,950.6,416.6,944.8,433.4z"/>
<path class="st4" d="M894.7,382.5c0.1,16.6,0.3,33.3,0.4,49.9C895,415.7,894.8,399.1,894.7,382.5z"/>
<path class="st4" d="M945,380.9c-16.3,0-32.5,0-48.8,0C912.5,380.9,928.8,380.9,945,380.9z"/>
<path class="st4" d="M945,610.1c-16.3,0-32.5,0-48.6,0C912.5,610.1,928.8,610.1,945,610.1z"/>
<path class="st4" d="M138.4,301.5c14.6-0.1,29.2-0.4,43.8-0.5c0.3,0.3,0.4,0.5,0.3,0.9C167.8,301.7,153.1,301.6,138.4,301.5z"/>
<path class="st4" d="M110,426.1c-0.3-15-0.4-29.9-0.6-44.8C109.6,396.2,109.7,411.1,110,426.1z"/>
<path class="st4" d="M423.9,255.6c0.3-8.4,0.4-17,0.6-25.5c0.3,9.9,0.5,19.7,0.9,29.7c-0.5-0.1-0.9-0.1-1.3-0.3
	C424,258.2,423.9,256.9,423.9,255.6L423.9,255.6z"/>
<path class="st4" d="M633.8,907c0.1-9,0.3-17.8,0.4-26.7C634,889.2,633.9,898.2,633.8,907z"/>
<path class="st4" d="M557.1,825.2c0-9-0.1-17.9-0.1-26.9c0.3-0.4,0.5-0.5,1-0.6C557.8,806.9,557.4,816,557.1,825.2L557.1,825.2z"/>
<path class="st4" d="M633.7,116.1c0.1-8.4,0.4-16.9,0.5-25.3C634,99.1,633.9,107.7,633.7,116.1z"/>
<path class="st4" d="M607,202.5c8.6-0.1,17.1-0.1,25.7-0.1C624.2,202.4,615.6,202.5,607,202.5z"/>
<path class="st4" d="M632.8,89.1c-8.1,0-16.1,0.1-24.2,0.1C616.5,89.3,624.6,89.3,632.8,89.1z"/>
<path class="st4" d="M945,352.4c0.1-6.9,0.1-13.9,0.3-20.9c-0.1,7.6-0.3,15.2-0.4,22.8C944.9,353.7,945,353,945,352.4z"/>
<path class="st5" d="M424,791.7c-7.6-0.1-15.1-0.3-22.8-0.4c7.7-0.3,15.2-0.4,22.9-0.6C424.4,791.1,424.3,791.5,424,791.7z"/>
<path class="st4" d="M886.7,301.5c0.6,0.1,1.3,0.4,1.9,0.5c-6.4,0.4-12.9,0.9-19.3,1.3c-0.1-0.4-0.1-0.9-0.3-1.3
	C874.8,301.8,880.6,301.6,886.7,301.5L886.7,301.5z"/>
<path class="st1" d="M206.1,231.6c0.1,6.3,0.3,12.5,0.4,18.8C206.4,244.1,206.2,237.8,206.1,231.6z"/>
<path class="st4" d="M163,746c-6,0.3-11.9,0.4-17.9,0.6C151.1,746.4,157.1,746.3,163,746z"/>
<path class="st4" d="M118.4,302c5.8,0,11.4,0.1,17.1,0.1c-0.1,0.4-0.3,0.9-0.4,1.3C129.6,303,123.9,302.5,118.4,302L118.4,302z"/>
<path class="st4" d="M135.2,670.3c0.1,4.7,0.1,9.5,0.3,14.2C135.3,679.9,135.2,675,135.2,670.3z"/>
<path class="st4" d="M87,351.7c0-4.2,0-8.3,0-12.5C87,343.3,87,347.5,87,351.7z"/>
<path class="st4" d="M902.6,666.9c3.1,0,6.1,0,9.1,0C908.8,666.9,905.7,666.9,902.6,666.9z"/>
<path class="st4" d="M609.7,116.4c3.1,0,6,0,9,0C615.6,116.5,612.7,116.5,609.7,116.4z"/>
<path class="st4" d="M903.9,433.6c2.2,0,4.4,0,6.7,0C908.3,433.6,906.1,433.6,903.9,433.6z"/>
<path class="st5" d="M608.6,89.8c-0.1,1.3-0.3,2.4-0.5,3.7c-0.3-1.3-0.6-2.6-0.9-3.7C607.7,89.8,608.2,89.8,608.6,89.8L608.6,89.8z"
	/>
<path class="st4" d="M102.7,433.4c1.4,0,2.7-0.1,4.1-0.1C105.4,433.3,104,433.4,102.7,433.4z"/>
<path class="st5" d="M607.8,112.2c0.3,1.3,0.6,2.6,0.9,3.8c-0.5,0-1.2,0-1.7,0.1C607.3,114.9,607.5,113.6,607.8,112.2L607.8,112.2z"
	/>
<path class="st4" d="M581.3,182.9c0,0.9,0,1.7,0,2.6C581.3,184.6,581.3,183.7,581.3,182.9z"/>
<path class="st2" d="M945,352.4c0,0.6-0.1,1.3-0.1,1.9c-1-0.1-2.2-0.3-3.2-0.4C942.8,353.4,943.9,352.9,945,352.4z"/>
<path class="st4" d="M136.1,668.1c-0.3,0-0.6,0-0.9,0c0-0.9-0.1-1.8-0.1-2.7C135.5,666.4,135.8,667.3,136.1,668.1L136.1,668.1z"/>
<path class="st4" d="M896.3,666.9c0.9,0,1.8,0,2.7,0.1C898,666.9,897.1,666.9,896.3,666.9z"/>
<path class="st5" d="M117.2,301.6c0.3-0.8,0.5-1.5,0.9-2.3c0.1,0.8,0.4,1.5,0.5,2.3C118.1,301.6,117.5,301.6,117.2,301.6
	L117.2,301.6z"/>
<path class="st4" d="M442.2,257.7c-0.4,0.1-0.8,0.3-1.3,0.4C441.4,257.9,441.8,257.8,442.2,257.7z"/>
<path class="st4" d="M739.5,187.9c0,0.5-0.1,1.2-0.1,1.7C739.5,189.1,739.5,188.5,739.5,187.9z"/>
<path class="st4" d="M581.3,198.3c0,0.4,0,0.9,0,1.3c-0.1-0.3-0.3-0.5-0.4-0.9C580.9,198.6,581.2,198.4,581.3,198.3L581.3,198.3z"/>
<polygon class="st5" points="799.8,279.8 799.8,279.4 800,279.6 800,279.8 "/>
<path class="st4" d="M581.3,176.4c0,0.5,0,1,0,1.4c-0.1-0.4-0.3-0.6-0.4-1C580.9,176.7,581.2,176.6,581.3,176.4L581.3,176.4z"/>
<polygon class="st5" points="920.3,694.1 920.1,694.1 920.2,693.8 920.4,693.8 "/>
<polygon class="st5" points="886.5,753.1 886.8,753.1 886.7,753.3 886.4,753.3 "/>
<path class="st4" d="M582.7,202.5c0.5,0,1,0,1.4,0C583.7,202.5,583.2,202.5,582.7,202.5z"/>
<path class="st4" d="M581.2,170c0,0.5,0,1,0,1.4c-0.1-0.4-0.3-0.6-0.4-1C580.8,170.3,581.1,170.2,581.2,170L581.2,170z"/>
<path class="st4" d="M581.2,162.3c0,0.5,0,1,0,1.5c-0.1-0.4-0.4-0.6-0.4-1C580.8,162.7,581.1,162.5,581.2,162.3L581.2,162.3z"/>
<path class="st4" d="M633.9,142c-0.5-0.3-1-0.5-1.5-0.8C632.9,141.5,633.4,141.7,633.9,142z"/>
<path class="st5" d="M347.5,791.7c-0.4-0.1-0.8-0.4-1.2-0.5c0.4-0.1,0.9-0.3,1.3-0.4C347.9,791.1,347.8,791.5,347.5,791.7z"/>
<path class="st5" d="M372.7,791.3c-0.1,0.4-0.4,0.6-0.9,0.5c-0.3-0.4-0.3-0.6-0.1-1C372.1,790.8,372.5,791.1,372.7,791.3
	L372.7,791.3z"/>
<path class="st4" d="M62,433.4c0.5,0,1,0,1.5,0C62.9,433.4,62.4,433.4,62,433.4z"/>
<path class="st4" d="M135.5,692.1c-0.3,0.4-0.5,0.8-0.8,1.2C135.1,692.9,135.2,692.5,135.5,692.1z"/>
<path class="st5" d="M633.8,791.8c-0.5,0-0.6-0.3-0.8-0.6c0.3-0.3,0.5-0.4,0.9-0.4C634,791.1,634,791.5,633.8,791.8L633.8,791.8z"/>
<path class="st4" d="M179.6,795c0.5,0,1,0,1.5-0.1C180.6,794.9,180.1,795,179.6,795z"/>
<path class="st4" d="M292.7,228.3c-0.5,0.3-1,0.5-1.5,0.8C291.7,228.8,292.2,228.5,292.7,228.3z"/>
<path class="st4" d="M424,229c-0.5-0.1-0.9-0.3-1.3-0.5C423.1,228.6,423.7,228.8,424,229z"/>
<path class="st4" d="M447.5,817.3c0,0.6,0,1.3,0,1.8C447.5,818.6,447.5,817.9,447.5,817.3z"/>
<path class="st2" d="M919.5,327.9c-0.4,0.4-0.8,0.8-1.3,1C918.8,328.7,919.2,328.3,919.5,327.9z"/>
<path class="st4" d="M447.5,823.8c0.3,0.5,0.5,0.9,0.8,1.4C448,824.9,447.7,824.3,447.5,823.8z"/>
<polygon class="st5" points="182.9,867.2 182.8,867 183.2,867 183.3,867.2 "/>
<path class="st4" d="M290.4,300.7c0,0.4,0,0.8,0,1.2c-0.1-0.3-0.3-0.5-0.4-0.9C290,300.9,290.3,300.8,290.4,300.7L290.4,300.7z"/>
<path class="st4" d="M106.8,380.4c-0.5,0-1,0-1.5,0C105.8,380.3,106.3,380.3,106.8,380.4z"/>
<path class="st4" d="M118.4,260.9c0-0.5,0-0.9,0-1.4c0.5,0.1,0.9,0.4,1.4,0.5C119.3,260.4,118.8,260.6,118.4,260.9L118.4,260.9z"/>
<path class="st5" d="M438.8,258.5l0.1,0.4L438.8,258.5z"/>
<path class="st4" d="M634,880c-0.5-0.3-1-0.5-1.5-0.6C633,879.6,633.5,879.8,634,880z"/>
<polygon class="st5" points="607.8,62.1 607.8,61.9 608.1,62 608.1,62.3 "/>
<path class="st4" d="M205.8,250.6c0,0.4,0,0.9,0,1.3c-0.1-0.3-0.3-0.6-0.4-0.9C205.5,250.9,205.7,250.8,205.8,250.6z"/>
<polygon class="st5" points="608.1,37.6 607.8,37.7 607.8,37.4 608.1,37.3 "/>
<path class="st4" d="M87,332.7c0-0.4,0-0.8,0-1.3c0.1,0.3,0.3,0.5,0.4,0.9C87.3,332.3,87.1,332.5,87,332.7L87,332.7z"/>
<polygon class="st5" points="349.4,927.4 349.2,927.1 349.6,927.2 349.7,927.4 "/>
<polygon class="st5" points="582.1,935.8 582.2,936.1 582,935.9 "/>
<path class="st5" d="M503.2,329.1c80.8-3.7,171,72,178,149.7c10.4,113.5-49.8,197.7-151.6,212c-9.1,1.3-18.2,1.8-27.3,2.7
	c-11-0.9-22-1.9-32.9-2.8h-0.1c-14.7-4.4-29.3-8.8-43.9-13.2c-58-31.6-94.8-78.1-102.8-145c-0.8-6.7-0.5-13.6-0.8-20.3
	c8.1,0,16.1,0,24.2-0.1c0.5,0.3,1.2,0.5,1.7,0.8c-3.6,73.8,67.3,149.7,141.3,151.3c103.3,2,169.2-61.2,168.3-161.2
	c-0.8-79.1-75.6-151.4-153.4-148.3c-0.3-0.4-0.6-0.5-1-0.6c0-7.4,0-14.8-0.1-22.1L503.2,329.1L503.2,329.1z"/>
<path class="st4" d="M670.5,664.6c32.6-11,60.4-30.7,88.2-50c40.1-27.9,75.5-61.3,109.5-97.5c-37.6-39.8-75.2-78.7-120.9-108.3
	c-23.2-15-47.7-27.6-71.7-41.3c-17.5-15.2-35.1-30.3-52.6-45.6c0.4-0.4,0.8-0.8,1.3-1.3c2,0.5,4,1,6,1.5l0.3,0.3l0.4-0.1
	c113.1,34.2,198.4,107.9,274,196.1C824.8,604.7,738.1,681.5,618,708.7c0.1-0.5,0-0.8-0.5-0.9c17-13.7,33.9-27.4,50.9-41.1
	c0.8-0.6,1.4-1.3,2.2-1.9L670.5,664.6L670.5,664.6z"/>
<path class="st4" d="M331,366.6c-37.6,17.1-71.8,39.5-104.2,65.1c-39.7,31.4-74.4,67.8-108.8,104.6c-6-6-12-11.9-18-17.9
	c66.4-89.7,186.2-173.3,283.1-198.6c-15.5,13.8-32.9,29.4-50.3,45c-0.6,0.6-1.3,1.2-1.9,1.7L331,366.6L331,366.6z"/>
<path class="st4" d="M259,655c6.7-7.2,13.2-14.5,18.3-20c21.2,11.3,40.2,21.2,59.3,31.4c16.6,13.3,33.3,26.6,49.9,39.9
	c0,0.6,0,1.2,0,1.7C340.1,700,299,678.7,259,655z"/>
<path class="st4" d="M469.5,690.6c11,0.9,22,1.9,32.9,2.8c0,10.4,0,20.9,0,31.2c-10,0-20,0-29.8,0l-0.3-0.3l-0.4,0.3
	c-15.5-2.6-30.8-5.1-46.7-7.7v-39.4c14.7,4.4,29.3,8.8,43.9,13.2L469.5,690.6L469.5,690.6z"/>
<path class="st4" d="M502.4,328.7c-27.4-0.8-52.2,9.3-77.4,18.2c0-12.3,0-24.6,0-38.4c16-2.7,32-5.4,48.1-8.1c0.4-0.1,0.8-0.1,1-0.1
	c8.6-0.4,17.1-0.9,25.7-1.3l0.4,0.3l0.4-0.3C501.2,308.9,501.7,318.9,502.4,328.7L502.4,328.7z"/>
<path class="st5" d="M842.2,667.7v27h-21.6c0,9.6,0,18.3,0,26.9c-17.8,0-35.6,0-53.4,0c0-8.4,0-16.9,0-26.2h52.2v-27.5L842.2,667.7
	L842.2,667.7z"/>
<path class="st5" d="M423.9,255.6c0,1.3,0.1,2.6,0.1,4c-25.3,6.4-50.7,12.7-76.9,19.3c0.4-7.4,0.6-14.8,1-22.4
	C373.4,256.1,398.7,255.9,423.9,255.6z"/>
<path class="st5" d="M317.6,744.7c-8.8,0.1-17.7,0.3-26.4,0.3c-0.1-6-0.1-12-0.1-18C300,732.7,314,731.1,317.6,744.7L317.6,744.7z"
	/>
<path class="st4" d="M334.2,443.9c-0.5,1.3-1.2,2.6-1.7,3.8C333.2,446.4,333.7,445.2,334.2,443.9z"/>
<path class="st4" d="M361.2,399.1c-0.6,0.9-1.4,1.8-2,2.7C359.8,400.9,360.6,400,361.2,399.1z"/>
<path class="st5" d="M695.7,629.8c-0.4,0.6-0.9,1.4-1.3,2C695,631.1,695.3,630.5,695.7,629.8z"/>
<path class="st5" d="M343.8,423.8c-0.4,0.6-0.8,1.3-1.2,2C343,425.1,343.4,424.4,343.8,423.8z"/>
<path class="st2" d="M597.7,766c-1.5,0-3.2,0-4.9,0C594.5,766,596,766,597.7,766z"/>
<path class="st4" d="M280.7,556.2c-0.1-1.3-0.3-2.7-0.5-4C280.5,553.6,280.6,554.8,280.7,556.2z"/>
<path class="st4" d="M502.5,331.7c-0.1-1-0.1-2-0.3-2.9c0.4,0,0.6,0.1,1,0.4C503,330,502.7,330.8,502.5,331.7L502.5,331.7z"/>
<path class="st4" d="M623,321.8c-0.6-0.4-1.3-0.8-3.8-2.4c3.1,0.8,4.1,0.9,5.1,1.2C623.8,321,623.4,321.4,623,321.8L623,321.8z"/>
<path class="st5" d="M616.6,319.1C618.7,319,618.9,319,616.6,319.1C618.9,319.2,618.7,319.2,616.6,319.1z"/>
<path class="st4" d="M724,556c-0.1,1-0.3,2-0.4,3.1C723.7,558,723.9,557,724,556z"/>
<path class="st4" d="M726.4,543.8c-0.1,0.8-0.3,1.5-0.3,2.3C726.2,545.4,726.3,544.6,726.4,543.8z"/>
<path class="st5" d="M317.7,766.2c0.1-0.9,0.4-1.7,0.5-2.6c0.3,0.9,0.6,1.8,0.9,2.6C318.6,766.2,318.2,766.2,317.7,766.2z"/>
<path class="st5" d="M321.5,497.1c0.1,0.3,0.3,0.6,0.3,0.9c0,0.1-0.1,0.3-0.3,0.4c-0.1-0.3-0.3-0.6-0.4-0.9
	C321.1,497.4,321.4,497.2,321.5,497.1L321.5,497.1z"/>
<path class="st5" d="M386.5,708c0-0.6,0-1.2,0-1.7c0.3,0.3,0.5,0.5,0.8,0.8c-0.1,0.3-0.3,0.5-0.6,0.8L386.5,708L386.5,708z"/>
<path class="st5" d="M387.2,707c0.6,0.3,1.3,0.5,2,0.8c-0.1,0.3-0.3,0.5-0.3,0.9c-0.8-0.3-1.5-0.6-2.3-0.9
	C386.9,707.6,387.1,707.4,387.2,707L387.2,707z"/>
<path class="st5" d="M617.5,707.8c0.5,0.1,0.6,0.4,0.5,0.9c-0.4,0-0.6,0-1.7,0C617,708.1,617.3,707.9,617.5,707.8L617.5,707.8z"/>
<path class="st5" d="M739.9,721.3c-0.3-0.3-0.4-0.5-0.5-0.8C739.7,720.7,740,720.9,739.9,721.3z"/>
<polygon class="st5" points="471.9,724.5 472.3,724.4 472.5,724.8 472.3,724.9 "/>
<polygon class="st5" points="327,463.6 327.3,463.8 326.9,464 "/>
<polygon class="st5" points="434,767.8 433.6,767.9 433.4,767.8 433.8,767.3 "/>
<path class="st5" d="M721.1,454.9L721.1,454.9L721.1,454.9z"/>
<path class="st5" d="M718.4,446.1v-0.1V446.1z"/>
<path class="st5" d="M500.7,298.9l-0.4,0.3l-0.4-0.3C500.2,298.9,500.4,298.9,500.7,298.9z"/>
<path class="st5" d="M474.1,300.2c-0.4,0.1-0.8,0.1-1,0.1C473.4,300,473.7,299.9,474.1,300.2z"/>
<path class="st4" d="M708.6,605.9c-0.3,0.5-0.4,1.2-0.6,1.7C708.3,606.9,708.4,606.4,708.6,605.9z"/>
<path class="st5" d="M630.8,322.2l-0.4,0.1l-0.3-0.3l0.4-0.1L630.8,322.2L630.8,322.2z"/>
<path class="st5" d="M527.7,98.5v25.9c-17.1,0-33.5,0-50,0c8.4,0,16.8,0,26,0c0-9.6,0-17.7,0-25.7C511.7,98.6,519.6,98.5,527.7,98.5
	L527.7,98.5z"/>
<path class="st3" d="M479.2,98.4c0.8,0,1.7,0,2.4,0c7.2,0,14.3,0,21.6,0l0.4,0.4v25.6c-9.1,0-17.5,0-26,0l-0.1-0.3
	c-0.1-8.2-0.1-16.4-0.3-24.6c0-0.3,0.1-0.5,0.4-0.8C478.3,98.6,478.7,98.5,479.2,98.4L479.2,98.4z"/>
<path class="st3" d="M527.7,98.5c-8.1,0.1-16,0.1-24.1,0.3l-0.4-0.4c0.3-9,0.6-17.8,0.9-26.7c0.5-0.1,1.2-0.3,1.7-0.5
	c6.9,0,13.9,0,20.9,0C527.1,80.2,527.3,89.3,527.7,98.5L527.7,98.5z"/>
<path class="st4" d="M504.1,71.5c-0.3,9-0.6,17.8-0.9,26.7c-7.2,0-14.3,0-21.6,0c6.5-0.5,12.9-1,20.6-1.7c0-8.4,0-16.9,0-25.3
	C502.9,71.4,503.5,71.5,504.1,71.5L504.1,71.5z"/>
<path class="st5" d="M477.4,99.5c0.1,8.2,0.1,16.4,0.3,24.4C477.5,115.9,477.4,107.7,477.4,99.5z"/>
<path class="st5" d="M526.7,71.1c-6.9,0-13.9,0-20.9,0C512.7,71.1,519.8,71.1,526.7,71.1z"/>
<path class="st4" d="M479.2,98.4c-0.5,0.1-0.9,0.4-1.4,0.5c0-0.5-0.1-1-0.1-1.7C478.2,97.6,478.7,98,479.2,98.4L479.2,98.4z"/>
<path class="st4" d="M478.9,70.6c-0.4,0.3-0.8,0.5-1.3,0.6C478.2,71,478.6,70.7,478.9,70.6z"/>
<path class="st3" d="M503.8,879.2h23.7c0,9.3,0,18.6,0,27.8c-7.9,0-15.7,0-24.1,0v24.6c-0.3,0.3-0.6,0.5-1,0.5
	c-8.4-0.6-17-1.3-25.6-1.9c0.1-8.3,0.3-16.8,0.4-25.1l0.3-0.3l0.4,0.1c8.3,0.6,16.8,1.2,26,1.8V879.2L503.8,879.2z"/>
<path class="st5" d="M503.5,931.6V907c8.2,0,16.1,0,24.1,0c0,7.8,0,15.6,0,24.6H503.5z"/>
<path class="st4" d="M477.8,905h24.3c0-9.2,0-17.5,0-25.9c0.6,0.1,1.2,0.1,1.8,0.3c0,8.6,0,17.3,0,27.5
	C494.5,906.1,486.1,905.5,477.8,905L477.8,905z"/>
<path class="st5" d="M476.9,930.2c8.4,0.6,17,1.3,25.6,1.9C493.9,931.5,485.3,930.8,476.9,930.2z"/>
<path class="st4" d="M825.5,301.2c2,0,4,0,6,0C829.4,301.2,827.5,301.2,825.5,301.2z"/>
<path class="st4" d="M764.7,171.6h25v25.2h-25V171.6z M766.1,195.4h22.1v-22h-22.1V195.4z"/>
<path class="st4" d="M788.8,797.1H766v25.5c-0.4-8.8-0.9-17.7-1.4-26.6l0,0C772.6,796.3,780.7,796.7,788.8,797.1L788.8,797.1z"/>
<path class="st4" d="M788.8,822.7c0.1-8.4,0.1-16.9,0.3-25.3C788.9,805.7,788.9,814.1,788.8,822.7z"/>
<path class="st5" d="M583.7,791.2c-0.6,0.1-1.2,0.3-1.8,0.3C582.6,791.5,583.1,791.3,583.7,791.2z"/>
<polygon class="st5" points="626,791.2 625.7,791.6 625.3,791.2 625.7,790.9 "/>
<polygon class="st5" points="713,791.2 712.6,791.6 712.4,791.2 712.6,790.9 "/>
<path class="st5" d="M343.3,791.2c-0.3,0-0.5,0-0.8,0C342.6,790.9,342.9,790.9,343.3,791.2z"/>
<path class="st5" d="M216.5,197c7.8,0,15.7,0,23.7,0.1c0.1,0.4,0,0.6-0.3,0.9c-7.6-0.1-15.1-0.1-22.8-0.3
	C216.7,197.7,216.5,197.4,216.5,197L216.5,197z"/>
<path class="st5" d="M608.1,100.8c0,0.6,0,1.2,0,1.8C608.1,101.9,608.1,101.3,608.1,100.8z"/>
<path class="st1" d="M225.7,511.2c0.3,1.2,0.6,2.3,0.9,3.3l-0.1,0.1l0.3,0.1c1.2,22.3-30.2,31.6-37.9,9.2
	C180.1,498.5,215.2,486.9,225.7,511.2h-0.3H225.7L225.7,511.2z"/>
<polygon class="st5" points="225.7,511.2 225.4,511.2 225.7,511.1 "/>
<polygon class="st5" points="226.7,514.8 226.4,514.8 226.7,514.5 227,514.7 "/>
<path class="st3" d="M456.5,386.8c0.4-0.1,0.6-0.3,1-0.4c9.9-2.4,19.8-4.9,29.7-7.2c5-0.3,9.9-0.6,14.7-0.9c0.5-7.9,1-15.9,1.5-23.8
	c77.9-3.1,152.8,69.2,153.4,148.4c1,100.1-65,163.3-168.3,161.2c-74-1.5-144.9-77.4-141.3-151.3c0-0.3,0-0.6,0-0.9
	c0.8,0,1.5,0,2.2,0c7.6,0,15,0,22.8,0c0.6-9.7,1.4-18.9,2-28.2c0.1-0.4,0.3-0.6,0.3-1.2c0.4-1.8,0.6-3.6,1-5.2
	c0.1-0.8,0.4-1.5,0.6-2.3c0.5-1.9,1.2-3.7,1.7-5.5c9.5-27.9,26-50.5,50-67.7c0.5-0.4,1-0.8,1.5-1.2c0.8-0.5,1.5-1,2.3-1.5
	c0.5-0.4,1-0.6,1.5-1c0.3-0.1,0.6-0.3,0.9-0.4c0.5-0.4,1-0.6,1.5-1l0,0c0.8-0.5,1.7-0.9,2.4-1.4l0,0c0.8-0.5,1.7-0.9,2.4-1.4l0,0
	c1.8-0.8,3.5-1.7,5.1-2.4l0,0c0.5-0.3,1-0.6,1.5-0.9c0.4-0.1,0.6-0.3,0.9-0.4c0.5-0.3,1.2-0.5,1.7-0.6c0.4-0.1,0.6-0.3,0.9-0.5
	c0.9-0.4,1.8-0.8,2.7-1.2c0.4,0,0.6-0.1,1-0.3C455.4,387.3,455.9,387.2,456.5,386.8L456.5,386.8z M401,497.8
	c-0.1,0.1-0.4,0.3-0.4,0.4c0,0.4,0.1,0.6,0.3,1c-0.4,4.6-0.6,9.3-1,14.1h-25.1c-5.2,40.1,28.9,93.5,72,113.8
	c53.6,25.1,113.5,12,155.1-33.8c33.5-37,39.2-102.4,12.5-147.9c-22.9-39.4-77.9-71.5-111.2-64.1v27c-5,0.4-10,0.8-15,1.2
	c-0.5,0.1-1,0.3-1.5,0.4c-0.8,0.1-1.5,0.3-2.4,0.4c-1,0.3-1.9,0.4-2.8,0.6c-41.5,8.2-73.3,40.1-79.6,79.5c-0.1,0.5-0.3,1.2-0.4,1.7
	C401.4,493.7,401.3,495.7,401,497.8L401,497.8z"/>
<path class="st4" d="M503.5,354.6c-0.5,7.9-1,15.9-1.5,23.9c0.3-8.2,0.4-16.4,0.6-24.6C503,353.9,503.2,354.2,503.5,354.6
	L503.5,354.6z"/>
<path class="st3" d="M469.5,690.6h-0.1H469.5z"/>
<path class="st4" d="M347.5,512c0,0.3,0,0.6,0,0.9c-0.5-0.3-1.2-0.5-1.7-0.8C346.4,512.1,347,512.1,347.5,512L347.5,512z"/>
<path class="st1" d="M817.4,516.4c-1.3,25.2-38.8,27.5-39.2,1.3C777.9,491.4,814.5,491.4,817.4,516.4z"/>
<path class="st4" d="M374.5,483.8c-0.6,9.2-1.4,18.6-2,28.2c-7.7,0-15.2,0-22.8,0c6.9,0,13.8,0,20.3,0
	C371.7,501.7,373.1,492.8,374.5,483.8z"/>
<path class="st4" d="M487.3,379.3c-9.9,2.4-19.8,4.9-29.7,7.2C466.5,380.4,476.5,378.6,487.3,379.3z"/>
<path class="st4" d="M378.1,469.6c-0.5,1.9-1.2,3.7-1.7,5.5C376.9,473.3,377.5,471.4,378.1,469.6z"/>
<path class="st4" d="M445.9,391.7c-1.8,0.8-3.5,1.7-5.1,2.4C442.6,393.3,444.3,392.4,445.9,391.7z"/>
<path class="st4" d="M375.8,477.4c-0.4,1.8-0.6,3.6-1,5.2C375.1,481,375.4,479.2,375.8,477.4z"/>
<path class="st4" d="M453.7,388c-0.9,0.4-1.8,0.8-2.7,1.2C451.9,388.7,452.8,388.3,453.7,388z"/>
<path class="st4" d="M440.8,394.1c-0.8,0.5-1.7,0.9-2.4,1.4C439.1,395,440,394.6,440.8,394.1z"/>
<path class="st4" d="M438.2,395.5c-0.8,0.5-1.7,0.9-2.4,1.4C436.7,396.4,437.5,396,438.2,395.5z"/>
<path class="st4" d="M435.8,396.9c-0.5,0.4-1,0.6-1.5,1C434.8,397.6,435.3,397.2,435.8,396.9z"/>
<path class="st4" d="M429.5,400.8c-0.5,0.4-1,0.8-1.5,1.2C428.5,401.5,429,401.1,429.5,400.8z"/>
<path class="st4" d="M447.6,390.6c-0.5,0.3-1,0.6-1.5,0.9C446.6,391.3,447.1,391,447.6,390.6z"/>
<path class="st4" d="M450.1,389.6c-0.5,0.3-1.2,0.5-1.7,0.6C449,390.1,449.6,389.9,450.1,389.6z"/>
<path class="st4" d="M456.5,386.8c-0.5,0.3-1.2,0.5-1.7,0.8C455.4,387.3,455.9,387.1,456.5,386.8z"/>
<path class="st4" d="M433.4,398.3c-0.5,0.4-1,0.6-1.5,1C432.4,399,432.9,398.6,433.4,398.3z"/>
<path class="st1" d="M402,490c6.3-39.4,38.1-71.3,79.6-79.5c1-0.3,1.9-0.4,2.8-0.6c0.8-0.1,1.5-0.3,2.4-0.4c0.5-0.1,1-0.3,1.5-0.4
	c5-0.4,10-0.8,15-1.2c55.9,4.2,96.5,41.3,99.8,91.2c3.7,55.7-26.7,97.9-78.7,109.4c-59.1,13.1-100.3-18.7-124.6-95.6
	c0.4-4.6,0.6-9.3,1-14.1c0-0.5,0.1-0.9,0.1-1.4c0.3-2,0.4-4.1,0.6-6.1C401.8,491,401.9,490.5,402,490L402,490z M503.2,473.2
	l-0.6-5.1c-6.5-24.8-31.4-36.7-53.2-25.5c-0.5,0.3-0.9,0.5-1.4,0.8c-5.4,6.4-10.7,12.7-16.1,19.1l-0.4,0.1l0.1,0.4
	c-0.9,3.7-1.8,7.4-2.8,11h-0.4l0.4,0.1c0.4,24.7,13.7,38.6,37.6,39.3c22.3,0.6,34.2-13.4,37-35.1l0.3-0.4l-0.3-0.5
	C503.4,476,503.4,474.6,503.2,473.2L503.2,473.2z"/>
<path class="st5" d="M399.8,513.1c24.2,76.9,65.5,108.6,124.6,95.6c52-11.5,82.4-53.7,78.7-109.4c-3.3-49.9-43.8-87-99.8-91.2
	c0-9.1,0-18.2,0-27c33.3-7.4,88.3,24.7,111.2,64.1c26.6,45.7,21,111.1-12.5,147.9c-41.7,45.8-101.6,58.9-155.1,33.8
	c-43-20.2-77.3-73.6-72-113.8H399.8L399.8,513.1z"/>
<path class="st5" d="M484.4,409.7c-1,0.3-1.9,0.4-2.8,0.6C482.5,410.2,483.5,410,484.4,409.7z"/>
<path class="st5" d="M401,497.8c0,0.5-0.1,0.9-0.1,1.4c-0.1-0.4-0.3-0.6-0.3-1C400.6,498,400.9,497.9,401,497.8L401,497.8z"/>
<path class="st5" d="M402,490c-0.1,0.5-0.3,1.2-0.4,1.7C401.8,491,401.9,490.5,402,490z"/>
<path class="st5" d="M488.4,409.1c-0.5,0.1-1,0.3-1.5,0.4C487.4,409.3,487.9,409.2,488.4,409.1z"/>
<path class="st4" d="M503.2,473.2c-0.1-1.8-0.4-3.5-0.6-5.1C502.9,469.7,503.1,471.4,503.2,473.2z"/>
<path class="st4" d="M503.4,478.3c-0.1-0.3-0.3-0.5-0.3-0.6c0,0,0.3-0.1,0.4-0.1l0.3,0.5L503.4,478.3L503.4,478.3z"/>
<polygon class="st5" points="428.8,474 428.8,474.1 428.5,474.1 "/>
<polygon class="st4" points="431.8,462.4 432,462.8 431.6,463 431.5,462.6 "/>
<path class="st4" d="M449.4,442.6c-0.5,0.3-0.9,0.5-1.4,0.8C448.5,443.1,449,442.9,449.4,442.6z"/>
</svg>
