<?xml version="1.0" encoding="utf-8"?>
<!-- Generator: Adobe Illustrator 27.6.1, SVG Export Plug-In . SVG Version: 6.00 Build 0)  -->
<svg version="1.1" id="b" xmlns="http://www.w3.org/2000/svg" xmlns:xlink="http://www.w3.org/1999/xlink" x="0px" y="0px"
	 viewBox="0 0 1000 1002.7" style="enable-background:new 0 0 1000 1002.7;" xml:space="preserve">
<style type="text/css">
	.st0{fill:#F7F6E6;}
	.st1{fill:#032316;}
	.st2{fill:#1A523D;}
	.st3{fill:#DDD9AB;}
</style>
<path class="st0" d="M849.8,1002.7H150.1C67.2,1002.7,0,935.5,0,852.5V152.9C0,69.9,67.2,2.7,150.1,2.7h699.7
	c82.9,0,150.2,67.2,150.2,150.2v699.7C1000,935.5,932.8,1002.7,849.8,1002.7z"/>
<path class="st1" d="M953.9,309.2c0.8,1.9,1.6,3.8,2.4,5.6v-0.1c46.5,123.6,33.9,257-41.2,366.6c-27.6,40.2-62.9,74.8-104.9,99.8
	c-49.7,29.5-99.5,36.8-155.1,47.3c0,48.4,5.7,101.2-2,149v-0.1c-16.5,39.3-61.8-10.2-78.4-23.6c-29.5-23.5-59.1-47.1-88.5-70.7
	c-24.9-20.1-51.7-51.6-85-56.2c-36.7-5.1-72.9,1-110.1-7.2C160.3,790.9,70.9,686.6,30.4,564.1v0.1c-15.3-58.3-18.6-117.1-6.9-176.4
	v0.1c0.8-3.4,1.6-6.7,2.4-10.1l0,0c1.5-6.4,2.9-12.8,4.4-19.2v0.1c0.7-2.4,1.5-4.7,2.1-7.2l0.2-0.1l-0.1-0.1
	c0.8-2.4,1.7-4.8,2.5-7.2l0,0c1.5-4.5,3-9,4.5-13.4l0,0c29.3-83.5,80.4-150.1,154-199.3c13.9-9.3,28.8-17.3,43.1-25.9
	c0.3-0.1,0.7-0.2,0.9-0.3c1.9-1,3.8-2,5.8-3.1l0.2,0.1v-0.2c0.6-0.3,1.1-0.7,1.7-1c2.1-1,4.3-1.9,6.5-2.9
	c16.4-7.5,33.1-14.2,50.4-19.1l-0.1,0.1l0.2-0.1c19.4-7.2,39.5-11.2,59.9-14.9c0.3-0.1,0.7-0.1,1-0.2c2.2-0.3,4.6-0.8,6.9-1.1
	c0.4,0,0.9,0,1.3,0c91.9-2.7,183.7-6.1,275.4,2.4c0.2,0,0.6,0,0.8,0c7.5,1.6,14.9,3.3,22.5,4.8c0.3,0,0.8,0.1,1.1,0.1
	c2.6,0.7,5.3,1.5,7.9,2.1c0.3,0,0.8,0.1,1.1,0.1c4.9,1.3,9.9,2.8,14.9,4.2c1,1.6,2.4,2,4,1.2c4.9,1.8,10,3.6,14.9,5.4h0.1
	c4.4,1.6,8.9,3.1,13.3,4.7c0.3,0.1,0.6,0.1,0.9,0.2c4.3,1.7,8.4,3.4,12.7,5.1l0,0c3,1.5,6.2,3,9.2,4.5l0,0
	c5.1,2.5,10.1,4.8,15.3,7.3c0.1,0.1,0.2,0.2,0.3,0.2C852.8,150.8,916.1,218.4,953.9,309.2L953.9,309.2L953.9,309.2z M735.7,141.2
	c-0.4-0.2-0.8-0.6-1.2-0.9c-0.6-0.2-1-0.3-1.6-0.6c-55.6-25.2-110.9-33.7-171.4-33.1c-62.2,0.6-132.1-9-193.3,3.1h0.1
	c-13.1,2.9-26.3,6-39.4,8.9h0.1c-9.4,3-18.9,6.1-28.3,9.1l0.1-0.1c-3.8,1.5-7.5,3-11.3,4.5h0.1c-3.9,1.3-7.9,2.7-11.7,4l0.3-0.3
	l-0.4,0.3c-6.3,3.3-12.6,6.5-18.9,9.8l0.1-0.1l-3.9,2v-0.1c-34.6,17.7-65.4,40.8-92.1,68.9C112.1,269.9,80.3,333,67.7,405.6v0.1
	c-5.6,35.5-6.3,71.1-1.1,106.8l0,0c4.8,28.3,12.4,55.8,24.4,82c41.2,89.9,106.5,152.3,203.2,179.1c1.2,0.3,2.5,0.6,3.6,0.9
	c51.1,9.9,114.8-10.9,156.4,22.6c50.4,40.7,100.8,81.3,151.2,122c0.7,0.6,1.3,1.1,2,1.6c7.2-34.9-20.2-126.8,17.1-140.5
	c21.2-7.9,54.6-0.4,78.4-5.2c28.4-5.6,55.7-16.3,80.2-31.9h-0.2c64.7-40.6,109.4-97.2,135-168.8v0.1c0.8-1.9,1.6-3.7,2.2-5.6v-0.1
	c17.3-52.9,23.1-106.8,13.3-161.9l0,0c-2.7-18.8-7.6-37.1-13.4-55.2v-0.1c-1.6-4.5-3-8.9-4.6-13.4v-0.1c-1.5-3.7-2.9-7.4-4.4-11.2
	v-0.1c-35.4-83.4-93.9-145.3-175.6-185.2L735.7,141.2L735.7,141.2z"/>
<path class="st2" d="M252,97.9c-2.1,1-4.3,1.9-6.5,2.9C247.6,99.9,249.8,98.9,252,97.9z"/>
<path class="st3" d="M699.4,77.5c-1.7,0.8-3,0.4-4-1.2C696.7,76.7,698,77.1,699.4,77.5z"/>
<path class="st2" d="M371.5,62.5c-0.4,0-0.9,0-1.3,0C370.7,62.5,371.1,62.5,371.5,62.5z"/>
<path class="st2" d="M363.4,63.7c-0.3,0.1-0.7,0.1-1,0.2C362.7,63.8,363.1,63.7,363.4,63.7z"/>
<path class="st2" d="M647.8,64.8c-0.2,0-0.6,0-0.8,0C647.3,64.8,647.5,64.8,647.8,64.8z"/>
<path class="st3" d="M671.4,69.8c-0.3,0-0.8-0.1-1.1-0.1C670.7,69.8,671.1,69.8,671.4,69.8z"/>
<path class="st3" d="M680.4,72.1c-0.3-0.1-0.8-0.1-1.1-0.1C679.6,72,680.1,72.1,680.4,72.1z"/>
<path class="st2" d="M237.7,104.9c-0.3,0.1-0.7,0.2-0.9,0.3C237,105.2,237.3,105.1,237.7,104.9z"/>
<path class="st3" d="M728.7,87.9c-0.3-0.1-0.7-0.1-0.9-0.2C728,87.6,728.4,87.8,728.7,87.9z"/>
<polygon class="st2" points="32.6,351.3 32.7,351.4 32.6,351.5 32.3,351.4 "/>
<polygon class="st2" points="243.8,101.8 243.8,102 243.5,101.9 "/>
<path class="st3" d="M766,104.8c-0.1-0.1-0.2-0.2-0.3-0.2l0.2-0.1L766,104.8L766,104.8z"/>
<polygon class="st3" points="26,377.8 26,377.7 25.8,377.7 "/>
<path class="st3" d="M652.9,977.2L652.9,977.2L652.9,977.2z"/>
<polygon class="st2" points="30.4,564.2 30.4,564.1 30.2,564.2 "/>
<path class="st3" d="M953.9,309.2C953.9,309.2,953.9,309.3,953.9,309.2L953.9,309.2z"/>
<path class="st2" d="M956.2,314.8L956.2,314.8L956.2,314.8z"/>
<path class="st3" d="M39.5,330.6L39.5,330.6L39.5,330.6z"/>
<path class="st3" d="M750.5,97.3L750.5,97.3L750.5,97.3z"/>
<path class="st2" d="M741.3,92.8L741.3,92.8L741.3,92.8z"/>
<polygon class="st3" points="714.4,82.9 714.3,82.9 714.4,82.7 "/>
<polygon class="st3" points="302.5,78.9 302.3,79 302.4,78.8 "/>
<path class="st3" d="M35,344.1L35,344.1L35,344.1z"/>
<polygon class="st2" points="23.7,387.9 23.7,387.8 23.3,387.8 "/>
<polygon class="st2" points="30.4,358.7 30.4,358.5 30.1,358.6 "/>
<path class="st2" d="M294.2,773.6c1.2,0.3,2.5,0.6,3.7,0.9C296.7,774.1,295.4,773.8,294.2,773.6z"/>
<path class="st3" d="M605.4,919c0.7,0.6,1.3,1.1,2,1.6C606.7,920.2,606,919.6,605.4,919z"/>
<path class="st3" d="M734.4,140.4c-0.6-0.2-1-0.4-1.6-0.6C733.4,140,734,140.2,734.4,140.4z"/>
<path class="st2" d="M254.9,147.9L254.9,147.9L254.9,147.9z"/>
<path class="st3" d="M258.7,145.9l0.1-0.1L258.7,145.9z"/>
<path class="st3" d="M735.4,141.3h0.2H735.4z"/>
<polygon class="st3" points="277.7,136.3 277.6,136.2 278,135.8 "/>
<polygon class="st2" points="289.2,132.2 289.5,132.6 289.4,132.1 "/>
<path class="st3" d="M300.5,127.7l0.1-0.1L300.5,127.7z"/>
<polygon class="st2" points="328.7,118.8 328.8,119.1 328.8,118.8 "/>
<path class="st3" d="M920.2,568.8L920.2,568.8L920.2,568.8z"/>
<polygon class="st2" points="917.9,574.3 917.7,574.3 917.9,574.4 "/>
<polygon class="st2" points="368,109.9 368.1,110.1 368.1,109.8 "/>
<path class="st3" d="M911.1,327L911.1,327L911.1,327z"/>
<path class="st2" d="M933.5,406.8L933.5,406.8L933.5,406.8z"/>
<path class="st3" d="M67.6,405.7L67.6,405.7L67.6,405.7z"/>
<polygon class="st3" points="915.5,338.3 915.4,338.3 915.5,338.2 "/>
<path class="st3" d="M920.1,351.7L920.1,351.7L920.1,351.7z"/>
<path class="st3" d="M783,743.1l-0.2,0.1L783,743.1z"/>
<path class="st2" d="M897.1,512.2c-1.8,9.7-3.1,17.5-4.7,25.8h-19.1c0,22.9,6.5,55.3-16.6,69.6c-19.7,12.2-43.8,2.5-51.4-18.2
	c-6.9-18.6-5.1-57.4,11.5-70.2C836.2,504.1,874.1,512,897.1,512.2L897.1,512.2z M848.7,563c0-31.8-20.6-30.8-20.4-0.4
	C828.3,591.1,848.7,594.6,848.7,563z"/>
<path class="st2" d="M636.1,685.8c-1.6-24.7,9.9-52.2,39.4-49.4c30.7,2.9,33.1,35.7,31.6,59.3c-1.6,24.6-14,51.6-44.7,44
	C636.5,733.2,636.1,707.5,636.1,685.8L636.1,685.8z M682.1,689.1L682.1,689.1c0.1-31.2-20.2-33-20.4,0
	C661.5,721.7,682.1,720.1,682.1,689.1z"/>
<path class="st2" d="M636.3,434.3c-3.4-64.1,72-61.2,71.4,3.3c-0.2,26.3-8.8,54-41,49.9C637,483.5,636.3,458.5,636.3,434.3z
	 M682.2,437C682.2,437,682.3,437,682.2,437c0.1-33.1-20.2-28.6-20.7,0.1C661.2,467.9,682.2,467.6,682.2,437z"/>
<path class="st3" d="M293.7,688.9c0.2-24.8,5.3-55.8,38.8-52.3c25.8,2.7,30.9,25.4,31.5,47.1c0.6,24-1.6,53.4-31.5,56.6
	C299.6,743.8,293.9,713.7,293.7,688.9L293.7,688.9z M338.6,689.5h-0.1c0-31.5-20.1-33.9-20-0.4C318.5,721.4,338.6,720.4,338.6,689.5
	L338.6,689.5z"/>
<path class="st1" d="M619.4,665.3c0.1,21.6,6.2,53.4-13.4,68.4c-19,14.6-45.2,5.1-54.4-15.8v0.1c-4.6-23.3-9.2-62.3,14.6-76.6
	C587.5,628.8,615,641,619.4,665.3L619.4,665.3L619.4,665.3z M576.6,667.3l0.1-0.2c-2.5,13.4,0.6,70.9,18.8,38.8
	C600.6,696.6,591.2,644.2,576.6,667.3L576.6,667.3z"/>
<path class="st2" d="M874.1,440.6c0.7,25.7-10.8,51.8-41.8,46.7c-29.3-4.7-28.9-32.6-28.1-56.6c0.7-21.9,7-44.7,33.4-45.5
	C870.9,384.2,874.1,415.8,874.1,440.6z M848.7,437.3L848.7,437.3c-0.1-24.9-17.3-35.4-20.3-6.2C825.2,461.9,848.7,473.7,848.7,437.3
	z"/>
<path class="st1" d="M363.1,436.3c0,25.7-4.7,55.9-38.8,51.9c-29.9-3.5-31.6-31.5-30.9-55.6c0.8-24.5,8.3-50.7,38.9-47.1
	c28,3.3,31,27.9,31,50.7C363.2,436.3,363.2,436.3,363.1,436.3L363.1,436.3z M338.6,438L338.6,438c0-25.9-17.7-35.5-20.1-5.7
	C316,462.7,338.6,474.6,338.6,438z"/>
<path class="st1" d="M482.7,640.2c54.8-26.2,70.1,75.8,33.1,96c-55.3,30.3-72.9-74.7-33.5-95.9C482.5,640.3,482.6,640.3,482.7,640.2
	z M497.6,662.7c-13.9,2.7-15.6,53.9,1,52.5c16-1.3,16.1-52.1-0.8-52.3L497.6,662.7L497.6,662.7L497.6,662.7z"/>
<path class="st1" d="M511.9,235.5c-37.5,13.1-48.6-21.3-48.4-50.7c0.1-14.6-1-29,10.3-40.1c10-9.8,36.8-15.5,45.4-1.7l0.2-0.2
	l-0.1,0.4c29.7,9.9,18.5,82.5-7.5,92.2H511.9L511.9,235.5z M499.5,161.2c-13.9,0.6-17.9,43-8.4,48.9c23.9,14.6,16.9-31.5,16.6-42.8
	l0,0c-1.2-3.3-4.2-4.6-7.1-5.8C500.3,161.4,500,161.3,499.5,161.2L499.5,161.2z"/>
<path class="st2" d="M636,311c0-26.7,12.6-61.7,47.6-49c22.8,8.3,23.6,33.3,23,53.8c-0.6,23-7.3,44.6-34.3,45.4
	C641.2,362.2,636,335.8,636,311L636,311z M682.2,311.4c0.1,0,0.1,0,0.2,0c0-25.1-16.7-33.8-20.7-6.7
	C657.3,335.1,682.2,348.5,682.2,311.4L682.2,311.4z"/>
<path class="st1" d="M615.1,153.2c1.1,2.6,2.2,5.3,3.4,7.9c-0.1-0.1-0.2-0.1-0.2-0.2c0.1,0.1,0.2,0.2,0.2,0.3
	c1.8,23,8.1,58.3-15.7,72.3c-17.9,10.4-41.3,2.5-50.1-15.6c-7.8-16.1-7.8-55.3,3.3-69.2C570.3,130.4,605,129.7,615.1,153.2
	L615.1,153.2L615.1,153.2L615.1,153.2z M582.6,161.4h0.1c-13.7,3.3-14.3,56.6,6.4,49.8C600.5,207.4,602.2,158.3,582.6,161.4z"/>
<path class="st1" d="M697.4,523.6c18.6,18.5,15.8,77.5-12.1,86.9c-1.2,0.4-2.4,0.8-3.6,1.2c-69.8,20.4-58.4-128.1,4.5-96.8
	c0.4,0.2,0.9,0.4,1.3,0.6c0.4,0.2,0.9,0.6,1.3,0.8c1.3,0.9,2.6,1.8,3.9,2.7c0.4,0.4,1,0.8,1.5,1.1
	C695.1,521.4,696.2,522.5,697.4,523.6L697.4,523.6z M661.5,563L661.5,563c-0.1,29.3,20.2,31.7,20.3,0.3
	C682.1,531.7,661.5,532.8,661.5,563L661.5,563z"/>
<path class="st1" d="M323.3,613.2c-4.5-1.5-8.9-3-13.4-4.5l0.1,0.2c-26.6-17.3-25.3-82.1,5.4-94.7h0.1c24.5-9,48.2,7.2,47.6,33.3
	c-0.3,15.6,3.6,31.7-3.4,47l0,0C353.3,607.9,339.9,614.8,323.3,613.2L323.3,613.2L323.3,613.2z M324,587L324,587
	c22.5,6.2,20.1-46.5,7-48.3C311.8,536.1,312.1,580.6,324,587z"/>
<path class="st1" d="M464.3,463c-0.2-28.5-8.1-80.7,36.7-77.4c37.5,2.7,37.6,52.2,30.8,79.5l0,0c-6,15.8-18.1,23.8-35.4,23.4
	C481,487.9,469.1,478.6,464.3,463L464.3,463L464.3,463z M488.4,437.3h-0.1c0,30.3,20.6,31.7,20.3-0.2
	C508.4,405.4,488.4,407.1,488.4,437.3L488.4,437.3z"/>
<path class="st1" d="M569.1,389.2c50.2-25.2,67.3,61.2,41.8,88.3c-14,14.8-40.9,14.5-53.8-1.5c-13.3-16.3-10.6-54.7-3.4-72.8
	c0.3-0.3,0.7-0.7,1-1c-0.2,0-0.3,0-0.6,0c0.7-0.8,1.3-1.6,2-2.5l0,0c0.4-0.6,0.9-1.1,1.3-1.8c1-1,2-2,2.9-3c0.4-0.3,1-0.7,1.5-1
	v-0.1c0.4-0.4,1-1,1.5-1.5C565.3,391.4,567.2,390.3,569.1,389.2L569.1,389.2z M595.5,437.2L595.5,437.2
	c-0.1-25.7-14.7-33.7-20.2-6.3C569,462.3,595.5,475.4,595.5,437.2z"/>
<path class="st1" d="M484.9,514.1c26.6-8.6,48.3,7,48.1,35c-0.1,13.6,1.6,27.2-1.3,40.7l0,0c-4.7,14.2-14.8,21.9-29.3,23.3
	c-15.5,1.5-27.7-4.6-35.5-18.5c0.1-0.1,0.2-0.3,0.1-0.3c-0.1-0.2-0.3-0.3-0.6-0.6c-4.6-22.5-7.2-44.9,2.8-66.6
	C472.1,520.6,478.5,517,484.9,514.1L484.9,514.1L484.9,514.1z M488.5,562.5c0,26.2,16.3,34.7,20.1,6.7
	C512.8,539,488.5,524.6,488.5,562.5z"/>
<path class="st1" d="M490.7,361.4c-2.2-0.7-4.5-1.3-6.6-2l0,0c-39-17.2-28.3-107.6,23.3-98.2c0.4,0.1,0.9,0.1,1.3,0.2
	c16.5,6.5,24.7,18.1,24.4,35.8c-0.2,13.4,1.5,26.8-1.1,40.1l-0.2,0.1l0.1,0.1c-6.1,18-19.5,25.9-40.2,23.9
	C491.2,361.5,491,361.5,490.7,361.4L490.7,361.4z M503.6,287.6l-0.2,0.1L503.6,287.6c-18.5-2.1-23.9,39.5-12.5,47
	C514.1,349.3,514.3,296.1,503.6,287.6L503.6,287.6z"/>
<path class="st2" d="M435.7,208.2c35,6.3,11.1,28.3-11.9,28.2c-36.3-0.1-40.9-20-40.3-51.1c0.3-20.9,5.2-56.6,36.3-50
	C447.4,141.2,435.7,186,435.7,208.2L435.7,208.2z M413.3,164.4c-1.3-0.1-2.7-0.2-4-0.3c0,4.3-3,46.2,4,44.5
	C413.3,208.4,413.3,164.4,413.3,164.4z"/>
<path class="st2" d="M886.2,360.2c-28.8,0-70.3,10.6-80.9-24.3c-6.9-22.6-6.6-71.8,25.7-74.8C854.3,290.4,873.6,322.2,886.2,360.2z
	 M848.3,311.6L848.3,311.6c-0.1-31.1-20-29.8-20-0.2C828.3,339.7,848.3,342.9,848.3,311.6z"/>
<path class="st3" d="M706.7,187.7c0,58.4-66.4,67.2-70.7,6.7c-2.2-31.7,2.5-50.9,36.2-42.4C696.9,158.4,706.8,161.7,706.7,187.7
	L706.7,187.7z M681.7,187.4C681.7,187.4,681.6,187.4,681.7,187.4c-0.1-38.3-27.2-23.1-20.2,7.6C667.8,223.2,681.7,210.1,681.7,187.4
	L681.7,187.4z"/>
<path class="st3" d="M186.3,583.7c11.3-0.2,20.4,10.6,13.5,21.3c-6.6,10.3-40.3,7.1-48.8,5.5c-8.8-1.7-27.2-6.2-20.4-20.8
	c4.4-9.4,23.5-5.7,32-5.7v-39.3c-34.9,29.9-31.9-25.6,1.7-32.2C198.7,505.9,186.3,562.4,186.3,583.7L186.3,583.7z"/>
<path class="st3" d="M268.9,458.8c10.9,1.1,22.8,6,17.7,19.3c-5.1,13.5-32,8.3-42.1,8.1c-36.5-0.8-33.4-26.6,1-26.6v-42.1
	c-28.1,24.9-37.7-5.7-9.8-23.9C279.9,364.8,268.9,433,268.9,458.8L268.9,458.8z"/>
<path class="st3" d="M246.3,716.3v-48.2c-9.9,4.9-30,20.2-29.5-4.4H177c-5.8-6.9-11.3-13.4-17-19.9c7.1-14.9,100-12.5,108.6,2.1
	c5.7,9.7,2.4,49.4,0.3,60.5C265.5,726.3,264.2,723.7,246.3,716.3L246.3,716.3z"/>
<path class="st3" d="M162.5,417.9c-33.3,30.9-33-20.9-0.2-30.6c36.4-10.7,24,50.1,24,71.6c12.5,0.6,21.5,10.1,13.6,22.4
	c-5.8,9.2-30.2,5.1-38.8,4.7c-32.9-1.3-31.5-26.8,1.5-26.8L162.5,417.9L162.5,417.9z"/>
<path class="st1" d="M730.7,555.5c-7.5-2.8-10.2-8.2-8.3-16l0,0c7.3-12.9,19-21.1,31.7-27.9l0.4,0.1l0.4-0.2c2.5,0,4.8,0,7.3,0l0,0
	c8.3,1.2,12.2,6.3,12.2,14.6c0.1,19,0.2,38,0.3,57h-0.1c9.4,0.9,20.4,3.1,19.1,15.3c-1.6,15.7-20.1,12.2-31.1,12.4
	c-11.9,0.1-30.4,4.2-34.6-10.1c-4.6-15.8,11.8-16.6,22.7-16.6v-39.7c-6.9,3.7-10.2,12.1-19.1,11.2
	C731.5,555.5,731.1,555.5,730.7,555.5L730.7,555.5z"/>
<path class="st1" d="M735.2,358.7c-23.5-11.6,3.7-25.2,16-25.5v-40.6c-31.5,28.3-35.3-12.8-6.1-26.8c41.5-20,29.7,41.7,29.7,66.5
	c11.9,2.5,22.4,8.9,14.6,21.8c-7.2,12-41.7,5.2-52.9,4.9C736,358.9,735.7,358.8,735.2,358.7L735.2,358.7z"/>
<path class="st3" d="M245.4,294.3c-37.7,29.3-32-24-0.1-32.5c36.2-9.5,23.6,49.1,23.6,71c11.3,1,26.4,7.2,16.9,21.7
	c-6.1,9.2-24.7,5.6-33.6,5.4c-10.7-0.3-26.1,2.5-26.6-12.8c-0.4-12.6,10.1-13.8,19.8-13.8L245.4,294.3L245.4,294.3z"/>
<path class="st2" d="M752.2,418.8c-35.3,30.2-31.6-27.4,2.1-32.7c33.3-5.2,20.8,51.6,20.8,72.1c11.6,2.4,27.6,11.8,13.3,24.8
	c-7,6.4-30.3,3.9-39.1,2.8c-27.2-3.5-24.9-26.7,2.8-26.7L752.2,418.8L752.2,418.8z"/>
<path class="st1" d="M455.3,593.4c3.4,22.8-27.7,20.1-42.7,17.4c-8.8-1.6-16.1,0.8-19.3-9.5c-3.1-10.2,4.2-18.1,14.6-17.1
	c0.9,0,1.8,0,2.8,0c4-9.9,3.7-29.9-0.7-40.2c-6.3,9.3-22.9,20.2-27,0.9c-2.1-10.6,21.3-29.9,30-31.7c34.9-7.3,22.7,49.5,22.7,70.9
	C444.5,583,451.9,584.5,455.3,593.4L455.3,593.4L455.3,593.4z"/>
<path class="st3" d="M268.8,583.4c32.2,2.8,18.9,26.7-6.2,27.7c-10,0.3-30.4,3.3-36.6-7.2c-8.5-14.6,9.7-19.8,19.2-20.2v-39.9
	c-35,31.3-33.7-20.6-0.6-30.1C280.9,503.2,268.8,561.7,268.8,583.4L268.8,583.4z"/>
<path class="st3" d="M412,293.7c-32.5,30.7-33-21-0.3-31.5c36.4-11.6,24,49.4,24,70.9c11.2-0.3,20.4,4,18.3,17
	c-2.4,14-30.4,11.7-39.8,10.1c-20.4-3.6-28.9-28.1-2.2-27.2V293.7L412,293.7z"/>
<path class="st2" d="M752.7,719.4v-55c-28.6,24.7-40.2-10-7.5-24c14.8-6.4,83-10.6,93.9,2.8c-12.9,32-41.3,16.4-63.5,21.1v36.6
	c1.7-0.4,3.1-0.9,8.9-2.5C772.3,706.6,763.5,712.3,752.7,719.4z"/>
<path class="st2" d="M580.5,583.7v-37.2c-9.4-0.2-13,14.5-24.5,5.1c-14.2-11.8,11.7-32,20.8-35.9c38.3-17,26.5,46.1,26.5,67.9
	c9.1,0.6,18.9,2.4,19,13.6c0.2,16.6-20.6,13.8-31.6,13.8c-10.8,0-28.1,2.8-30.7-11C557.6,585.7,569.3,583.7,580.5,583.7L580.5,583.7
	z"/>
<path class="st2" d="M580.6,292.9c-28.8,25.8-37.5-11.5-5.6-27.5c39.8-20,28.2,44.5,28.2,67.2c10.3,1.5,22.7,3.9,18.9,18.3
	c-3.6,13.4-26.4,9-36.1,8.6c-27.6-0.9-36.7-26.4-5.4-26.4L580.6,292.9L580.6,292.9z"/>
<path class="st3" d="M171.6,259.9c25.3,3.8,14.7,55.7,14.7,72.8c22.8,1.1,14.2,21.2,0.2,26.7c-17.2,6.9-52.1,0.2-70.3,0.2
	c2.9-9.9,6.7-18.1,11.9-26.3h34.4v-40.2c-7.2,2.5-10.1,12.8-21,10.3C151.7,288.7,161.6,274.3,171.6,259.9L171.6,259.9z"/>
<path class="st3" d="M327.6,333.1v-41.3c-29.9,26.8-40.3-8.1-7.8-25.8c42-22.8,30.9,42.5,30.9,66.7c25.8-0.1,18.1,23.9-2.4,27.1
	c-7.4,1.1-29.2,3.5-34.4-4.2C305.3,343.1,314.6,333,327.6,333.1L327.6,333.1z"/>
<path class="st2" d="M412.5,711.6V667c-31.2,28.6-34.3-20.2,0.6-28c34.9-7.8,22.2,48.1,22.2,70.9c22.7,11.1,7.4,31.6-12.9,30.1
	C406.8,739,388.8,719.6,412.5,711.6L412.5,711.6z"/>
<path class="st1" d="M351.7,208.2c12.1,0.3,21.7,10.6,13.6,22.5c-4.7,7-18,4.6-24.5,4.7c-6.2,0.1-21.5,2.2-26.2-4.4
	c-9.2-12.8,1.3-22.5,14.2-21.8v-55.9C362.3,137.4,351.7,188.6,351.7,208.2L351.7,208.2z"/>
<path class="st1" d="M401.6,426.7c-12.1,10.2-19.1-6.9-16.5-15.8c2.4-8,20.8-20.8,28.8-22.8c34.7-8.8,21.9,50,22,71.1
	c-8,0-16-0.1-23.9-0.1v-40.6C408.1,421.5,404.8,424.1,401.6,426.7L401.6,426.7L401.6,426.7z"/>
<path class="st2" d="M195.9,234.9c17.2-12.6,27.3-31.8,51.1-25.4v-19c7.3-3.7,14.3-7.4,22.4-11.5v29c17.1,3.8,27,16.5,8.6,26.8
	C262.8,243.5,213.9,234.9,195.9,234.9L195.9,234.9z"/>
<path class="st1" d="M752.6,210v-20.8c7.5,5.1,14.3,9.5,21.1,14.2c0.2,1.8,0.6,3.6,0.8,5.3c10.4,2.9,27.1,12.6,15.4,24.9
	c-6.7,7.1-44.6,2-53.5,1.8c-11.2-0.3-32.6,1-27.2-17C713.3,204.6,742.3,210,752.6,210L752.6,210z"/>
<path class="st3" d="M412,459c8,0,16,0.1,23.9,0.1c9.8-0.3,17.7,3,18,14c0.2,16.7-22.4,12.9-32.4,12.9c-10.9-0.1-29.3,3.5-30.1-12.7
	C390.6,460.3,402.5,459.3,412,459L412,459z"/>
<path class="st1" d="M107.4,396.3c7.4,1.3,12.2,6.6,12.6,13.1c1.1,20,2.8,40.1-0.4,60.1l0,0c-0.4,1.1-0.9,2.2-1.2,3.3l0,0
	c-0.4,0.7-0.8,1.5-1.2,2.1l0,0c-3.7,5.8-8.5,10.1-16.6,10.7c-1.5-30.3-1.5-60,6-89.2l0.4,0.1L107.4,396.3L107.4,396.3z"/>
<path class="st2" d="M900.2,484.8c-22.6-9.1-14.3-68.3-7-86C901.6,427,902.6,455.5,900.2,484.8z"/>
<path class="st1" d="M105.4,512.3c17.2,2.5,24.3,27.4,4.2,31.8c-1.5-10.8-2.9-21.2-4.3-31.8H105.4L105.4,512.3z"/>
<path class="st3" d="M569.1,389.2c-1.9,1.1-3.8,2.2-5.7,3.4C565.3,391.4,567.2,390.3,569.1,389.2z"/>
<path class="st3" d="M697.4,523.6c-1.1-1.1-2.1-2.2-3.3-3.4C695.2,521.4,696.2,522.5,697.4,523.6z"/>
<path class="st3" d="M692.6,519c-1.3-0.9-2.6-1.8-3.9-2.7C690.1,517.3,691.3,518.2,692.6,519z"/>
<path class="st3" d="M560.4,395.1c-1,1-2,2-2.9,3C558.5,397.1,559.4,396.1,560.4,395.1z"/>
<path class="st3" d="M681.6,611.8c1.2-0.4,2.4-0.8,3.6-1.2C684,611,682.9,611.4,681.6,611.8z"/>
<path class="st2" d="M554.1,402.3c0.2,0,0.3,0,0.6,0c-0.3,0.3-0.7,0.7-1,1C553.9,403,554,402.6,554.1,402.3L554.1,402.3z"/>
<path class="st2" d="M508.5,261.4c-0.4-0.1-0.9-0.1-1.3-0.2C507.6,261.3,508.1,261.4,508.5,261.4z"/>
<path class="st3" d="M735.2,358.7c0.3,0.1,0.8,0.2,1.1,0.3C736,358.9,735.7,358.8,735.2,358.7z"/>
<path class="st2" d="M490.7,361.4c0.3,0.1,0.6,0.1,0.9,0.2C491.2,361.5,491,361.5,490.7,361.4z"/>
<path class="st3" d="M410.6,584.2c-0.9,0-1.8,0-2.8,0C408.7,584.2,409.7,584.2,410.6,584.2z"/>
<path class="st3" d="M730.7,555.5c0.4,0,0.8,0.1,1.2,0.1C731.5,555.5,731.1,555.5,730.7,555.5z"/>
<path class="st3" d="M687.4,515.6c-0.4-0.2-0.9-0.4-1.3-0.6C686.6,515.2,686.9,515.4,687.4,515.6z"/>
<path class="st2" d="M755,511.6l-0.4,0.2l-0.4-0.1C754.4,511.6,754.8,511.6,755,511.6L755,511.6z"/>
<path class="st3" d="M107.4,396.3l-0.3,0.4l-0.4-0.1C106.9,396.6,107.2,396.5,107.4,396.3L107.4,396.3z"/>
<path class="st3" d="M482.7,640.2c-0.1,0-0.2,0.1-0.2,0.1l0.1-0.2L482.7,640.2L482.7,640.2z"/>
<path class="st2" d="M531.8,337.7l-0.1-0.1l0.2-0.1l0.1,0.1L531.8,337.7L531.8,337.7z"/>
<path class="st3" d="M466.5,593.6c0.2,0.1,0.3,0.3,0.6,0.6c0,0-0.1,0.2-0.1,0.3C466.9,594.2,466.7,593.9,466.5,593.6L466.5,593.6z"
	/>
<path class="st2" d="M118.5,473L118.5,473L118.5,473z"/>
<path class="st2" d="M119.6,469.7L119.6,469.7L119.6,469.7z"/>
<path class="st2" d="M762.3,511.6L762.3,511.6L762.3,511.6z"/>
<polygon class="st3" points="105.4,512.3 105.1,512.3 105.2,512 "/>
<path class="st3" d="M511.9,235.5h-0.1H511.9z"/>
<path class="st3" d="M618.5,161.2c-0.1-0.1-0.2-0.2-0.2-0.3c0.1,0.1,0.1,0.1,0.2,0.2V161.2L618.5,161.2z"/>
<path class="st2" d="M531.8,465.1L531.8,465.1L531.8,465.1z"/>
<path class="st3" d="M615.1,153.2L615.1,153.2L615.1,153.2C615,153,615.1,153.2,615.1,153.2L615.1,153.2z"/>
<path class="st3" d="M519.2,143.4l0.1-0.4l-0.2,0.2C519.2,143.1,519.2,143.4,519.2,143.4L519.2,143.4z"/>
<path class="st3" d="M315.4,514.1C315.4,514.1,315.3,514.1,315.4,514.1L315.4,514.1z"/>
<polygon class="st2" points="484.9,514.1 485,514.1 484.9,513.8 "/>
<path class="st3" d="M464.3,463L464.3,463c-0.1-0.1-0.2-0.1-0.4-0.1C464,462.8,464.2,463,464.3,463z"/>
<polygon class="st3" points="722.4,539.5 722.4,539.6 722.2,539.5 "/>
<polygon class="st3" points="401.6,426.7 401.7,426.7 401.7,426.8 "/>
<path class="st2" d="M774.9,583.2L774.9,583.2L774.9,583.2z"/>
<path class="st2" d="M531.7,589.8L531.7,589.8L531.7,589.8z"/>
<polygon class="st2" points="455.3,593.4 455.3,593.5 455.5,593.4 "/>
<path class="st3" d="M359.7,594.2L359.7,594.2L359.7,594.2z"/>
<path class="st3" d="M310,608.8l-0.1-0.2L310,608.8z"/>
<polygon class="st2" points="323.3,613.2 323.2,613.2 323.2,613.3 "/>
<path class="st3" d="M556.2,399.9L556.2,399.9L556.2,399.9z"/>
<path class="st3" d="M561.9,394C561.9,394,561.9,394.1,561.9,394L561.9,394z"/>
<path class="st2" d="M619.4,665.3L619.4,665.3L619.4,665.3z"/>
<polygon class="st2" points="551.8,718.1 551.7,717.8 551.3,718.1 "/>
<path class="st2" d="M484,359.4L484,359.4L484,359.4z"/>
<path class="st2" d="M117.3,475.2L117.3,475.2L117.3,475.2z"/>
<path class="st3" d="M576.6,667.3l0.1-0.2L576.6,667.3z"/>
<polygon class="st2" points="497.9,662.7 497.7,662.9 497.6,662.7 497.7,662.6 "/>
<path class="st3" d="M500.8,161.4c-0.4-0.1-0.8-0.1-1.2-0.2C500,161.3,500.3,161.4,500.8,161.4z"/>
<path class="st2" d="M507.9,167.3L507.9,167.3L507.9,167.3z"/>
<polygon class="st2" points="582.6,161.4 582.7,161.9 582.7,161.4 "/>
<path class="st2" d="M324.1,587L324.1,587L324.1,587z"/>
<path class="st3" d="M503.6,287.6L503.6,287.6l-0.2,0.1L503.6,287.6z"/>
</svg>
