<?xml version="1.0" encoding="utf-8"?>
<!-- Generator: Adobe Illustrator 27.6.1, SVG Export Plug-In . SVG Version: 6.00 Build 0)  -->
<svg version="1.1" id="b" xmlns="http://www.w3.org/2000/svg" xmlns:xlink="http://www.w3.org/1999/xlink" x="0px" y="0px"
	 viewBox="0 0 1000 1000" style="enable-background:new 0 0 1000 1000;" xml:space="preserve">
<style type="text/css">
	.st0{fill:#F7F6E6;}
	.st1{fill:#063829;}
	.st2{fill:#1A523D;}
	.st3{fill:#EBD25A;}
	.st4{fill:#DDDAAB;}
	.st5{fill:#FDFEFD;}
</style>
<path class="st0" d="M849.8,1000H150.2C67.2,1000,0,932.8,0,849.8V150.2C0,67.2,67.2,0,150.2,0h699.7C932.8,0,1000,67.2,1000,150.2
	v699.7C1000,932.8,932.8,1000,849.8,1000z"/>
<path class="st1" d="M600.5,917.3c-42.8,16.8-79-7.3-116.6-19.6c-59.2-19.6-117.9-41.1-177.1-62c-15,14.6-32.3,24.5-52.6,28.9
	l-0.4-0.1l-0.3,0.4c-1.2,0.3-2.3,0.5-3.3,0.9l-0.3,0.1c-1.3,0.4-2.6,0.9-4,1.3l-0.4,0.1l0.1,0.4c-27.2,24.5-54.2,49-82.9,75
	c-75.5-38.8-129-139.1-117.4-230c37-12.1,74.3-24.2,111.7-36.4l0.1,0.3v-0.3c2.9,0.3,6,0.7,10.2,1.1c29.1-22,62.8-28.7,99.6-17.4
	c0.9-0.1,2-0.3,2.9-0.5c0.3-0.5,0.5-1.1,0.8-1.5l0.3,0.1V658c66-24.6,131.9-49.5,198-73.9c61.6-22.7,88.2-69.8,94.1-131.9l0.3-0.3
	l-0.1-0.3c0.7-3.7,1.3-7.4,2-11.3c0.1-0.1,0.3-0.1,0.4-0.3c-0.1-0.3-0.4-0.4-0.5-0.7c-32.9-29-65.8-57.6-98.2-87.2
	c-6.5-6-10.1-15-15.1-22.5v-0.1c0-3.3-0.1-6.8-0.1-10.1l0.3-0.3l-0.3-0.3c2.1-21.3,15.2-31.8,35.4-35.1c0.5,0,1.2-0.1,1.7-0.1
	c41.9-5,83.7-10.1,126.2-15.2c17.4-40.7,35-81.2,51.9-122c6.8-16.3,18.3-26.1,35.8-26.6c18.9-0.5,30.9,9.9,38,27.2
	c16.7,40.7,33.8,81.3,50.5,121.3c11.9,1.7,22.5,3.2,33.1,4.6l0.3,0.3l0.4-0.3c16.2,1.7,32.3,3.6,48.5,5.3l0.3,0.3l0.3-0.3
	c7.4,0.8,14.8,1.7,22.3,2.5h0.3c22.9,3.6,49.4,0.3,58.9,29.9v0.3c0.1,5.8,0.3,11.8,0.4,17.6c-0.1,0.1-0.4,0.1-0.4,0.3
	c0,0.3,0,0.5,0.1,0.8c-12.2,29.7-42,42-62.9,63.1c-16.2,16.2-34.2,30.3-51.8,45.7c2,10.5,4.1,20.7,6.1,31l-0.3,0.4l0.3,0.4
	c1.7,7.8,3.4,15.5,5.2,23.2l-0.3,0.3l0.3,0.1c1.6,7.8,3.3,15.6,4.9,23.6c0,0.1-0.1,0.4-0.1,0.5c0.1,0.3,0.3,0.7,0.4,0.9
	c3.6,28.1,23.4,57.8-7.7,82.7h-0.4v0.4c-27.7,15.8-48-2.4-69-15.5c-26.1-16.3-51.8-33.2-78.2-50.2c-19.5,13-38.9,26-56.8,38
	c0,11.9,0,22.5,0,33.1l-0.1,0.4c-10.9,43.1-51.5,58.3-79.6,85.3c-10.1,9.7-20.9,18.4-34.2,29.9c12.7,4.2,21.1,7,29.4,9.8h0.1
	c6.2,1.7,12.5,3.4,18.5,5.3c0.5-0.1,1.1-0.1,1.5-0.3c5-1.6,10.1-3.2,15.8-5c12.8-30.7,11-72.3,55.6-82.1c1.7-0.4,3.3-0.8,5-1.1
	c5.7,0,11.5,0,17.2-0.1h0.1c18.8,2.8,32.5,12.7,40.7,29.8c0.4,0.7,0.8,1.2,1.3,2.1c0.8-1.1,1.2-1.6,1.7-2.3
	c11.8-17,19.6-37.5,41.1-45.7l0.3,0.1l0.1-0.3c34-10.9,58.8-0.7,73.8,32.5c9.9-9.7,21.9-15,35.6-16.4h0.1c4.8,0,9.5,0,14.4,0h0.1
	c24.4,2.6,41.5,15.6,49.9,38.3c8.3,22.4,6,44.9-12.1,61.5c-29.4,27-60.5,52.1-90.9,78l-0.4-0.1l-0.1,0.4c-8.7,3-17.4,6-26.1,9
	l-0.3-0.1l-0.1,0.3c-15.8,5.3-31.7,10.5-47.4,15.8l-0.1-0.3l-0.1,0.3c-1.7,0.5-3.3,0.9-5,1.5l-0.3-0.1l-0.1,0.3c-2,0.7-4,1.5-6,2.3
	l-0.1-0.3v0.3c-22.5,7.2-45.2,14.3-67.7,21.5l-0.3-0.3l-0.1,0.3c-14.3,4.1-28.5,8.2-45,13c-6.9,9.9-17.6,19.7-31.3,26.1l-0.5-0.1
	L600.5,917.3L600.5,917.3z M507.7,338.6L507.7,338.6l1.3,1.3l-0.1-0.1c0.5,0.5,0.9,0.9,1.5,1.5l-0.1-0.1c0.5,0.5,1.1,1.1,1.6,1.5
	c31,27.8,62.1,55.8,93.1,83.6c-0.7,4.4-1.5,8.6-2.1,13c-0.1,0.1-0.4,0.1-0.4,0.3c0,0.3,0.1,0.5,0.1,0.8c-2.6,11.3-5.2,22.4-7.8,33.6
	c0,0.7,0,1.3-0.1,2c-4.1,17.4-8.1,34.7-12.3,52.3c5.8,0.9,10.2,1.5,14.4,2.1c9.1,4.6,18.3,9.1,28.1,14c24.6-16,50.7-33.1,77.2-50.5
	c42.5,26.5,84.8,52.9,129.3,80.5c-1.1-4.4-1.5-5.7-1.7-6.9c-2.1-10.2-4.2-20.5-6.4-30.7c0-0.1,0.1-0.3,0.1-0.4
	c0-0.3-0.3-0.5-0.3-0.8c-0.1-1.1-0.3-2.1-0.5-3.2h0.4l-0.4,0.1c-5-23.7-10.1-47.6-15.1-71.3c0.1-0.4,0-0.7-0.3-0.9
	c-1.7-8.6-3.6-17.1-5.3-25.7c0.1-0.1,0.3-0.3,0.3-0.4c0-0.3-0.1-0.5-0.3-0.8c-0.3-1.9-0.7-3.8-1.1-5.7l0.3-0.3l-0.3-0.3
	c0.3-0.9,0.7-2,0.9-2.9c37.8-33,75.6-65.8,113.4-98.8c0.5-2.1,1.1-4.4,1.5-6.5c-1.5-0.3-2.9-0.5-4.2-0.8c-5.8-0.5-11.8-1.1-17.6-1.6
	c-2.4-0.3-4.6-0.7-7-0.9l-64-7.8l-0.4-0.1c-8.7-0.9-17.5-1.9-26.1-2.6h-0.4c-9.9-1.1-20-2.3-29.9-3.3c-16.6-38.3-33.1-76.7-49.8-115
	c-0.4-0.9-0.7-1.7-1.1-2.6c-0.5-1.3-1.2-2.5-1.7-3.8c-0.3-0.9-0.7-1.9-0.9-2.8c-3-7.3-6.1-14.7-9.5-22.8c-1.5,2-2.4,3.2-3.2,4.4
	l0.1-0.3c-0.4,1.3-0.8,2.6-1.1,4.1c-1.2,2.4-2.3,4.8-3.4,7.2c-0.4,0.1-0.5,0.5-0.5,0.9l-0.5-0.3l0.5,0.3c-0.1,0.7-0.3,1.5-0.5,2.1
	c-18.8,42.9-37.6,86-56.4,128.9c-0.3,0.1-0.4,0.3-0.4,0.5c-32.2,3.6-64.4,7.2-96.6,10.7c-0.8,0.1-1.6,0.4-2.4,0.5
	c-7.4,0.7-14.7,1.2-22.1,1.9c-1.1,0.1-2.1,0.1-3.2,0.3c-8.2,1.1-16.4,2.1-26.5,3.3c2.6,2.9,3.8,4.5,5.2,6c3.4,3,6.9,6.1,10.3,9.3
	v-0.3c0.5,0.5,1.1,0.9,1.5,1.5l-0.1-0.1c0.5,0.5,0.9,0.9,1.5,1.5l-0.1-0.1C506.8,337.6,507.3,338,507.7,338.6L507.7,338.6z
	 M469.9,621.9c-0.5,0.1-1.1,0.1-1.6,0.3c-6.9,2.6-13.8,5.2-20.7,7.8l-0.4-0.1l-0.1,0.4l-46.1,17c-0.9,0.3-1.9,0.4-2.8,0.7
	c-17.6,6.5-35.1,13-52.7,19.3c-0.5,0.1-1.2,0.3-1.7,0.4c-7.4,2.5-14.7,5-22,7.6l-0.4-0.1l-0.1,0.4c-1.1,0.4-2.3,0.8-3.3,1.3
	l-0.5-0.1l-0.3,0.4c-2,0.7-4,1.5-6,2.1h-0.3c-2.5,0.7-4.9,1.3-8.5,2.3c17.8,16.2,28.6,35.2,33.4,57.9c0.1,1.1,0.3,2.3,0.3,3.3
	c0.7,3.7,1.3,7.4,2,11.1l-0.3,0.1l0.3,0.1c-0.1,4.6-0.1,9.1-0.3,13.8c-1.9,10.7-3.8,21.5-5.8,33c-0.4,0.4-1.7,2-3.4,4.1
	c36.3,12.2,72.7,24.1,109.2,35.9l-0.1-0.1c40.9,17,82,31.9,123.9,46.5c-1.3-1.2-2.5-2.4-3.8-3.6c19.3,18.4,52.9-12.7,56.3-33.6
	c0.4-1.6,0.9-3.2,1.3-4.8c0-6.1,0-12.2,0-18.3c-6.8-35.9-31.8-51.9-64.8-58.4c-24.1-4.8-45-13.9-48.7-40.8
	c-3.4-24.6,11.7-40.5,33.2-52.3c-16.3-19.9-32.5-39.6-48.5-59.3c-0.4,0-0.8,0-1.2,0.1c-2.9,1.2-5.7,2.4-8.6,3.6l-0.4,0.1
	c-1.2,0.4-2.4,0.8-3.6,1.3c-0.7,0.1-1.3,0.4-1.9,0.7C470.5,621.7,470.1,621.8,469.9,621.9L469.9,621.9z M151.3,854.9
	C150.6,855.5,149.8,856,151.3,854.9C150.5,856.5,150.9,855.7,151.3,854.9C151.9,854.8,152.7,854.8,151.3,854.9
	C152.6,854.1,151.9,854.5,151.3,854.9L151.3,854.9z M156.7,863C157.6,862.8,158.4,862.5,156.7,863
	C157.4,861.4,157.1,862.2,156.7,863C156,863.3,155.2,863.4,156.7,863C155.5,864.1,156,863.5,156.7,863L156.7,863z M152.7,851.2
	C151.7,849.9,150.7,848.6,152.7,851.2C149.8,849.8,151.1,850.4,152.7,851.2c0.7-0.7,1.3-1.3,0.1-0.3
	C153.5,849.5,153.1,850.3,152.7,851.2z M146.2,856.3c0.1,0.8,0.3,1.5,0,0.3C147,857.5,146.6,856.9,146.2,856.3
	c-0.1-0.8-0.1-1.6-0.1-2.5c0.8-0.5,1.6-1.1,0.1-0.1c0.7-1.6,0.3-0.7-0.1,0.3h-2.8c0-1.3,0-2.8,0-4.1c0.8-0.3,1.7-0.4,4.2-1.1
	c-2.5-0.9-3.3-1.2-4.2-1.5c0.9-2.6,1.9-5.4,2.8-8.1c0.3,0.8,0.7,1.7,1.5,4c0.7-2.4,0.9-3.2,1.1-4c0.9-0.4,1.7-0.8,2.6-1.2l-0.1,0.1
	c0.3-1.5,1.3-3.3,0.8-4.2c-14.6-26.9-28-54-23-86.1c0.1-0.4,0.1-0.8-0.1-1.2c0.9-3.7,1.7-7.4,2.6-11.3c0.4-1.3,0.8-2.8,1.2-4.1
	c1.1-3.3,2.3-6.8,3.7-11.1c-4.8,1.6-8.3,2.8-11.9,4l-0.3-0.3l-0.3,0.3c-8.2,2.6-16.4,5.2-24.6,7.8l-0.3-0.1l-0.3,0.3
	c-5,1.7-10.2,3.4-15.2,5.2l-0.5-0.1l-0.4,0.4c-5.7,8.1-2.1,16.7-1.2,25.2c2.1,28.2,11.9,54,26.1,78c4.8,8.1,12.6,14.3,18.9,21.3
	c0.5,1.2,1.2,2.4,2.5,5.4c0.7-2.8,1.1-4.1,1.3-5.6c0.7-2.5,1.3-5,2.4-8.7c0.8,1.7,1.2,2.5,1.6,3.3c-0.4,0.3-0.8,0.5-0.3,0.1
	c-0.3,0.7-0.1,0.3,0.1-0.3c1.5,0.7,3,1.5,3,1.5c1.7-1.3,2.6-2.1,3.6-2.9c0.7,1.6,1.5,3.2,1.6,3.7
	C144.3,857.6,145.2,856.9,146.2,856.3L146.2,856.3z M301,743.1l-0.1-0.4c-7.4-28.5-25.6-46-54.2-52.7c-0.8-0.1-1.5-0.1-2.3-0.3
	c-2.8-0.4-5.7-0.9-8.5-1.3l-0.4-0.4l-0.4,0.3c-4.6,0.4-9.3,0.8-13.9,1.2l-0.3-0.1l-0.3,0.3c-1.6,0.3-3.3,0.7-4.9,0.9l-0.3-0.3
	l-0.3,0.4c-1.6,0.4-3.2,0.9-4.6,1.3l-0.4-0.1l-0.3,0.4c-15.1,5.4-27,14.8-35.9,28.2c-0.3,0.4-0.7,0.9-0.9,1.3
	c-2.5,6.9-5,13.9-7.4,20.8c-0.1,0.5-0.4,1.1-0.5,1.7c-0.1,1.1-0.3,2-0.4,3c-0.1,0.4-0.3,0.9-0.3,1.3c-0.1,0.9-0.4,2-0.5,2.9
	c-0.1,1.7-0.1,3.3-0.3,5c0,2.6,0,5.3,0,8.1c0.3,2.1,0.4,4.2,0.7,6.5c0.1,0.9,0.3,2,0.5,2.9c1.9,29.3,34,58.3,65.6,59.3
	c32.7,1.1,66.4-24.4,69.9-52.7c0.4-10.9,0.8-21.7,1.2-32.6C301.1,746.7,301,745,301,743.1L301,743.1z M852.3,692.7
	c-12.6,9.4-25.2,18.9-37.8,28.5c6.1,12.8,12.1,25.2,17.9,37.4c2.6,5.6,5.4,11.3,8.2,17.2c13.4-11.8,26.1-22.5,38.3-33.9
	c12.1-11.3,29.7-20,21.9-41.7c-4.1-9.3-11.7-13.9-21.3-15.8h-0.4c-2.1,0-4.2,0-6.4-0.1h-0.3c-6.5,2.8-13.1,5.4-19.6,8.2l-0.4-0.1
	L852.3,692.7L852.3,692.7z M608.7,587.3c-4.5-18.7-16.8-26.4-35.5-25c-1.1,0.1-2.1,0.3-3.2,0.4c-17,10.5-33.9,20.8-51.4,31.5
	c10.9,14,21.1,27,31.3,40.1c4.1,5.3,8.1,10.6,13.2,17.4C579.1,629.6,615,623.9,608.7,587.3L608.7,587.3z M648.3,810.7L648,811
	l0.3,0.1c0.8,2.6,1.6,5.3,2.5,7.8v30.7c53.8-17.5,107-34.7,160.8-52.3c-4.4-8.3-8.5-15.8-12.5-23.3c-5.8-11.1-11.7-22.4-17.5-33.5
	c-0.3-0.1-0.5-0.4-0.8-0.5c-12.2,2.6-24.5,5.3-36.7,7.9l-0.4-0.1l-0.3,0.4c-22.3,5.3-44.6,10.6-66.9,15.9l-0.4-0.3l-0.3,0.4
	c-3.3,0.8-6.6,1.6-9.9,2.4l-0.5-0.3l-0.3,0.4c-3.3,0.7-6.6,1.5-9.9,2.3l-0.3,0.1c-1.6,0.4-3.2,0.8-4.6,1.3c-0.7,0.1-1.5,0.1-2.1,0.3
	c-1.6,0.4-3.2,0.8-4.8,1.2h-0.3c-4.6,1.1-9.3,2.1-12.6,2.9C636.6,786.8,642.5,798.8,648.3,810.7L648.3,810.7z M631.3,741.5
	c23.6-13.9,55.4-2.5,55.1-38c-0.1-12.2-8.7-19.9-19.6-18.8C634.8,688.2,646.3,718.8,631.3,741.5L631.3,741.5z M802.8,680.6
	c-1.6-8.5-7.9-15.9-17.6-15.8c-29.8,0.1-25.7,33.6-53.9,49.9C763.5,705,789.2,707.4,802.8,680.6L802.8,680.6z M146.8,863.5
	c-0.1-0.3-0.3-0.7-0.4-0.9c-1.2,0.5-2.4,0.9-3.6,1.5c0.1,0.3,0.3,0.5,0.4,0.9C144.4,864.3,145.6,863.9,146.8,863.5L146.8,863.5z
	 M166.1,858.4C165.3,857.9,165.7,858.1,166.1,858.4C166.1,857.9,166.1,857.3,166.1,858.4z M174.6,880.1
	C175.1,879.7,174.9,879.8,174.6,880.1C174.9,880.2,175.2,880.2,174.6,880.1z M170.1,862.4C169.2,861.8,169.7,862.1,170.1,862.4
	C170.1,861.8,170.1,861.3,170.1,862.4z M149.5,851.9C158.7,856.3,159.2,856.5,149.5,851.9C159.5,855.6,159,855.5,149.5,851.9z
	 M151.8,847c1.9,0.1,10.7-0.9,10.5,1.5C162.9,848.6,163.5,848.6,151.8,847z M142.3,880C144.6,878.9,144.1,879,142.3,880
	C144.4,879.7,144.8,879.7,142.3,880z M161.9,876.4c-0.4,1.1-0.5,1.3-0.8,1.9c0.7,0,1.1,0,3.2,0.1
	C162.9,877.2,162.5,876.9,161.9,876.4L161.9,876.4z M174.6,873.4C175.4,873.5,175,873.5,174.6,873.4
	C174.9,873.7,175,874,174.6,873.4z M165.7,873.4C166.2,872.6,166,873,165.7,873.4C166.2,873.4,166.8,873.4,165.7,873.4z
	 M143.6,871.4C142,869.9,142.3,870.3,143.6,871.4C142.8,869.9,142.5,869.5,143.6,871.4z M148.6,868.8
	C150.5,865.4,150.2,865.9,148.6,868.8C151,866.6,151.5,866.2,148.6,868.8z M174.6,865.1C175.2,865.8,174.9,865.4,174.6,865.1
	C174.6,865.7,174.6,866.1,174.6,865.1z M166.6,846.5C165.7,846.1,166.1,846.2,166.6,846.5C166.6,845.9,166.5,845.5,166.6,846.5z
	 M165.7,884.7c0,0.1,0.1,0.3,0.1,0.4c0.3-0.1,0.5-0.3,0.9-0.3C166.4,884.9,166.1,884.7,165.7,884.7L165.7,884.7z M133.3,861.8
	l-0.7,0.3c0.1,0.4,0.4,0.9,0.5,1.3c0.3-0.1,0.5-0.3,0.7-0.3C133.7,862.8,133.5,862.4,133.3,861.8L133.3,861.8z M162.5,854.7
	c0.3,0,0.4-0.1,0.5-0.1c-0.1-0.4-0.3-0.8-0.3-1.3c-0.1,0-0.4,0.1-0.5,0.1L162.5,854.7L162.5,854.7z M168.5,849
	c0.3,0,0.5,0.1,0.8,0.1C169,849,168.8,849,168.5,849z M155.8,840.9c0.1-0.1,0.4-0.1,0.5-0.3l-0.5-1.1c-0.1,0.1-0.4,0.1-0.5,0.3
	C155.5,840.1,155.6,840.5,155.8,840.9L155.8,840.9z M153.1,870.2c0.3,0.5,0.5,0.5,0.9,0C153.7,870.2,153.4,870,153.1,870.2z"/>
<path class="st1" d="M352.2,514.8c-12.7-26.5-34.2-42.3-62-50.2l-0.1-0.3l-0.3,0.1c-37.6-0.9-75.2-2-112.9-2.6
	c-12.1-0.3-17.6-6.6-17.6-17.5c0.1-10.5,7.3-15.5,17.2-14.7c52.9,3.8,107.8-12.3,157.9,17.2c20.3,12.1,35.6,28.3,46.6,49
	c7,13.1,15.5,25.3,23.3,37.9l-0.1,0.4l0.4,0.3c6.6,25.4-13.4,50.7-40.9,46c-30.3-5.3-35.1-46.9-12.1-63.5
	C352,516.1,352.1,515.4,352.2,514.8L352.2,514.8z"/>
<path class="st1" d="M391.8,342.3c36.4,9.5,59.6,33,76.8,66.1c7.9,15.4,26.6,25.3,20.8,46.8c-4.4,16-15.4,25.6-31.5,26.8
	c-14.3,1.1-26.2-5.4-32.7-18.9c-8.2-17.1-4.2-32.5,8.9-46.5c-16-27.7-39.7-43.7-71.9-44.5c-36.2-0.9-72.3-0.3-108.6-0.3
	c-9,0-15.1-3.7-17.6-12.7V359c-1.5-10.2,3.6-18.7,13-18.7c47-0.3,94.1,0.9,141.1,1.7C390.6,342,391.2,342.1,391.8,342.3L391.8,342.3
	z"/>
<path class="st1" d="M46.6,541.6c-0.1-2.1-0.1-4.2-0.3-6.4c0.1-0.5,0.1-0.9,0.3-1.5c2.5-8.3,8.2-11.8,16.8-11.8
	c70.6,0,141.3-0.1,212-0.3c11.7,0,18,6.2,18.4,17.1c0.3,10.3-6.9,15.4-16.8,15.5c-72.2,0.1-144.4,0.1-216.6,0
	c-7.8,0-11-6.2-13.6-12.6H46.6L46.6,541.6z"/>
<path class="st1" d="M271.7,266.2c-0.4,10.6-6,17.5-16.4,17.5c-63.7,0.3-127.4,0.1-191.2,0c-9.4,0-15.5-4.1-17.6-13.5l0.1-0.4
	l-0.4-0.3c0-1.5,0-2.9,0-4.4l0.3-0.3l-0.3-0.3c1.6-9.1,7.3-13.6,16.4-13.8c64.2-0.1,128.6-0.1,192.9-0.1
	C265.7,251,270.2,257,271.7,266.2l-0.3-0.1L271.7,266.2L271.7,266.2z"/>
<path class="st1" d="M142.7,201.6c-8.2-9.7-14.4-21.2-23.6-30.1c-6.9-6.6-27.2-10.1-21.6-21.1c4.4-8.9,20.5-7.8,27.7-15.8
	c7-7.8,6.1-28.6,19.6-26.5c12.7,2,11.5,22,20.3,29.3c7.4,6.2,25.7,5.4,24.5,18.5c-1.1,10.7-19.1,11.1-26,18.5
	c-4.1,4.4-6.2,9.5-8.7,15c-3.8,8.2-3.7,7.8-11.8,12.1C142.9,201.6,142.7,201.6,142.7,201.6z"/>
<path class="st1" d="M475.7,123.2c2.6-7.6,6.2-18.9,17.2-14.8c9.4,3.6,7.6,17.1,12.6,24.5c6.8,9.9,17.5,6.6,25.3,13.5
	c11.3,9.9,0,18.9-10.5,21.3l-0.4-0.1l-0.3,0.4c-9.1,2.3-15.5,7.3-17.1,17.2l-0.4,0.1l0.1,0.4c-3.4,9.4-11.4,22.9-22.3,11.7
	c-9.5-9.9-4.1-22.5-19.9-29c-9.4-4-28-10.7-11.5-22.8c10.7-7.8,24.9-3.4,26.8-21.5l0.3-0.1L475.7,123.2L475.7,123.2z"/>
<path class="st1" d="M328,117.1c2.3,15.4,10.1,24.9,26.2,27.3c3.2,0.5,7.6,6.8,7.6,10.5c0,3.6-4.2,9.9-7.4,10.5
	c-14.6,2.6-23.3,9.8-25.7,24.9c-0.9,6.2-4.8,11-12.1,11.1c-7.8,0.3-10.3-5.7-11.5-11.4c-2.8-13.6-10.1-21.9-24.2-23.7
	c-5.4-0.8-9.7-4.2-9.7-10.6c0.1-6.6,3.6-11.7,9.8-12.3c15.5-1.6,22.4-10.6,24.8-24.9c0.9-5.3,3.7-10.1,10.3-10.3
	c6.2-0.3,9.8,3,11.7,8.6l-0.1,0.4L328,117.1L328,117.1z"/>
<path class="st1" d="M892.7,143.4c6.6,1.7,10.9,5.3,9.8,12.8c-0.1,0.1-0.3,0.3-0.3,0.4c0,0.3,0.1,0.7,0.3,0.9
	c-2.4,2.5-4.9,5-7.3,7.4l-0.4-0.1l-0.3,0.3c-15,1.9-24.2,9.7-26.2,25l-0.3,0.1l0.1,0.3c-3.7,10.3-14.3,14.4-21.3,4.9
	c-5.6-7.4-3.7-16.8-11.4-23.7c-6.2-5.6-15.9-4.4-21.3-10.5c-8.7-9.8-0.1-15,8.7-18.5c9.3-3.7,15.6-5.3,20-15.4
	c3.6-7.9,2-20,14.2-19.9c10.7,0.1,10.3,10.3,13.1,17.8c3.7,9.7,9,15.6,20,16.8C891,142.8,891.8,143,892.7,143.4z"/>
<path class="st1" d="M130.6,371.8c-22.9,0-45.8,0.1-68.8-0.1c-10.5-0.1-16.2-6.4-16.2-16.2c0-10.1,6.2-15.8,16.4-15.8
	c25.3-0.1,50.7,0,76-0.1c9.7,0,16.8,3.8,18.1,13.5c1.3,10.2-4.6,16.4-14.7,18.4C137.9,371.8,134.3,371.8,130.6,371.8L130.6,371.8z"
	/>
<path class="st1" d="M902.2,534.9c0-3.7,0-7.4-0.1-11l0.3-0.3l-0.1-0.4c7-18.9,35.5-16.3,37.4,4.4c2,22.5-29.9,29.1-37.4,7.8
	l0.1-0.3L902.2,534.9z"/>
<path class="st1" d="M706.7,618.3c-25.4-2.1-24.4-39.7,1.3-38.3C732.9,581.4,730.6,616,706.7,618.3z"/>
<path class="st1" d="M842.4,896.3c-25-3.3-22.3-41.7,3.4-38.3c23.8,3.2,20.9,36.6-2.4,38.2C843,895.9,842.6,895.9,842.4,896.3
	L842.4,896.3z"/>
<path class="st1" d="M63.2,464.4c-22.8-5-18.7-40.4,4.8-37.9c24.9,2.8,21.2,39.6-4.5,37.9H63.2L63.2,464.4z"/>
<path class="st1" d="M47.5,630.9c2.4-22.7,34.8-28.5,37.5-3.3C87.7,653.6,51.3,655.8,47.5,630.9z"/>
<path class="st1" d="M586.6,178.3c23.4,1.9,26.4,36.4,1.7,37.8C563.8,217.5,562.5,181.2,586.6,178.3v0.3V178.3z"/>
<path class="st1" d="M364.1,247.3c11.8,4,16.4,12.2,13.2,24c-2.6,9.7-9.7,14-19.9,13h-0.1c-11.5-2.5-17-9.7-15.1-21.2
	c1.9-12.1,9.9-16.7,21.7-15.8l0.1,0.3L364.1,247.3L364.1,247.3z"/>
<path class="st1" d="M272.6,592.3c19.3,2,17,32.2-3,29.4C251.2,619,254.9,593.4,272.6,592.3z"/>
<path class="st1" d="M500.2,244.9c-2.6,19.3-31,17-27.6-2.8C475.7,224.4,498.5,228.5,500.2,244.9z"/>
<path class="st1" d="M156.2,596.6c15.5,6.1,11,29.8-6.2,27.3c-15.6-2.3-16-26.4,0.5-27.4l0.4,0.1l0.3-0.4c1.6,0.1,3.2,0.3,4.8,0.4
	L156.2,596.6L156.2,596.6z"/>
<path class="st1" d="M484.4,529.9c-1.5,15.5-23.4,20.1-27.6,3.7C452,514,482.4,509.5,484.4,529.9z"/>
<path class="st1" d="M916.9,410.9c16.2-3.3,25,19.1,9.1,25.4c-15.9,6.4-26.4-18.7-9.8-25.2l0.4,0.1L916.9,410.9L916.9,410.9z"/>
<path class="st2" d="M130.6,371.8c3.7,0,7.4-0.1,11-0.1C137.9,371.8,134.3,371.8,130.6,371.8z"/>
<path class="st2" d="M719,679.4c-0.5,0.7-0.9,1.2-1.7,2.3c-0.7-0.9-0.9-1.6-1.3-2.1C717,679.5,718,679.4,719,679.4L719,679.4z"/>
<path class="st2" d="M657.8,649.7c-1.7,0.4-3.3,0.8-5,1.1C654.5,650.5,656.2,650.1,657.8,649.7z"/>
<path class="st2" d="M270.1,659.5c-0.9,0.1-2,0.3-2.9,0.5C268.1,659.9,269,659.7,270.1,659.5z"/>
<path class="st2" d="M892.7,143.4c-0.9-0.3-1.7-0.7-2.6-0.9C891,142.8,891.8,143,892.7,143.4z"/>
<path class="st2" d="M842.4,896.3c0.4-0.3,0.7-0.4,1.1,0C843,896.1,842.6,896.3,842.4,896.3z"/>
<path class="st2" d="M46.6,533.8c-0.1,0.5-0.1,0.9-0.3,1.5c0-0.4-0.1-0.7-0.1-1.1C46.2,534.1,46.5,534,46.6,533.8z"/>
<path class="st2" d="M902.5,157.6c-0.1-0.3-0.3-0.7-0.3-0.9c0-0.1,0.1-0.3,0.3-0.4c0.1,0.3,0.3,0.7,0.4,0.9
	C902.9,157.4,902.6,157.5,902.5,157.6L902.5,157.6z"/>
<path class="st2" d="M488.9,283.9c-0.5,0-1.2,0.1-1.7,0.1C487.7,284,488.3,283.9,488.9,283.9z"/>
<path class="st2" d="M352.2,514.8c-0.1,0.7-0.1,1.3-0.3,2C352,516.1,352.1,515.4,352.2,514.8z"/>
<path class="st2" d="M857.6,519.4c-0.1-0.3-0.3-0.7-0.4-0.9c0-0.1,0.1-0.3,0.1-0.5c0.3,0.3,0.4,0.7,0.5,0.9
	C858,519.1,857.7,519.3,857.6,519.4L857.6,519.4z"/>
<path class="st2" d="M600.5,917.3l0.3-0.4l0.5,0.1l-0.3,0.4L600.5,917.3L600.5,917.3z"/>
<path class="st2" d="M581.5,738.1c-0.5,0.1-1.1,0.1-1.5,0.3C580.5,738.2,581,738.1,581.5,738.1z"/>
<path class="st2" d="M391.8,342.3c-0.7-0.1-1.2-0.3-1.7-0.4C390.6,342,391.2,342.1,391.8,342.3z"/>
<polygon class="st2" points="157.2,676.4 157.2,676.5 157.1,676.4 "/>
<polygon class="st2" points="884.6,649.6 884.5,649.6 884.6,649.3 "/>
<polygon class="st2" points="870.2,649.6 869.9,649.6 870,649.3 "/>
<polygon class="st2" points="675.3,649.7 675.2,649.7 675.2,649.3 "/>
<polygon class="st2" points="760.5,633.6 760.4,633.8 760.1,633.7 760.2,633.3 "/>
<polygon class="st2" points="235.9,358.8 236.1,359 235.7,359 "/>
<polygon class="st2" points="645.5,608.1 645.6,607.7 645.9,607.9 "/>
<polygon class="st2" points="561.4,733.2 561.3,733.1 561.3,732.8 "/>
<polygon class="st2" points="849.6,602.5 849.6,602.1 850,602.2 850,602.5 "/>
<path class="st2" d="M916.9,410.9l-0.3,0.4l-0.4-0.1l0.3-0.4L916.9,410.9z"/>
<polygon class="st2" points="156.2,596.6 155.8,596.5 156,596.2 "/>
<path class="st2" d="M151,596.2l-0.3,0.4l-0.4-0.1C150.6,596.4,150.9,596.2,151,596.2z"/>
<polygon class="st2" points="46.6,541.6 46.6,541.8 46.4,541.8 "/>
<path class="st2" d="M955.8,330.2c0-0.3-0.1-0.5-0.1-0.8c0-0.1,0.3-0.1,0.4-0.3c0,0.3,0.1,0.5,0.1,0.8
	C956.2,330,955.9,330.1,955.8,330.2L955.8,330.2z"/>
<polygon class="st2" points="271,658 271,658.2 270.8,658.1 270.8,657.8 "/>
<polygon class="st2" points="452,329.7 452,329.8 451.7,329.7 "/>
<polygon class="st2" points="404.8,534.4 404.4,534.1 404.7,533.7 404.9,534 "/>
<polygon class="st2" points="831.1,827.6 831.2,827.3 831.6,827.4 831.5,827.8 "/>
<polygon class="st2" points="804.7,836.8 804.7,836.5 805,836.7 804.9,836.9 "/>
<polygon class="st2" points="451.8,319.1 452.1,319.4 451.7,319.6 451.6,319.4 "/>
<polygon class="st2" points="955.6,311.4 955.6,311.3 955.9,311.3 "/>
<path class="st2" d="M852.4,494.5l-0.3-0.1l0.3-0.3l0.4,0.1L852.4,494.5L852.4,494.5z"/>
<polygon class="st2" points="357.4,284.3 357.5,284.3 357.4,284.5 "/>
<polygon class="st2" points="847.1,470.8 846.9,470.4 847,470 847.4,470.4 "/>
<polygon class="st2" points="757.1,852.6 757.2,852.3 757.3,852.4 757.2,852.7 "/>
<polygon class="st2" points="289.8,464.4 290.1,464.3 290.2,464.6 290,464.8 "/>
<polygon class="st2" points="896.7,281.2 896.3,281.2 896.5,280.8 "/>
<polygon class="st2" points="63.2,464.4 63.4,464.4 63.3,464.7 "/>
<polygon class="st2" points="751.6,854.1 751.8,853.9 752.2,854 752,854.3 "/>
<polygon class="st2" points="874,278.6 873.8,278.8 873.6,278.6 873.8,278.3 "/>
<polygon class="st2" points="825.1,273.3 824.7,273.5 824.5,273.3 824.9,273 "/>
<polygon class="st2" points="46.4,269.7 46.6,270 46.5,270.4 46.1,270.1 "/>
<polygon class="st2" points="745.5,856.3 745.7,856.1 745.7,856.3 "/>
<polygon class="st2" points="271.7,266.2 271.4,266.1 271.7,266.1 "/>
<polygon class="st2" points="46.4,264.8 46.6,265.1 46.4,265.3 46,265.1 "/>
<polygon class="st2" points="364.1,247.3 364,247.6 363.9,247.3 364,247 "/>
<polygon class="st2" points="142.7,201.6 142.9,201.6 142.7,201.9 "/>
<polygon class="st2" points="868.2,190.7 868.1,190.5 868.3,190.2 868.6,190.6 "/>
<polygon class="st2" points="563.2,451.4 563.4,451.8 563.1,452 562.9,451.7 "/>
<polygon class="st2" points="502.4,185.4 502.3,185 502.6,184.9 502.8,185.3 "/>
<path class="st2" d="M565.1,439.4c0.1,0.3,0.4,0.4,0.5,0.7c-0.1,0.1-0.3,0.1-0.4,0.3C565,440,565,439.8,565.1,439.4z"/>
<polygon class="st2" points="586.6,178.3 586.6,178.5 586.4,178.3 "/>
<polygon class="st2" points="253.4,864.7 253.8,864.3 254.2,864.6 253.9,864.9 "/>
<polygon class="st2" points="249.8,865.7 250.1,865.5 250.1,865.9 "/>
<polygon class="st2" points="245.5,867.5 245.5,867.1 245.9,867 245.9,867.4 "/>
<polygon class="st2" points="519.7,167.7 519.9,167.3 520.3,167.6 520.1,168 "/>
<path class="st2" d="M894.7,165.2l0.3-0.3l0.4,0.1l-0.3,0.4L894.7,165.2L894.7,165.2z"/>
<polygon class="st2" points="677.4,877.9 677.7,877.6 677.8,877.9 677.7,878.1 "/>
<polygon class="st2" points="475.7,123.2 476,123.4 475.6,123.7 475.4,123.3 "/>
<polygon class="st2" points="328,117.1 327.6,116.8 327.9,116.4 328.2,116.7 "/>
<polygon class="st2" points="902.2,523.1 902.5,523.5 902.1,523.8 902,523.4 "/>
<polygon class="st2" points="902.2,534.9 902.5,535 902.4,535.3 902,535.2 "/>
<path class="st3" d="M605,426.1c-31-27.8-62.1-55.8-93.1-83.6c-0.5-0.5-1.1-1.1-1.6-1.5l0.1,0.1c-0.5-0.5-0.9-0.9-1.5-1.5l0.1,0.1
	c-0.5-0.5-0.9-0.9-1.5-1.5l0.1,0.1c-0.5-0.5-0.9-0.9-1.5-1.5l0.1,0.1c-0.5-0.5-0.9-0.9-1.5-1.5l0.1,0.1c-0.5-0.5-1.1-0.9-1.5-1.5
	v0.3c0-1.2,0-2.5,0-4c1.2-0.3,2.1-0.5,3.2-0.8h0.4h0.4c5.7,1.5,11.5,3,17.2,4.5c0.1-0.1,0.3-0.4,0.1-0.7c0.4,0.1,0.8,0.4,1.3,0.5
	c0.5,0.3,1.1,0.5,1.6,0.8c0.4,0.1,0.8,0.4,1.2,0.5c1.3,0.4,2.5,0.7,3.8,1.1c9.4,2.6,18.9,5.3,28.3,7.9c2.5,0.4,5,0.9,7.6,1.3
	c0.9,0.1,1.7,0.3,2.6,0.4c0.9,0.3,1.7,0.5,2.6,0.8c0.8,0.3,1.6,0.4,2.3,0.7c1.1,0.5,2,0.9,3,1.5c1.3,0.4,2.5,0.7,3.7,1.1
	c0.5,0.1,1.1,0.3,1.6,0.5c0.8,0.3,1.6,0.5,2.4,0.8c2.3,0.4,4.5,0.7,6.6,1.1c0.5,0.1,1.1,0.1,1.6,0.3c0.3,0.1,0.7,0.4,1.1,0.5
	c0.9,0.1,2,0.4,2.9,0.5l1.3,0.4c0.5,0.1,1.1,0.1,1.6,0.3c2.5,0.7,5,1.5,7.7,2.1c0.5,0.4,1.1,0.8,1.6,1.1c0.7,0.1,1.2,0.3,1.9,0.4
	c0.7,0.3,1.3,0.4,2.1,0.7c0.4,0.1,0.8,0.3,1.2,0.3c0.8,0,1.7,0,2.6,0l0.5,0.3h0.7l4.1,1.2c0.7,0.1,1.3,0.1,2,0.3
	c2.4,0.7,4.9,1.3,7.3,2c0.4,0.1,0.9,0.3,1.3,0.4s0.8,0.4,1.3,0.7c0.9,0.1,1.9,0.4,2.8,0.5c3.7,1.2,7.3,2.4,10.9,3.7l28.6,7.3
	c0.8,0,1.6-0.1,2.5-0.1c0.5,0.5,1.2,0.9,1.7,1.5c0.5,0.1,1.2,0.4,1.7,0.5c1.6,0.1,3.2,0.3,4.8,0.4c1.7,0.5,3.4,0.9,5.3,1.5l0,0
	c0.4,0.3,0.9,0.5,1.3,0.7c0.9,0.1,1.9,0.4,2.8,0.5c2.6,0,5.3,0,7.9,0c0.9-0.1,1.9-0.3,2.6-0.3c0.7-0.3,1.3-0.5,2.1-0.8
	c1.1-0.1,2.1-0.4,3.2-0.5c3-0.8,6.1-1.6,9.3-2.4c0.4-0.1,0.9-0.3,1.3-0.4c2.4-0.7,4.6-1.5,7-2.1c0.8-0.1,1.6-0.3,2.4-0.4
	c1.3-0.4,2.6-0.8,3.8-1.2c0.9-0.1,1.9-0.1,2.8-0.3c0.7-0.3,1.3-0.5,1.9-0.8c0.7-0.1,1.3-0.3,2.1-0.4c2.8-0.8,5.6-1.6,8.2-2.4h0.5
	l0.5-0.3c1.5-0.4,2.9-0.7,4.4-1.1c0.8-0.1,1.5-0.3,2.3-0.4c0.7-0.3,1.3-0.5,2-0.8c0.7-0.1,1.3-0.3,2-0.4c0.9-0.3,1.9-0.7,2.8-1.1
	c0.8-0.1,1.6-0.3,2.5-0.4c0.9-0.3,2-0.5,2.9-0.8c0.8-0.1,1.6-0.3,2.3-0.5c2.8-0.7,5.6-1.5,8.3-2.1h0.5l0.4-0.3
	c2.6-0.5,5.3-0.9,7.9-1.3c0.5,0.1,0.9,0,1.2-0.4c4-1.1,7.8-2.1,11.8-3.3l0.1-0.1c0.8-0.1,1.6-0.4,2.3-0.5l1.9-0.5
	c0.8-0.1,1.7-0.4,2.5-0.5c0.9-0.3,1.9-0.5,2.6-0.9l7.3-2.5l0.5,0.1l0.4-0.3c1.3-0.4,2.6-0.8,4-1.2c0.9-0.1,1.7-0.3,2.6-0.5
	c0.5-0.3,1.2-0.5,1.7-0.8l0.4,0.1l0.4-0.3c1.3-0.4,2.8-0.8,4.1-1.3h0.7l0.5-0.3c1.7-0.4,3.3-0.9,5-1.3h0.3c1.1-0.4,2-0.7,2.9-1.1
	l27.6-6.9c1.2-0.4,2.5-0.8,3.7-1.2c1.1-0.3,2.1-0.7,3.2-0.9c0.5-0.1,1.1-0.4,1.6-0.5l0.4,0.1l0.3-0.3c0.9-0.3,1.9-0.5,2.8-0.9
	c0.4-0.1,0.9-0.3,1.3-0.4c0.9-0.3,1.9-0.7,2.6-0.9c0.4,0,0.9,0,1.2-0.3c1.7-0.4,3.3-0.8,5-1.2c6.6-1.5,13.1-3,19.7-4.5
	c-37.8,33-75.6,65.8-113.4,98.8c-32.1-13.1-64-26.2-97.6-40c15.4,32.9,41.5,63.1,62.1,92.9c20.9,30.2,42.1,60.1,63.5,90.1
	c0.3,1.3,0.7,2.6,1.7,6.9c-44.5-27.8-86.8-54-129.3-80.5C676.1,511,650,528,625.4,544.2c-9.8-4.9-18.9-9.5-28.1-14
	c2.4,0.4,4.6,0.8,7.7,1.3c32.1-48.6,64.2-97.1,98.6-149C667.8,398.2,636.4,412.2,605,426.1L605,426.1z"/>
<path class="st2" d="M428.1,799c8.3,2.8,16.7,5.7,25,8.5c0.9,0.3,1.9,0.7,2.8,1.1c0.3,0.3,0.7,0.4,1.2,0.4c0.5,0.3,1.1,0.5,1.5,0.8
	c46.1,13.8,89,37.8,137.8,42.7c5.7,0.5,11.7-1.6,17.5-2.5c-3.6,20.9-37,52.1-56.3,33.6c1.3,1.2,2.5,2.4,3.8,3.6
	c-41.7-14.6-82.9-29.4-123.9-46.5c0.3-0.1,0.5-0.4,0.1-0.1c0.1-0.4,0-0.1,0,0.3c-36.4-11.9-72.9-23.7-109.2-35.9
	c1.7-2.1,3.2-3.7,3.4-4.1c2-11.5,3.8-22.3,5.8-33c12.8,4.5,25.7,9,38.7,13.4c0.9,0.4,1.9,0.8,2.9,1.2l0,0c0.8,0.3,1.7,0.7,2.5,0.9
	c13.4,4.5,26.6,9,40,13.5c1.3,0.4,2.5,0.9,3.8,1.3c0.3,0.3,0.5,0.3,0.9,0.1C427.1,798.5,427.6,798.8,428.1,799L428.1,799z
	 M351.4,812.7c-8.3-6.5-7.9-6.1-7.4-5.7c0.1-0.1,0.1-0.3,0.3-0.5C343.9,806.1,343.5,805.7,351.4,812.7L351.4,812.7z M489.2,850.6
	C491.2,852.6,490.9,852.3,489.2,850.6C490.5,852.6,490.8,852.9,489.2,850.6z M479.7,850.8C477.8,850.4,478.3,850.6,479.7,850.8
	C478.6,849.9,478.2,849.6,479.7,850.8z M335,797.3v0.4l0.5-0.3L335,797.3L335,797.3z M463.4,848.7l-0.1,0.4h0.3L463.4,848.7
	L463.4,848.7z"/>
<path class="st3" d="M639,302.3c18.8-42.9,37.6-86,56.4-128.9c0.4-1.1,0.7-2,1.1-2.9c1.2-2.4,2.3-4.8,3.4-7.2
	c-0.3,1.1-0.7,2-1.2,3.6c1.5-0.8,2.4-1.2,4.9-2.5c0,69.3,0,137.2-0.1,205.3c0,2-2.9,4-4.5,5.8c-2-2.1-4-4.2-6-6.4l-0.1-0.1l-1.2-1.6
	l-2.1-2.5c-0.4-0.3-0.7-0.7-0.7-1.1c-1.9-2.1-3.6-4.4-5.3-6.6c-0.3-0.3-0.7-0.7-0.9-0.9c-1.3-1.6-2.5-3-3.8-4.6l-0.1-0.3l-1.6-2.1
	c-0.4-0.5-0.9-0.9-1.3-1.5c-1.6-1.9-3-3.6-4.6-5.4c-0.4-0.3-0.5-0.7-0.7-1.1c-0.5-0.5-1.1-1.1-1.6-1.7c-0.3-0.4-0.7-0.9-0.9-1.3
	c-0.9-1.2-1.9-2.4-2.8-3.6v-0.1c-0.5-0.5-0.9-1.2-1.3-1.7c-0.8-0.9-1.6-1.9-2.4-2.8l-1.1-1.2l-0.1-0.3c-1.1-1.3-2.1-2.5-3.2-3.8
	c-0.7-0.9-1.5-1.9-2.1-2.6c-0.7-0.7-1.2-1.2-1.9-1.9l-0.1-0.1c-0.3-0.5-0.7-0.9-0.9-1.5c-0.4-0.1-0.7-0.3-1.1-0.5l0.1,0.1
	c-0.4-0.5-0.9-0.9-1.3-1.5l0,0c-0.4-0.4-0.8-0.8-1.2-1.2l0.1-0.3l-0.3,0.1c-1.7-2.3-3.4-4.5-5.3-6.8l0.1,0.3c-0.7-0.8-1.3-1.6-2-2.4
	C640.5,305.2,639.7,303.7,639,302.3L639,302.3z"/>
<path class="st4" d="M699,375.4c1.6-2,4.4-3.8,4.5-5.8c0.3-68.1,0.1-136,0.1-205.3c-2.5,1.3-3.4,1.9-4.9,2.5
	c0.5-1.6,0.8-2.5,1.2-3.6c0.4-1.3,0.8-2.6,1.1-4.1l-0.1,0.3c0.8-1.2,1.7-2.4,3.2-4.4c3.4,8.2,6.5,15.5,9.5,22.8
	c0.3,0.9,0.7,1.9,0.9,2.8c0.5,1.3,1.2,2.5,1.7,3.8c0.4,0.9,0.7,1.7,1.1,2.6c16.6,38.4,33.1,76.7,49.8,115.1
	c-6.5,9-13.1,17.9-19.6,26.9c-1.2,1.5-2.4,2.8-3.6,4.2c-1.5,1.7-2.9,3.4-4.4,5.2c-1.6,1.9-3.3,3.6-4.9,5.4l-0.3,0.3
	c-1.7,2.1-3.3,4.1-5,6.2c-1.1,1.3-2.1,2.5-3.2,3.8c-3.3,4.1-6.6,8.1-9.9,12.2c-0.7,0.7-1.3,1.3-1.9,2l-0.5,0.1l-0.1,0.5
	c-0.3,0.1-0.5,0.3-0.7,0.7l-0.5,0.1v0.4c-2,2.4-4.1,4.8-6.1,7.2c-1.9,0.5-3.7,1.2-5.6,1.7C700.4,377.8,699.7,376.6,699,375.4
	L699,375.4z"/>
<path class="st4" d="M829.8,567.6c-21.2-29.9-42.5-59.9-63.5-90.1c-20.7-29.8-46.8-60-62.1-92.9c33.6,13.8,65.7,26.9,97.6,40
	c-0.3,0.9-0.7,2-0.9,2.9l-0.3,0.3l0.3,0.3c0.3,1.9,0.7,3.8,1.1,5.7c-0.3,0.4-0.3,0.8,0,1.2c1.7,8.5,3.6,17.1,5.3,25.6l-0.1,0.5
	l0.4,0.3c5,23.7,10.1,47.6,15.1,71.3l0,0c0.1,1.1,0.3,2.1,0.5,3.2c-0.3,0.4-0.1,0.8,0.1,1.2C825.7,547.2,827.7,557.4,829.8,567.6
	L829.8,567.6z"/>
<path class="st4" d="M605,426.1c31.4-13.9,62.8-27.8,98.2-43.6c-34.3,51.9-66.5,100.5-98.6,149c-2.9-0.5-5.3-0.9-7.7-1.3
	c-4.2-0.7-8.6-1.3-14.4-2.1c4.1-17.6,8.2-35,12.3-52.3c0-0.7,0-1.3,0.1-2c2.6-11.3,5.2-22.5,7.8-33.6c0.3-0.3,0.4-0.7,0.3-1.1
	C603.5,434.7,604.3,430.5,605,426.1L605,426.1z"/>
<path class="st4" d="M301.2,748.4c-0.4,10.9-0.8,21.7-1.2,32.6c-20.3,23.8-43.6,41.9-78.7,40.4c0.3-0.3-0.8,0.8-0.3,0.4
	c-4.5-2.4-8.5-4.5-22.3-11.9c1.1,0.7-7.3-5.3-15.8-11.1c-4.1-7.7-8.2-15.4-13-24.2h-5.6c-0.1-0.9-0.3-2-0.5-2.9
	c-0.3-2.1-0.4-4.2-0.7-6.5c0-2.6,0-5.3,0-8.1c0.1-1.7,0.1-3.3,0.3-5c0.1-0.9,0.4-2,0.5-2.9c1.5-0.1,2.9-0.1,4.4-0.3
	c3.2,0,6.2,0,9.4,0l5-10.3c0.3-0.3,0.4-0.7,0.4-1.1c0.3-0.5,0.7-1.1,1.1-1.6c8.1-7.6,16-15,24.1-22.5c0.7-0.4,1.2-0.8,1.9-1.1
	c2.1-0.7,4.1-1.3,6.2-1.9l1.6-0.8c10.3,0,20.7,0,30.9,0c0.7,0.3,1.2,0.7,1.9,0.9c0.3,0.3,0.7,0.4,1.1,0.3c0.5,0.3,1.1,0.4,1.5,0.7
	c0.8,0.3,1.7,0.4,2.5,0.7c1.5,0.8,2.8,1.6,4.2,2.4l0.1,0.1c0.8,0.4,1.6,0.9,2.5,1.3c11.4,8.1,20.8,17.8,24.1,31.9
	c0.4,0.4,0.8,0.9,1.1,1.3C292.2,749,296.7,748.7,301.2,748.4L301.2,748.4z M244.4,721.1L244.4,721.1c-31.9-5.4-52.3,11.8-53.8,45.4
	l-0.4,0.4l0.4,0.4c6,31.5,43.7,51,70.6,28.2C289.2,771.9,275.3,732.1,244.4,721.1L244.4,721.1z"/>
<path class="st2" d="M146.1,839c-0.9,2.6-1.9,5.4-2.8,8.1l0.1-0.1c-0.8,0.3-1.7,0.4-4,1.1c2.3,1.1,3.2,1.3,4,1.7l-0.1-0.1
	c0,1.3,0,2.8,0,4.1l0.1-0.1c-1.1-0.5-2-1.1-3.8-2c0.7,1.9,0.9,2.6,1.2,3.4l0.1-0.1c-0.9,0.8-2,1.6-3.6,2.9c-0.1,0-1.6-0.8-3-1.5
	l0.1,0.1c-0.4-0.8-0.8-1.6-1.6-3.3c-0.9,3.6-1.6,6.1-2.4,8.7l-0.3-0.4l-2.6-6.5c-0.3,0.1-0.5,0.3-0.8,0.4c0.3,0.5,0.5,1.1,0.8,1.6
	l-1.3,1.1c-0.8,0-1.6-0.1-2.4-0.3c-0.3-0.8-0.5-1.6-0.1-0.3c-1.2-0.9-0.5-0.4,0.1,0.1c0.8,1.2,1.6,2.3,2.3,3.4
	c0.1,0.3,0.4,0.5,0.5,0.7c-6.4-7-14.3-13.2-19.1-21.3c-14.2-24-24-49.8-26.1-78c14.2-4.5,28.2-9,42.3-13.6h0.7l0.5-0.3
	c0.9-0.4,1.9-0.7,2.8-1.1c0.4,0,0.9,0,1.3,0c-4.8,32.1,8.5,59.2,23,86.1c0.5,1.1-0.5,2.8-0.8,4.2c-0.1-0.9-0.4-1.7-0.1-0.3
	c-0.9-1.2-0.4-0.5,0.1,0.3c-0.9,0.4-1.7,0.8-2.6,1.2l0.1,0.1c-0.5-0.8-0.9-1.7-2-3.4C146.4,837.7,146.1,838.4,146.1,839L146.1,839
	L146.1,839z M126.1,849.1c0.3,0,0.5,0.1-0.3,0C126.8,849,126.4,849.1,126.1,849.1z"/>
<path class="st2" d="M650.8,819c35.8-11,71.5-22.1,107.3-33.1c0.9-0.3,1.7-0.7,2.6-0.9c0.4-0.1,0.9-0.3,1.3-0.3
	c1.2-0.4,2.4-0.8,3.7-1.2l0.3-0.1c1.3-0.4,2.6-0.8,4-1.2c0.5-0.1,0.9-0.3,1.5-0.4c1.2-0.3,2.4-0.7,3.6-1.1
	c8.1-2.3,16.2-4.5,24.2-6.8c4,7.6,8.1,15,12.5,23.3C758,814.7,704.6,832,651,849.5L650.8,819L650.8,819z"/>
<path class="st5" d="M183.2,737.4c0,0.4-0.1,0.8-0.4,1.1c-1.6,3.4-3.3,6.9-5,10.3c-3.2,0-6.2,0-9.4,0c-1.3-0.4-2.6-0.7-4-1.1
	c0.1-1.1,0.3-2,0.4-3c0.1-0.5,0.4-1.1,0.5-1.7c2.5-6.9,5-13.9,7.4-20.8c0.3-0.4,0.7-0.9,0.9-1.3c8.7-13.4,20.8-22.8,35.9-28.2
	l0.4,0.1l0.3-0.4c1.6-0.4,3.2-0.9,4.6-1.3l0.3,0.3l0.3-0.4c1.6-0.3,3.3-0.7,4.9-0.9l0.3,0.4l0.3-0.5c4.6-0.4,9.3-0.8,13.9-1.2
	l0.4,0.3l0.4-0.1c2.8,0.4,5.7,0.9,8.5,1.3c0.8,0.1,1.5,0.1,2.3,0.3c28.6,6.6,46.8,24.2,54.2,52.7l-0.3,0.3l0.4,0.1
	c0.1,1.7,0.1,3.6,0.3,5.3c-4.5,0.3-8.9,0.4-13.4,0.7c-0.4-0.4-0.8-0.9-1.1-1.3c-3.3-14.2-12.7-23.8-24.1-31.9
	c-0.8-0.4-1.6-0.9-2.5-1.3l-0.1-0.1c-1.5-0.8-2.8-1.6-4.2-2.4c-0.8-0.3-1.7-0.4-2.5-0.7c-0.5-0.3-1.1-0.4-1.5-0.7
	c-0.4,0-0.8,0-1.1-0.3c-0.7-0.3-1.2-0.7-1.9-0.9c-10.3,0-20.7,0-30.9,0c-0.5,0.3-1.1,0.5-1.6,0.8c-2.1,0.7-4.1,1.3-6.2,1.9
	c-0.7,0.4-1.2,0.8-1.9,1.1c-8.1,7.6-16,15-24.1,22.5C183.9,736.2,183.6,736.8,183.2,737.4L183.2,737.4z"/>
<path class="st2" d="M631.3,741.7c15-22.9,3.4-53.4,35.5-56.8c10.9-1.2,19.6,6.6,19.6,18.8C686.7,739,654.9,727.6,631.3,741.7
	L631.3,741.7z"/>
<path class="st3" d="M164.5,774.4h5.6c4.8,8.9,8.9,16.6,13,24.2c8.3,6,16.7,11.9,15.8,11.1c13.9,7.4,17.8,9.5,22.3,11.9
	c-0.4,0.5,0.5-0.5,0.3-0.4c35.1,1.5,58.4-16.6,78.7-40.4c-3.6,28.3-37.2,53.6-69.9,52.7C198.6,832.7,166.4,803.7,164.5,774.4
	L164.5,774.4z"/>
<path class="st2" d="M832.4,758.6c22.8-19.5,45.6-38.9,68.5-58.4c7.8,21.9-9.8,30.5-21.9,41.7c-12.2,11.4-25,22.1-38.3,33.9
	C837.9,769.9,835.2,764.2,832.4,758.6L832.4,758.6z"/>
<path class="st2" d="M802.8,680.6c-13.4,26.9-39.2,24.4-71.5,34.2c28.1-16.3,24.1-49.8,53.9-49.9C794.8,664.7,801,672.1,802.8,680.6
	L802.8,680.6z"/>
<path class="st2" d="M550,634.4c19.6-15.6,39.1-31.4,58.7-47c6.2,36.7-29.7,42.4-45.4,64.4C558.1,645.1,554.1,639.7,550,634.4
	L550,634.4z M584.2,621.8C585.8,621.4,586.2,621.3,584.2,621.8C586,620.7,585.6,621,584.2,621.8z"/>
<path class="st4" d="M493.3,325.5c0.4-0.1,0.8-0.4,1.2-0.7l0.7,0.3l0.7-0.1c0.4,0.1,0.9,0.1,1.3,0.3c0.5,0.4,0.9,0.7,1.3,1.1
	l0.3,0.1c2.6,1.2,5.4,2.4,8.1,3.6c-1.1,0.3-2.1,0.5-3.2,0.8c0,1.5,0,2.6,0,4C500.2,331.6,496.8,328.5,493.3,325.5L493.3,325.5z"/>
<path class="st2" d="M146,853.7c0,0.9,0,1.7,0.1,2.6l0.1-0.1c-0.9,0.7-2,1.3-3.7,2.5c-0.3-0.5-0.9-2.1-1.6-3.7l-0.1,0.1
	c0.9-0.4,1.9-0.9,2.8-1.3l-0.1,0.1C144.3,853.9,145.2,853.9,146,853.7L146,853.7L146,853.7z"/>
<path class="st2" d="M130.3,861.8c-0.3,1.3-0.7,2.6-1.3,5.6c-1.3-2.9-2-4.1-2.5-5.4c-0.1-0.3-0.4-0.5-0.5-0.7c0-1.1,0-2.1,0-3.2
	c0.4-0.4,0.9-0.8,1.3-1.1c0.9,1.5,1.9,3,2.8,4.5L130.3,861.8L130.3,861.8z"/>
<path class="st3" d="M163.3,765c0.3,2.1,0.4,4.2,0.7,6.5C163.9,769.4,163.6,767.2,163.3,765z"/>
<path class="st2" d="M146.8,863.5c-1.2,0.4-2.4,0.9-3.6,1.3c-0.1-0.3-0.3-0.5-0.4-0.9c1.2-0.5,2.4-0.9,3.6-1.5
	C146.5,862.9,146.6,863.1,146.8,863.5L146.8,863.5z"/>
<path class="st2" d="M152.6,851.1C151.3,850.4,149.8,849.8,152.6,851.1C150.7,848.6,151.7,849.9,152.6,851.1L152.6,851.1
	L152.6,851.1z"/>
<path class="st2" d="M131.4,735.3c0.4-1.3,0.8-2.8,1.2-4.1C132.2,732.5,131.8,734,131.4,735.3z"/>
<path class="st2" d="M146.1,853.9c0.4-0.9,0.8-1.9,0.1-0.3C147.7,852.7,146.9,853.2,146.1,853.9L146.1,853.9L146.1,853.9z"/>
<path class="st2" d="M165.4,743c-0.1,0.5-0.4,1.2-0.5,1.7C165.2,744.1,165.3,743.5,165.4,743z"/>
<path class="st2" d="M166.1,858.4C166.1,857.3,166.1,857.9,166.1,858.4C165.7,858.1,165.3,857.9,166.1,858.4z"/>
<path class="st2" d="M174.6,880.1C175.2,880.2,174.9,880.2,174.6,880.1C174.9,880,175.2,879.7,174.6,880.1z"/>
<path class="st2" d="M156.8,863C157.1,862.2,157.4,861.4,156.8,863C158.4,862.4,157.6,862.8,156.8,863L156.8,863L156.8,863z"/>
<path class="st2" d="M170.1,862.5C170.1,861.3,170.1,861.8,170.1,862.5C169.7,862.1,169.3,861.8,170.1,862.5z"/>
<path class="st2" d="M149.7,852C159.1,855.5,159.6,855.7,149.7,852C159.2,856.5,158.7,856.3,149.7,852z"/>
<path class="st2" d="M152.7,851.2c0.4-0.8,0.8-1.7,0.1-0.3C154.1,849.9,153.4,850.6,152.7,851.2L152.7,851.2z"/>
<path class="st2" d="M151.1,854.8c-0.3,0.8-0.7,1.6-0.1,0.3C149.8,855.9,150.5,855.5,151.1,854.8L151.1,854.8z"/>
<path class="st2" d="M151.9,847c11.7,1.6,11.1,1.6,10.5,1.5C162.7,846.2,153.8,847.1,151.9,847z"/>
<path class="st2" d="M143.3,847.1c0.9,0.3,1.7,0.7,4.2,1.5c-2.5,0.7-3.3,0.9-4.2,1.1l0.1,0.1C143.5,848.8,143.5,848,143.3,847.1
	L143.3,847.1L143.3,847.1z"/>
<path class="st2" d="M156.7,863C156.2,863.5,155.5,864.1,156.7,863C155.2,863.4,156,863.3,156.7,863L156.7,863L156.7,863z"/>
<path class="st2" d="M142.3,880C144.8,879.7,144.4,879.8,142.3,880C144.3,879.2,144.6,878.9,142.3,880z"/>
<path class="st3" d="M163.6,752c-0.1,1.7-0.1,3.3-0.3,5C163.5,755.3,163.6,753.7,163.6,752z"/>
<path class="st2" d="M650.5,770.3c-0.7,0.1-1.5,0.1-2.1,0.3C649.1,770.4,649.8,770.3,650.5,770.3z"/>
<path class="st2" d="M161.9,876.4c0.7,0.5,1.1,0.8,2.4,2c-2.1-0.1-2.6-0.1-3.2-0.1C161.3,877.7,161.5,877.5,161.9,876.4L161.9,876.4
	z"/>
<path class="st2" d="M174.6,873.5C175,874,174.9,873.7,174.6,873.5C175,873.5,175.4,873.5,174.6,873.5z"/>
<path class="st2" d="M148.8,839.2c-0.3,0.8-0.5,1.7-1.1,4c-0.8-2.4-1.1-3.2-1.5-4l-0.1,0.1C146.9,839.2,147.8,839.2,148.8,839.2
	L148.8,839.2L148.8,839.2z"/>
<path class="st2" d="M165.7,873.4C166.8,873.4,166.2,873.4,165.7,873.4C166,873,166.2,872.6,165.7,873.4z"/>
<path class="st2" d="M143.6,871.4C142.5,869.5,142.8,869.9,143.6,871.4C142.3,870.3,142,869.9,143.6,871.4z"/>
<path class="st2" d="M916.9,319.4c-1.5-0.3-2.9-0.5-4.2-0.8C914,318.8,915.5,319.1,916.9,319.4z"/>
<path class="st2" d="M148.6,868.8C151.5,866.2,151,866.6,148.6,868.8C150.2,865.9,150.5,865.4,148.6,868.8z"/>
<path class="st2" d="M174.6,865.1C174.6,866.1,174.6,865.7,174.6,865.1C174.9,865.5,175.2,865.8,174.6,865.1z"/>
<path class="st2" d="M573.2,562.3c-1.1,0.1-2.1,0.3-3.2,0.4C571.2,562.6,572.1,562.4,573.2,562.3z"/>
<path class="st2" d="M400.8,647.1c-0.9,0.3-1.9,0.5-2.8,0.7C399,647.5,399.9,647.2,400.8,647.1z"/>
<path class="st2" d="M166.6,846.5C166.5,845.5,166.6,845.9,166.6,846.5C166.1,846.2,165.7,846.1,166.6,846.5z"/>
<path class="st2" d="M517.7,316.1c-1.1,0.1-2.1,0.1-3.2,0.3C515.6,316.2,516.6,316.1,517.7,316.1z"/>
<path class="st2" d="M335.7,739.2c0.1,1.1,0.3,2.3,0.3,3.3C335.9,741.3,335.8,740.2,335.7,739.2z"/>
<path class="st2" d="M165.7,884.7c0.3,0,0.7,0.1,1.1,0.1c-0.3,0.1-0.5,0.3-0.9,0.3C165.8,885,165.8,884.9,165.7,884.7z"/>
<path class="st4" d="M696.5,170.3c-0.4,1.1-0.7,2-1.1,2.9c0.1-0.7,0.3-1.5,0.5-2.1v0.1C696,170.9,696.1,170.6,696.5,170.3z"/>
<path class="st3" d="M714.5,180.7c-0.3-0.9-0.7-1.9-0.9-2.8C713.9,178.8,714.1,179.7,714.5,180.7z"/>
<path class="st2" d="M133.3,861.8c0.1,0.4,0.4,0.9,0.5,1.3c-0.3,0.1-0.5,0.3-0.7,0.3c-0.1-0.4-0.4-0.9-0.5-1.3L133.3,861.8
	L133.3,861.8z"/>
<path class="st3" d="M717.3,187.2c-0.4-0.9-0.7-1.7-1.1-2.6C716.6,185.4,716.9,186.2,717.3,187.2z"/>
<path class="st2" d="M146.1,856.3C146.5,856.8,147,857.5,146.1,856.3C146.5,857.7,146.4,857.1,146.1,856.3L146.1,856.3z"/>
<path class="st2" d="M151.3,854.9C151.9,854.5,152.7,854.1,151.3,854.9C152.7,854.8,151.9,854.8,151.3,854.9L151.3,854.9
	L151.3,854.9z"/>
<path class="st2" d="M162.5,854.7l-0.3-1.3c0.1,0,0.4-0.1,0.5-0.1c0.1,0.4,0.3,0.8,0.3,1.3C162.9,854.7,162.8,854.7,162.5,854.7
	L162.5,854.7z"/>
<path class="st3" d="M594.9,473.8c0,0.7,0,1.3-0.1,2C594.8,475.1,594.8,474.5,594.9,473.8z"/>
<path class="st2" d="M168.5,849c0.3,0,0.5,0.1,0.8,0.1C169,849.1,168.8,849.1,168.5,849z"/>
<path class="st2" d="M155.8,840.9c-0.1-0.4-0.4-0.8-0.5-1.1c0.1-0.1,0.4-0.1,0.5-0.3l0.5,1.1C156.2,840.6,155.9,840.8,155.8,840.9
	L155.8,840.9z"/>
<path class="st2" d="M173.9,720.7c-0.3,0.4-0.7,0.9-0.9,1.3C173.3,721.7,173.5,721.3,173.9,720.7z"/>
<path class="st2" d="M472.8,620.7c-0.7,0.1-1.3,0.4-1.9,0.7C471.6,621.1,472.1,621,472.8,620.7z"/>
<path class="st2" d="M469.9,621.9c-0.5,0.1-1.1,0.1-1.7,0.3C468.7,622.1,469.2,621.9,469.9,621.9z"/>
<path class="st2" d="M246.6,690.1c-0.8-0.1-1.5-0.1-2.3-0.3C245.2,690,245.9,690,246.6,690.1z"/>
<path class="st2" d="M345.3,667.1c-0.5,0.1-1.2,0.3-1.7,0.4C344.3,667.4,344.8,667.2,345.3,667.1z"/>
<path class="st4" d="M504.8,335.8c0.5,0.5,0.9,0.9,1.5,1.5C505.9,336.7,505.4,336.3,504.8,335.8z"/>
<polygon class="st3" points="822.9,532.5 822.9,532.6 823.3,532.5 "/>
<polygon class="st2" points="321.6,675 321.5,675.4 321.1,675.3 321.2,674.9 "/>
<polygon class="st2" points="317.8,676.5 317.5,677 317.1,676.8 317.4,676.4 "/>
<polygon class="st2" points="311,679 310.9,679.3 310.8,679 "/>
<polygon class="st2" points="872.7,684.2 872.7,684.6 872.6,684.2 "/>
<polygon class="st2" points="879.6,684.3 879.3,684.7 879.2,684.3 "/>
<path class="st2" d="M235.9,688.6l-0.4,0.1l-0.4-0.3l0.4-0.3L235.9,688.6z"/>
<polygon class="st2" points="221.2,689.7 220.8,690.1 220.6,689.9 220.8,689.6 "/>
<polygon class="st2" points="215.7,690.8 215.5,691.2 215.1,690.9 215.4,690.5 "/>
<polygon class="st2" points="210.5,692.3 210.2,692.7 209.7,692.5 210,692.1 "/>
<polygon class="st2" points="853,692.4 852.7,692.8 852.3,692.8 852.4,692.3 "/>
<polygon class="st2" points="447.5,629.9 447.2,630.3 446.9,630.1 447.1,629.7 "/>
<polygon class="st2" points="476.7,619.4 476.6,619.8 476.4,619.4 "/>
<path class="st4" d="M510.3,341.1c0.5,0.5,1.1,1.1,1.6,1.5C511.3,342,510.8,341.6,510.3,341.1z"/>
<path class="st2" d="M486.4,615.7l-0.5,0.3l-0.7-0.1C485.6,615.8,486,615.8,486.4,615.7z"/>
<polygon class="st2" points="124.2,724.1 124,724.5 123.7,724.2 124,723.9 "/>
<polygon class="st2" points="99.1,732 98.8,732.3 98.5,732.1 98.8,731.7 "/>
<polygon class="st2" points="83.3,737.2 82.9,737.7 82.5,737.4 82.8,737 "/>
<path class="st4" d="M508.9,339.8c0.5,0.5,0.9,0.9,1.5,1.5C509.9,340.7,509.3,340.3,508.9,339.8z"/>
<path class="st4" d="M507.6,338.4c0.5,0.5,0.9,0.9,1.5,1.5C508.5,339.4,508.1,339,507.6,338.4z"/>
<path class="st4" d="M506.3,337.1c0.5,0.5,0.9,0.9,1.5,1.5C507.2,338,506.7,337.6,506.3,337.1z"/>
<path class="st2" d="M781.8,740.6c-0.4,0-0.7-0.1-0.8-0.5C781.3,740.2,781.6,740.5,781.8,740.6z"/>
<polygon class="st3" points="801.2,428.1 800.8,427.9 801.2,427.6 801.3,427.9 "/>
<path class="st4" d="M503.5,334.5c0.5,0.5,1.1,0.9,1.5,1.5C504.6,335.4,504,335,503.5,334.5z"/>
<polygon class="st2" points="744.3,748 744.1,748.4 743.7,748.2 743.9,747.8 "/>
<polygon class="st2" points="337.9,753.5 338.2,753.7 337.9,753.9 337.7,753.7 "/>
<polygon class="st2" points="676.9,764.1 676.5,764.5 676.1,764.2 676.4,763.8 "/>
<polygon class="st2" points="666.2,766.4 665.9,766.8 665.4,766.7 665.8,766.3 "/>
<polygon class="st2" points="655.4,769 655.4,769.4 655.2,769 "/>
<polygon class="st2" points="643.5,771.6 643.5,772 643.3,771.7 "/>
<path class="st3" d="M823.6,536.9c-0.4-0.4-0.4-0.8-0.1-1.2c0.1,0.3,0.3,0.5,0.3,0.8C823.7,536.6,823.6,536.7,823.6,536.9
	L823.6,536.9z"/>
<polygon class="st2" points="648.3,810.7 648.6,810.8 648.4,811.2 648,811 "/>
<polygon class="st2" points="823.9,308.2 823.7,308.6 823.6,308.2 "/>
<polygon class="st2" points="797.3,305.5 797.2,305.9 796.9,305.5 "/>
<path class="st2" d="M134.1,856.3c-0.3,0.4-0.4,0.9-0.1,0.3C133.4,856.9,133.8,856.7,134.1,856.3L134.1,856.3L134.1,856.3z"/>
<path class="st3" d="M807.8,461.4l-0.4-0.3l0.1-0.5C807.8,460.7,807.9,461,807.8,461.4L807.8,461.4z"/>
<path class="st3" d="M602.9,439.1c0.1,0.4,0.1,0.8-0.3,1.1c0-0.3-0.1-0.5-0.1-0.8C602.5,439.2,602.7,439.1,602.9,439.1L602.9,439.1z
	"/>
<path class="st3" d="M802.2,434.9c-0.3-0.4-0.3-0.8,0-1.2c0.1,0.3,0.3,0.5,0.3,0.8C802.5,434.6,802.2,434.7,802.2,434.9L802.2,434.9
	z"/>
<polygon class="st3" points="696,171.3 696,171.1 695.5,171 "/>
<path class="st2" d="M153.1,870c0.3,0,0.5,0.1,0.9,0.1C153.7,870.7,153.4,870.7,153.1,870z"/>
<path class="st3" d="M700.9,159.3l0.1-0.3L700.9,159.3z"/>
<polygon class="st2" points="301,743.1 300.4,743 300.8,742.9 "/>
<path class="st4" d="M654.7,368.5c7.9,2.4,15.9,4.8,23.8,7.3c-9.5-2.5-19.1-4.9-28.6-7.3C651.5,368.5,653.1,368.5,654.7,368.5
	L654.7,368.5z"/>
<path class="st4" d="M559.3,343.3c0.7,0.1,1.2,0.1,1.9,0.3c0,0.3,0,0.7,0,1.1c-9.4-2.6-18.9-5.3-28.3-7.9c7.9,1.9,16,3.8,24,5.8
	C557.6,342.7,558.5,343.1,559.3,343.3L559.3,343.3z"/>
<path class="st4" d="M520.9,332.6c1.3,0.5,2.6,1.2,4,1.7c-5.7-1.5-11.5-3-17.2-4.5c0-0.4,0-0.7,0.1-1.1c2.6,0.5,5.3,1.1,7.8,1.6
	c0.5,0.3,0.9,0.5,1.3,0.7c0.8,0.1,1.5,0.3,2.3,0.4C519.7,331.9,520.3,332.3,520.9,332.6L520.9,332.6z"/>
<path class="st4" d="M580.5,348.9c0.8,0.1,1.6,0.1,2.4,0.3c0.1,0.4,0.1,0.8,0.1,1.2c-1.3-0.4-2.5-0.7-3.7-1.1
	C579.7,349.2,580.1,349,580.5,348.9L580.5,348.9z"/>
<path class="st4" d="M611.2,358c0.7,0.1,1.2,0.3,1.9,0.4C612.4,358.3,611.9,358.2,611.2,358z"/>
<path class="st4" d="M584.7,350.9c0.4-0.3,0.8-0.4,1.2-0.7c0.3,0.3,0.7,0.4,1.1,0.4c0,0.4,0.1,0.8,0.3,1.1
	C586.3,351.4,585.5,351.2,584.7,350.9L584.7,350.9z"/>
<path class="st4" d="M812.4,353c0.8,0,1.6,0.1,2.5,0.1c-0.9,0.3-1.9,0.5-2.6,0.9C812.2,353.7,812.3,353.3,812.4,353L812.4,353z"/>
<polygon class="st4" points="805.5,355.8 805.3,355.4 805.5,355.7 "/>
<path class="st4" d="M807.9,355.1c0.7-0.1,1.2-0.4,1.9-0.5C809.1,354.7,808.5,355,807.9,355.1z"/>
<path class="st4" d="M616.1,358.4c0.1,0.4,0.1,0.7,0.3,1.1c-0.4-0.1-0.8-0.3-1.2-0.3C615.4,358.8,615.8,358.6,616.1,358.4z"/>
<path class="st4" d="M527.7,335.1c0.4,0.1,0.8,0.4,1.2,0.5C528.5,335.4,528.1,335.3,527.7,335.1z"/>
<path class="st4" d="M792.6,359.5c0-0.4,0.1-0.7,0.3-1.1c0.4,0.1,0.7,0.3,0.9,0.7C793.3,359.5,793,359.6,792.6,359.5L792.6,359.5z"
	/>
<path class="st4" d="M682.6,377.1c0.4-0.1,0.8-0.4,1.3-0.5c0.3,0.4,0.4,0.7,0.4,1.1C683.8,377.5,683.3,377.3,682.6,377.1z"/>
<path class="st1" d="M351.4,812.7c-7.9-7-7.6-6.6-7.2-6.4c-0.1,0.3-0.3,0.4-0.3,0.5C343.5,806.6,343.1,806.2,351.4,812.7
	L351.4,812.7z"/>
<path class="st1" d="M489.2,850.6C490.8,852.9,490.5,852.6,489.2,850.6C490.9,852.3,491.2,852.6,489.2,850.6z"/>
<path class="st1" d="M479.7,850.8C478.2,849.6,478.6,849.9,479.7,850.8C478.3,850.6,477.8,850.4,479.7,850.8z"/>
<polygon class="st1" points="335,797.3 335.5,797.4 335,797.7 "/>
<path class="st1" d="M437.5,840.6c0.1-0.3,0.1-0.7,0-0.3C437.9,840.1,437.8,840.4,437.5,840.6L437.5,840.6L437.5,840.6z"/>
<polygon class="st1" points="463.4,848.7 463.5,849.1 463.1,849.1 "/>
<path class="st4" d="M689,363.7c-1.9-2.1-3.6-4.4-5.3-6.6C685.4,359.4,687.2,361.6,689,363.7z"/>
<path class="st4" d="M675.8,347.7c-1.6-1.9-3-3.6-4.6-5.4C672.8,344.1,674.3,346,675.8,347.7z"/>
<path class="st4" d="M682.7,356.2c-1.3-1.6-2.5-3-3.8-4.6C680.2,353.1,681.4,354.6,682.7,356.2z"/>
<path class="st4" d="M660.2,328.9c-1.1-1.3-2.1-2.5-3.2-3.8C658.1,326.3,659.2,327.6,660.2,328.9z"/>
<path class="st4" d="M668,338.3c-0.9-1.2-1.9-2.4-2.8-3.6C666,335.9,667.1,337.1,668,338.3z"/>
<path class="st4" d="M691.9,367.3c-0.7-0.8-1.5-1.7-2.1-2.5C690.4,365.7,691.1,366.5,691.9,367.3z"/>
<path class="st4" d="M654.8,322.3c-0.7-0.7-1.2-1.3-1.9-1.9C653.6,321.1,654.1,321.7,654.8,322.3z"/>
<path class="st4" d="M665.1,334.6c-0.5-0.5-0.9-1.2-1.3-1.7C664.2,333.5,664.6,334.1,665.1,334.6z"/>
<path class="st4" d="M670.4,341.2c-0.5-0.5-1.1-1.1-1.6-1.7C669.5,340.2,670,340.7,670.4,341.2z"/>
<path class="st4" d="M678.8,351.3c-0.5-0.8-1.1-1.5-1.6-2.1C677.7,349.8,678.2,350.6,678.8,351.3z"/>
<path class="st4" d="M661.4,330.2c-0.4-0.4-0.7-0.8-1.1-1.2C660.7,329.4,661,329.8,661.4,330.2z"/>
<polygon class="st4" points="693.1,369 692.8,369.2 692.9,368.9 "/>
<path class="st4" d="M652.8,320.3c-0.3-0.5-0.7-0.9-0.9-1.5C652.1,319.2,652.5,319.8,652.8,320.3z"/>
<path class="st1" d="M190.6,766.6c1.3-33.6,21.9-51,53.8-45.4H244l0.3-0.1c30.9,11.1,44.8,50.7,17,74.4
	c-26.9,22.8-64.6,3.3-70.6-28.2C191,767.1,190.9,766.8,190.6,766.6L190.6,766.6z M250.1,762.5c-3-23-35.5-21.5-33,2.4
	C219.5,786.5,247.8,782.2,250.1,762.5z"/>
<path class="st3" d="M244.4,721.1l-0.3,0.1L244.4,721.1z"/>
<path class="st3" d="M190.6,766.6c0.3,0.3,0.3,0.5,0.1,0.8l-0.4-0.4L190.6,766.6L190.6,766.6z"/>
<path class="st1" d="M129.9,861.4c-0.9-1.5-1.9-2.9-2.8-4.5c-0.3-0.5-0.5-1.1-0.8-1.6c0.3-0.1,0.5-0.3,0.8-0.4
	C128.2,857.1,129,859.2,129.9,861.4L129.9,861.4z"/>
<path class="st1" d="M125.8,858.1c0,1.1,0,2.1,0,3.2c-0.8-1.2-1.6-2.3-2.3-3.4l-0.1,0.1C124.2,857.9,125,858,125.8,858.1
	L125.8,858.1z"/>
<path class="st1" d="M143.5,847.1c0,0.9,0,1.9,0,2.8c-0.9-0.4-1.7-0.8-4-1.7C141.7,847.5,142.7,847.3,143.5,847.1z"/>
<path class="st1" d="M143.5,853.7l-2.8,1.3c-0.3-0.8-0.5-1.6-1.2-3.4C141.5,852.7,142.5,853.2,143.5,853.7L143.5,853.7z"/>
<path class="st1" d="M148.8,839.2c-0.9,0-1.9,0-2.8,0c0.1-0.8,0.4-1.6,0.8-3.4C147.8,837.6,148.4,838.4,148.8,839.2L148.8,839.2z"/>
<path class="st1" d="M123.6,857.7C122.9,857.2,122.3,856.7,123.6,857.7C122.9,856.3,123.2,857.1,123.6,857.7
	C123.5,857.9,123.6,857.7,123.6,857.7z"/>
<path class="st1" d="M126.1,849.1c0.3,0,0.5,0-0.3,0C126.6,849.2,126.4,849.2,126.1,849.1z"/>
<path class="st1" d="M151.3,838c-0.5-0.7-1.1-1.3-0.1-0.3C150.9,836.3,151,837.2,151.3,838L151.3,838L151.3,838z"/>
<path class="st1" d="M584.2,621.8C585.6,621,586,620.9,584.2,621.8C586.2,621.3,585.8,621.4,584.2,621.8z"/>
<path class="st2" d="M250.1,762.5c-2.3,19.7-30.6,24-33,2.4C214.6,741,247,739.4,250.1,762.5z"/>
</svg>
