<svg width="368" height="368" viewBox="0 0 368 368" fill="none" xmlns="http://www.w3.org/2000/svg">
<g filter="url(#filter0_i_446_214)">
<rect width="368" height="368" rx="100" fill="white" fill-opacity="0.96"/>
<path d="M115.945 250.28C95.6155 212.722 101.321 164.804 133.063 133.063C164.804 101.321 212.722 95.6155 250.28 115.945C245.824 107.714 240.118 99.9801 233.161 93.0235C194.463 54.3255 131.722 54.3255 93.0235 93.0235C54.3255 131.722 54.3255 194.463 93.0235 233.161C99.9801 240.118 107.714 245.824 115.945 250.28Z" fill="#1B70F0"/>
<path d="M115.945 250.28C153.502 270.609 201.42 264.903 233.162 233.161C264.903 201.42 270.609 153.502 250.28 115.945C258.511 120.4 266.244 126.106 273.201 133.063C311.899 171.761 311.899 234.503 273.201 273.201C234.503 311.899 171.761 311.899 133.063 273.201C126.106 266.244 120.4 258.511 115.945 250.28Z" fill="#1B70F0"/>
<path d="M233.162 133.063C205.619 105.52 165.896 97.5805 131.331 109.244C126.621 110.834 122.087 105.83 125.161 101.922C127.586 98.839 130.22 95.8664 133.063 93.0235C171.761 54.3255 234.503 54.3255 273.201 93.0235C291.482 111.305 301.127 134.951 302.136 158.894C302.365 164.327 294.782 164.993 292.421 160.095C287.711 150.324 281.305 141.166 273.201 133.063C270.358 130.22 267.385 127.586 264.302 125.161C260.395 122.087 255.39 126.619 256.98 131.33C259.998 140.273 261.703 149.561 262.097 158.895C262.326 164.327 254.742 164.993 252.381 160.095C247.672 150.324 241.265 141.167 233.162 133.063Z" fill="url(#paint0_linear_446_214)"/>
<path d="M113.843 206.129C111.482 201.232 103.899 201.897 104.128 207.33C104.521 216.663 106.227 225.951 109.245 234.895C110.834 239.605 105.83 244.137 101.922 241.064C98.839 238.638 95.8663 236.004 93.0235 233.162C84.9199 225.058 78.5133 215.9 73.8036 206.129C71.4427 201.232 63.8595 201.898 64.0884 207.33C65.0974 231.273 74.7424 254.92 93.0235 273.201C131.722 311.899 194.463 311.899 233.161 273.201C236.004 270.358 238.638 267.385 241.064 264.302C244.137 260.394 239.604 255.391 234.893 256.98C200.329 268.644 160.606 260.704 133.063 233.162C124.959 225.058 118.553 215.9 113.843 206.129Z" fill="url(#paint1_linear_446_214)"/>
<path d="M144 281.5L126.5 264" stroke="url(#paint2_linear_446_214)" stroke-width="5" stroke-linecap="round"/>
<path d="M166.5 281.5L149 264" stroke="url(#paint3_linear_446_214)" stroke-width="5" stroke-linecap="round"/>
<circle cx="184" cy="184" r="32.5" fill="url(#paint4_linear_446_214)"/>
<path d="M281.5 186.5C281.5 189.261 279.261 191.5 276.5 191.5C273.739 191.5 271.5 189.261 271.5 186.5C271.5 183.739 273.739 181.5 276.5 181.5C279.261 181.5 281.5 183.739 281.5 186.5Z" fill="url(#paint5_linear_446_214)"/>
<path d="M281.5 201.5C281.5 204.261 279.261 206.5 276.5 206.5C273.739 206.5 271.5 204.261 271.5 201.5C271.5 198.739 273.739 196.5 276.5 196.5C279.261 196.5 281.5 198.739 281.5 201.5Z" fill="url(#paint6_linear_446_214)"/>
<path d="M276.5 221.5C279.261 221.5 281.5 219.261 281.5 216.5C281.5 213.739 279.261 211.5 276.5 211.5C273.739 211.5 271.5 213.739 271.5 216.5C271.5 219.261 273.739 221.5 276.5 221.5Z" fill="url(#paint7_linear_446_214)"/>
<path d="M84 179C84 176.239 86.2386 174 89 174C91.7614 174 94 176.239 94 179C94 181.761 91.7614 184 89 184C86.2386 184 84 181.761 84 179Z" fill="url(#paint8_linear_446_214)"/>
<path d="M84 164C84 161.239 86.2386 159 89 159C91.7614 159 94 161.239 94 164C94 166.761 91.7614 169 89 169C86.2386 169 84 166.761 84 164Z" fill="url(#paint9_linear_446_214)"/>
<path d="M89 144C86.2386 144 84 146.239 84 149C84 151.761 86.2386 154 89 154C91.7614 154 94 151.761 94 149C94 146.239 91.7614 144 89 144Z" fill="url(#paint10_linear_446_214)"/>
<path d="M247.602 67C249.89 63 255.61 63 257.898 67L268.195 85C270.483 89 267.623 94 263.046 94H242.454C237.877 94 235.017 89 237.305 85L247.602 67Z" fill="url(#paint11_linear_446_214)"/>
<rect x="1.5" y="1.5" width="365" height="365" rx="98.5" stroke="white" stroke-width="3"/>
</g>
<defs>
<filter id="filter0_i_446_214" x="0" y="0" width="368" height="368" filterUnits="userSpaceOnUse" color-interpolation-filters="sRGB">
<feFlood flood-opacity="0" result="BackgroundImageFix"/>
<feBlend mode="normal" in="SourceGraphic" in2="BackgroundImageFix" result="shape"/>
<feColorMatrix in="SourceAlpha" type="matrix" values="0 0 0 0 0 0 0 0 0 0 0 0 0 0 0 0 0 0 127 0" result="hardAlpha"/>
<feOffset/>
<feGaussianBlur stdDeviation="1.5"/>
<feComposite in2="hardAlpha" operator="arithmetic" k2="-1" k3="1"/>
<feColorMatrix type="matrix" values="0 0 0 0 1 0 0 0 0 1 0 0 0 0 1 0 0 0 0.8 0"/>
<feBlend mode="normal" in2="shape" result="effect1_innerShadow_446_214"/>
</filter>
<linearGradient id="paint0_linear_446_214" x1="302.224" y1="123.556" x2="115.945" y2="123.556" gradientUnits="userSpaceOnUse">
<stop stop-color="#EEF5FF"/>
<stop offset="1" stop-color="#97C7FF"/>
</linearGradient>
<linearGradient id="paint1_linear_446_214" x1="250.28" y1="242.668" x2="64" y2="242.668" gradientUnits="userSpaceOnUse">
<stop stop-color="#97C7FF"/>
<stop offset="1" stop-color="#EEF5FF"/>
</linearGradient>
<linearGradient id="paint2_linear_446_214" x1="135.25" y1="264" x2="135.25" y2="281.5" gradientUnits="userSpaceOnUse">
<stop stop-color="#C5DEFF"/>
<stop offset="1" stop-color="#82BBFF"/>
</linearGradient>
<linearGradient id="paint3_linear_446_214" x1="157.75" y1="264" x2="157.75" y2="281.5" gradientUnits="userSpaceOnUse">
<stop stop-color="#C5DEFF"/>
<stop offset="1" stop-color="#82BBFF"/>
</linearGradient>
<linearGradient id="paint4_linear_446_214" x1="216.5" y1="151.5" x2="157.594" y2="210.406" gradientUnits="userSpaceOnUse">
<stop stop-color="#F3F8FF"/>
<stop offset="0.546875" stop-color="#B9D9FF"/>
<stop offset="1" stop-color="#96C6FF"/>
</linearGradient>
<linearGradient id="paint5_linear_446_214" x1="281.5" y1="179" x2="261.638" y2="184.26" gradientUnits="userSpaceOnUse">
<stop stop-color="#F3F8FF"/>
<stop offset="1" stop-color="#96C6FF"/>
</linearGradient>
<linearGradient id="paint6_linear_446_214" x1="281.5" y1="179" x2="261.638" y2="184.26" gradientUnits="userSpaceOnUse">
<stop stop-color="#F3F8FF"/>
<stop offset="1" stop-color="#96C6FF"/>
</linearGradient>
<linearGradient id="paint7_linear_446_214" x1="281.5" y1="179" x2="261.638" y2="184.26" gradientUnits="userSpaceOnUse">
<stop stop-color="#F3F8FF"/>
<stop offset="1" stop-color="#96C6FF"/>
</linearGradient>
<linearGradient id="paint8_linear_446_214" x1="84" y1="186.5" x2="103.862" y2="181.24" gradientUnits="userSpaceOnUse">
<stop stop-color="#F3F8FF"/>
<stop offset="1" stop-color="#96C6FF"/>
</linearGradient>
<linearGradient id="paint9_linear_446_214" x1="84" y1="186.5" x2="103.862" y2="181.24" gradientUnits="userSpaceOnUse">
<stop stop-color="#F3F8FF"/>
<stop offset="1" stop-color="#96C6FF"/>
</linearGradient>
<linearGradient id="paint10_linear_446_214" x1="84" y1="186.5" x2="103.862" y2="181.24" gradientUnits="userSpaceOnUse">
<stop stop-color="#F3F8FF"/>
<stop offset="1" stop-color="#96C6FF"/>
</linearGradient>
<linearGradient id="paint11_linear_446_214" x1="262.75" y1="64" x2="236.5" y2="94" gradientUnits="userSpaceOnUse">
<stop stop-color="#D8E9FF"/>
<stop offset="1" stop-color="#99C8FF"/>
</linearGradient>
</defs>
</svg>
