<?xml version="1.0" encoding="UTF-8" standalone="no"?>
<!-- Created with Inkscape (http://www.inkscape.org/) -->

<svg
   version="1.1"
   id="svg2"
   width="384"
   height="480"
   viewBox="0 0 384 480"
   sodipodi:docname="All In C Vector_All-In C GREEN.eps"
   xmlns:inkscape="http://www.inkscape.org/namespaces/inkscape"
   xmlns:sodipodi="http://sodipodi.sourceforge.net/DTD/sodipodi-0.dtd"
   xmlns="http://www.w3.org/2000/svg"
   xmlns:svg="http://www.w3.org/2000/svg">
  <defs
     id="defs6" />
  <sodipodi:namedview
     id="namedview4"
     pagecolor="#ffffff"
     bordercolor="#000000"
     borderopacity="0.25"
     inkscape:showpageshadow="2"
     inkscape:pageopacity="0.0"
     inkscape:pagecheckerboard="0"
     inkscape:deskcolor="#d1d1d1" />
  <g
     id="g8"
     inkscape:groupmode="layer"
     inkscape:label="ink_ext_XXXXXX"
     transform="matrix(1.3333333,0,0,-1.3333333,0,480)">
    <g
       id="g10"
       transform="scale(0.1)">
      <path
         d="m 1524.89,1704.8 c -48.11,-359.61 -51.09,-718.929 -45.75,-1075.89 -192.42,322.07 -290.7,681.03 -266.76,1060.74 l -58.3,-2.67 c -11.19,-0.51 -19.62,6.45 -21.05,16.11 l -112.25,-5.54 c -11.44,-0.57 -19.46,8.29 -17.27,19.08 l 93.55,277.34 c 2.08,10.21 12.53,18.04 23.18,17.36 l 59.13,-6.22 c 4.21,10.03 15.07,17.33 26.37,16.8 l 57.47,-2.67 c 93.17,379.71 302.19,738.67 593.95,1060.74 -115.45,-356.96 -223.3,-716.28 -286.12,-1075.89 l 81.85,-33.64 783.43,38.53 c 11.59,0.57 22.3,8.24 24.28,19.32 0.01,0.07 0.02,0.14 0.03,0.2 49.26,283.83 111.7,600.53 172.04,881.9 3.05,14.25 -0.01,26.91 -9.19,38.02 -73.86,90.08 -147.1,181.06 -219.71,272.93 -9.03,11.33 -21.85,17.41 -38.41,18.22 -449.44,21.88 -898.92,43.48 -1348.42,64.79 -15.31,0.72 -29.971,-4.35 -43.975,-15.25 -113.586,-88.4 -226.727,-177.99 -339.399,-268.75 -13.89,-11.19 -22.425,-24.54 -25.593,-40.02 C 447.895,2198.17 326.988,1407.39 246.508,610.781 244.914,595.02 249.305,581.57 259.672,570.449 343.758,480.27 428.418,391.02 513.633,302.73 c 9.328,-9.66 39.008,-6.742 39.008,-6.742 H 1852.92 c 0,0 32.49,7.192 43.69,17.723 101.45,96.148 258.25,254.449 360.82,348.34 12.72,11.578 19.89,51.871 21.49,66.39 22.05,199.571 46.84,398.709 74.37,597.339 3.36,24.25 6.76,48.49 10.2,72.73 13.08,92.1 29.6,192.65 44.73,286.45 3.11,19.33 -12.12,36.84 -32.31,37.19 l -759.29,13.14 -91.73,-30.49"
         style="fill:#1a523d;fill-opacity:1;fill-rule:nonzero;stroke:none"
         id="path12" />
    </g>
  </g>
</svg>
